<svg id="Слой_1" data-name="Слой 1" xmlns="http://www.w3.org/2000/svg" viewBox="0 0 360.32 189.44"><defs><style>.cls-1{fill:#fff;}.cls-2{fill:#1fb6ff;}.cls-3{fill:#1d9cce;}.cls-4{fill:#83c4dd;stroke:#83c4dd;stroke-miterlimit:10;stroke-width:2px;}</style></defs><title>100friends-en</title><rect class="cls-1" width="360.32" height="189.44"/><path class="cls-2" d="M349.94,118.35H308.56a2.06,2.06,0,0,0-2.06,2.06,3.43,3.43,0,0,1-3.43,3.43h-6.85a3.43,3.43,0,0,1-3.43-3.43,2.06,2.06,0,0,0-2.06-2.06H258.58V65.44a4.29,4.29,0,0,1,4.29-4.29h25.68v.18l-4.27,4h0a19.68,19.68,0,0,0-5.79,14v9.19A2.06,2.06,0,0,0,281.94,90l9-8.09a2.06,2.06,0,0,0,1.2.94A26.61,26.61,0,0,0,299.58,84h.1a26.61,26.61,0,0,0,7.54-1.05,2.06,2.06,0,0,0,1.21-1l9.06,8.17a2.06,2.06,0,0,0,3.45-1.52V79.44a19.68,19.68,0,0,0-5.79-14l-4-4v-.31h25.3a4.29,4.29,0,0,1,4.33,4.25h0v37.8a2.07,2.07,0,1,0,4.13,0h0V65.44a8.42,8.42,0,0,0-8.4-8.44H311.65a34.21,34.21,0,0,0-8.77-25.64l-.36-.4a3.51,3.51,0,0,0-2.61-1.15h0A3.51,3.51,0,0,0,297.3,31l-.68.78A34.36,34.36,0,0,0,288.14,57H262.89a8.42,8.42,0,0,0-8.42,8.37h0v53H249.4a2.06,2.06,0,0,0-2.08,2v3.24a11.67,11.67,0,0,0,11.62,11.72h81.43A11.67,11.67,0,0,0,352,123.68v-3.24a2.06,2.06,0,0,0-2-2.1ZM309.48,74.44l1-7.8,1.62,1.62a15.59,15.59,0,0,1,4.6,11.09v4.56l-7.61-6.86Zm-9.82-39.89.24-.28a30.1,30.1,0,0,1,7.48,23.9l-.47,3.75h0l-2,15.71h0l-.21,1.62a22.48,22.48,0,0,1-5.08.58h0a22.5,22.5,0,0,1-5-.58L293,63.56l-.18-1.76h0l-.45-4.36a30.22,30.22,0,0,1,7.3-22.9ZM290.19,77.1,282.55,84V79.44a15.59,15.59,0,0,1,4.58-11.07l2-1.86Zm50.13,54H259a7.54,7.54,0,0,1-7.54-7.54h0v-1.17H289a7.56,7.56,0,0,0,7.27,5.49h6.85a7.56,7.56,0,0,0,7.24-5.49h37.55v1.15h0a7.54,7.54,0,0,1-7.52,7.56h-.07Z"/><path class="cls-2" d="M334.45,65.73H324.08a2.07,2.07,0,0,0-.29,4.13h8.59v39.89H267.65V69.86h6.47a2.07,2.07,0,0,0,.29-4.13h-8.88a2.06,2.06,0,0,0-2.06,2.06v44a2.06,2.06,0,0,0,2.06,2.06h68.86a2.06,2.06,0,0,0,2.06-2.06v-44A2.06,2.06,0,0,0,334.45,65.73Z"/><circle class="cls-2" cx="299.69" cy="51.57" r="2.06"/><circle class="cls-2" cx="342.84" cy="112.16" r="2.06"/><path class="cls-2" d="M294.32,87a2.06,2.06,0,0,0-2.06,2.06v8.45a2.07,2.07,0,0,0,4.13,0h0V89.13a2.06,2.06,0,0,0-2-2.12h-.07Z"/><path class="cls-2" d="M304.79,86.54a2.06,2.06,0,0,0-2.06,2.06V101a2.07,2.07,0,1,0,4.13,0V88.6a2.06,2.06,0,0,0-2.06-2.06Z"/><path class="cls-2" d="M218.77,80.64,172.69,34.56a2.76,2.76,0,1,0-3.91,3.88l44.11,44.11-44.11,44.11a2.77,2.77,0,0,0,1.94,4.73,2.7,2.7,0,0,0,1.94-.82l46.08-46.08A2.75,2.75,0,0,0,218.77,80.64Z"/><path class="cls-3" d="M20.17,62.54H34.9v51.71H25.12V71.79H14.47Z"/><path class="cls-3" d="M68.65,61.24A17,17,0,0,1,78.4,64a17.62,17.62,0,0,1,6.33,8.49Q87,78.22,87,88.42t-2.27,16a18,18,0,0,1-6.1,8.42A16.43,16.43,0,0,1,69,115.53a17,17,0,0,1-9.81-2.71A17.65,17.65,0,0,1,53,104.59q-2.25-5.52-2.25-15.71,0-14.24,4.39-20.64A15.65,15.65,0,0,1,68.65,61.24Zm.23,9.35a6.73,6.73,0,0,0-4.42,1.6,10.64,10.64,0,0,0-3,5.5,48.29,48.29,0,0,0-1,11.43q0,9.81,2.33,13.55t6.05,3.74a6.38,6.38,0,0,0,5.68-3.55q2.56-4.29,2.56-14.34t-2.3-14.06q-2.31-3.86-6-3.86Z"/><path class="cls-3" d="M109,61.24A17,17,0,0,1,118.73,64a17.62,17.62,0,0,1,6.33,8.49q2.23,5.71,2.23,15.91t-2.27,16a18,18,0,0,1-6.1,8.42,16.43,16.43,0,0,1-9.67,2.69,17,17,0,0,1-9.81-2.71,17.65,17.65,0,0,1-6.22-8.23Q91,99.11,91,88.91q0-14.24,4.39-20.64A15.65,15.65,0,0,1,109,61.24Zm.23,9.35a6.73,6.73,0,0,0-4.42,1.6q-1.93,1.6-2.95,5.5a48.29,48.29,0,0,0-1,11.43q0,9.81,2.33,13.55t6.05,3.74a6.38,6.38,0,0,0,5.68-3.55q2.56-4.29,2.56-14.34t-2.3-14.06q-2.33-3.86-6-3.86Z"/><path class="cls-4" d="M13.19,38.92c0-1.5,0-2.73-.12-3.93h2.31l.12,2.34h.09a5,5,0,0,1,4.56-2.67,4.29,4.29,0,0,1,4.11,2.91h.06a6,6,0,0,1,1.62-1.89,5,5,0,0,1,3.21-1c1.92,0,4.77,1.26,4.77,6.3v8.55H31.34V41.29c0-2.79-1-4.47-3.15-4.47a3.42,3.42,0,0,0-3.12,2.4,4.34,4.34,0,0,0-.21,1.32v9H22.28v-8.7c0-2.31-1-4-3-4a3.93,3.93,0,0,0-3.48,3.93v8.76H13.19Z"/><path class="cls-4" d="M41.15,30.91a1.64,1.64,0,0,1-3.27,0,1.61,1.61,0,0,1,1.57-1.65h.08a1.57,1.57,0,0,1,1.62,1.52S41.15,30.87,41.15,30.91Zm-2.94,18.6V35h2.64V49.51Z"/><path class="cls-4" d="M45.23,38.92c0-1.5,0-2.73-.12-3.93h2.34l.15,2.4h.06a5.34,5.34,0,0,1,4.8-2.73c2,0,5.13,1.2,5.13,6.18v8.67H55V41.14c0-2.34-.87-4.29-3.36-4.29A3.75,3.75,0,0,0,48,39.55a3.79,3.79,0,0,0-.18,1.23v8.73H45.23Z"/><path class="cls-4" d="M64.82,30.91a1.64,1.64,0,0,1-3.27,0,1.61,1.61,0,0,1,1.57-1.65h.08a1.57,1.57,0,0,1,1.62,1.52S64.82,30.87,64.82,30.91Zm-2.94,18.6V35h2.64V49.51Z"/><path class="cls-4" d="M68.9,38.92c0-1.5,0-2.73-.12-3.93h2.31l.12,2.34h.09a5,5,0,0,1,4.56-2.67A4.29,4.29,0,0,1,80,37.57h0a6,6,0,0,1,1.62-1.89,5,5,0,0,1,3.21-1c1.92,0,4.77,1.26,4.77,6.3v8.55H87V41.29c0-2.79-1-4.47-3.15-4.47a3.42,3.42,0,0,0-3.12,2.4,4.34,4.34,0,0,0-.21,1.32v9H78v-8.7c0-2.31-1-4-3-4a3.93,3.93,0,0,0-3.48,3.93v8.76H68.9Z"/><path class="cls-4" d="M106.07,45.55c0,1.5,0,2.82.12,4h-2.34l-.15-2.37h-.06a5.46,5.46,0,0,1-4.8,2.7c-2.28,0-5-1.26-5-6.36V35h2.64v8c0,2.76.84,4.62,3.24,4.62a3.82,3.82,0,0,0,3.48-2.4,3.86,3.86,0,0,0,.24-1.35V35h2.64Z"/><path class="cls-4" d="M110.45,38.92c0-1.5,0-2.73-.12-3.93h2.31l.12,2.34h.09a5,5,0,0,1,4.56-2.67,4.29,4.29,0,0,1,4.11,2.91h.06a6,6,0,0,1,1.62-1.89,5,5,0,0,1,3.21-1c1.92,0,4.77,1.26,4.77,6.3v8.55H128.6V41.29c0-2.79-1-4.47-3.15-4.47a3.42,3.42,0,0,0-3.12,2.4,4.34,4.34,0,0,0-.21,1.32v9h-2.58v-8.7c0-2.31-1-4-3-4A3.93,3.93,0,0,0,113,40.75v8.76h-2.58Z"/><path class="cls-4" d="M18.56,126.23H30.45v2.39h-9V136H29.8v2.36H21.41v10H18.56Z"/><path class="cls-4" d="M34.51,126.52a29.69,29.69,0,0,1,5.47-.46c3,0,5,.56,6.39,1.8a5.5,5.5,0,0,1,1.74,4.19A5.8,5.8,0,0,1,44,137.68v.1c1.7.59,2.72,2.16,3.24,4.46a35.15,35.15,0,0,0,1.7,6.06H46a28.57,28.57,0,0,1-1.48-5.3c-.66-3-1.83-4.19-4.42-4.29H37.36v9.57H34.51Zm2.85,10.06h2.92c3,0,5-1.67,5-4.19,0-2.85-2.06-4.09-5.08-4.13a11.68,11.68,0,0,0-2.82.26Z"/><path class="cls-4" d="M55,126.23v22.08H52.14V126.23Z"/><path class="cls-4" d="M71.4,138H62.82v8h9.57v2.39H60V126.23H71.89v2.39H62.82v7H71.4Z"/><path class="cls-4" d="M76.08,148.31V126.23H79.2l7.08,11.17a62.45,62.45,0,0,1,4,7.17h.07c-.26-2.95-.33-5.63-.33-9.07v-9.24h2.69v22.08H89.78l-7-11.2a70.18,70.18,0,0,1-4.13-7.37h-.1c.16,2.79.23,5.44.23,9.11v9.43Z"/><path class="cls-4" d="M97.64,126.52a40.88,40.88,0,0,1,6.06-.46c4.1,0,7,1,8.94,2.75s3.11,4.36,3.11,7.93a11.68,11.68,0,0,1-3.18,8.58c-2.06,2.06-5.47,3.18-9.76,3.18a46,46,0,0,1-5.18-.26ZM100.49,146a18,18,0,0,0,2.88.16c6.09,0,9.4-3.41,9.4-9.37,0-5.21-2.92-8.52-8.94-8.52a16.25,16.25,0,0,0-3.34.29Z"/><path class="cls-4" d="M119.06,144.84a10.1,10.1,0,0,0,5.11,1.44c2.92,0,4.62-1.54,4.62-3.77,0-2.06-1.18-3.24-4.16-4.39-3.6-1.28-5.83-3.15-5.83-6.26,0-3.44,2.85-6,7.14-6a10,10,0,0,1,4.88,1.08l-.79,2.33a8.8,8.8,0,0,0-4.19-1c-3,0-4.16,1.8-4.16,3.31,0,2.06,1.34,3.08,4.39,4.26,3.73,1.44,5.63,3.24,5.63,6.49,0,3.41-2.52,6.36-7.73,6.36a11.41,11.41,0,0,1-5.63-1.41Z"/></svg>