<svg id="Layer_1" data-name="Layer 1" xmlns="http://www.w3.org/2000/svg" viewBox="0 0 143.34 101.5"><defs><style>.cls-1{fill:#1fb6ff;}.cls-2{fill:#fff;}</style></defs><title>avatarboy1</title><circle class="cls-1" cx="92.59" cy="50.75" r="50.75"/><circle class="cls-1" cx="12.42" cy="50.92" r="12.42"/><circle class="cls-2" cx="87.18" cy="37.79" r="1.45"/><circle class="cls-2" cx="98.15" cy="37.79" r="1.45"/><path class="cls-2" d="M115.64,63.57c-2.7-.69-5.09-1.24-7.91-1.69L104.9,57.6a1.39,1.39,0,0,0-2.21-.15L93,68.46,83.28,58.1a1.39,1.39,0,0,0-2.13.11l-2.78,3.65c-2.9.46-5.34,1-8.08,1.73a13.37,13.37,0,0,0-10,13v3.25a5.49,5.49,0,0,0,5.49,5.49h54.54a5.49,5.49,0,0,0,5.49-5.49V76.56A13.41,13.41,0,0,0,115.64,63.57Zm-12.06-2.91,2,3.09-5.07,10.07-5.44-3.57Zm-21.21.55,8.46,9-5.56,3.54-4.56-10.4Zm4.54,21.3H65.73a2.7,2.7,0,0,1-2.7-2.7V76.56A10.58,10.58,0,0,1,71,66.29c2.48-.64,4.71-1.15,7.26-1.58L83.37,76.4a1.39,1.39,0,0,0,2,.62l2.71-1.73Zm2.83,0,1.53-9.23L93,72.19l1.8,1.18,2.05,9.14Zm30.53,0H99.7l-1.56-6.94L100.33,77a1.39,1.39,0,0,0,2-.54l5.88-11.68c2.33.41,4.41.9,6.73,1.49a10.62,10.62,0,0,1,8,10.29v3.25h0A2.7,2.7,0,0,1,120.27,82.51Z" transform="translate(0 0)"/><path class="cls-2" d="M113.4,19.13A1.39,1.39,0,0,0,112,20.52V22.4a5.16,5.16,0,0,1-5.15,5.15H84.73a8,8,0,0,0-8,8v7.32a16,16,0,0,0,.12,1.95c-2.83-1.22-3.09-4.91-3.09-6.17V25.5a4.6,4.6,0,0,1,4.59-4.59h1.7a1.39,1.39,0,0,0,1.39-1.39,2.81,2.81,0,0,1,2.81-2.81h23a1.39,1.39,0,1,0,0-2.79h-23a5.61,5.61,0,0,0-5.42,4.2H78.4A7.39,7.39,0,0,0,71,25.5V38.59c0,5.08,2.55,8.6,6.57,9.25a15.93,15.93,0,0,0,31-5V30.13a8,8,0,0,0,6.16-7.74V20.52A1.39,1.39,0,0,0,113.4,19.13Zm-7.56,23.69a13.14,13.14,0,1,1-26.27,0V35.5h0a5.17,5.17,0,0,1,5.16-5.16h21.11Z" transform="translate(0 0)"/><path class="cls-2" d="M98.08,46.72a1.4,1.4,0,0,0-2,0,4.41,4.41,0,0,1-6.38-.15,1.39,1.39,0,0,0-2.06,1.88,7.2,7.2,0,0,0,10.42.24A1.4,1.4,0,0,0,98.08,46.72Z" transform="translate(0 0)"/><circle class="cls-2" cx="113.4" cy="15.31" r="1.39"/></svg>