<svg id="Слой_1" data-name="Слой 1" xmlns="http://www.w3.org/2000/svg" viewBox="0 0 101.5 101.5"><defs><style>.cls-1{fill:#1fb6ff;}.cls-2{fill:#fff;}</style></defs><title>avatargirl</title><circle class="cls-1" cx="50.75" cy="50.75" r="50.75"/><circle class="cls-2" cx="45.91" cy="37.44" r="1.35"/><circle class="cls-2" cx="56.28" cy="37.44" r="1.35"/><path class="cls-2" d="M72.83,60.17c-2.45-.62-4.94-1.14-7.44-1.55l-2.7-4.08a1.35,1.35,0,0,0-2.14-.15L51.42,64.72l-9.14-9.77a1.35,1.35,0,0,0-1.91-.07l-.15.17-2.66,3.49c-1.85.3-3.7.66-5.53,1.08V33.29a19,19,0,1,1,37.95,0V50.75a1.35,1.35,0,1,0,2.7,0V33.29a21.68,21.68,0,1,0-43.35,0v27a12.67,12.67,0,0,0-8.91,12.14v3.08a5.22,5.22,0,0,0,5.22,5.22H77.2a5.22,5.22,0,0,0,5.22-5.22h0V72.44A12.71,12.71,0,0,0,72.83,60.17ZM61.42,57.45l1.9,2.87-4.77,9.47-5.13-3.33Zm-20,.52,7.95,8.5-5.19,3.3L39.89,60ZM45.69,78h-20a2.52,2.52,0,0,1-2.52-2.52V72.43a10,10,0,0,1,7.49-9.68c2.25-.58,4.56-1.06,6.86-1.45l4.82,11a1.35,1.35,0,0,0,1.77.73l.23-.13,2.51-1.59Zm2.74,0h0l1.43-8.67,1.6-1,1.67,1.1L55.06,78H48.42Zm31.34-2.52A2.52,2.52,0,0,1,77.25,78H57.78l-1.45-6.46,2,1.32a1.35,1.35,0,0,0,1.87-.38l.08-.14,5.53-11c2.13.37,4.27.83,6.36,1.36a10,10,0,0,1,7.55,9.7Z"/><path class="cls-2" d="M62.29,29.26H56a4.52,4.52,0,0,1-3.6-1.8,1.35,1.35,0,0,0-2.12-.06,5.15,5.15,0,0,1-4,1.85h-6a4.32,4.32,0,0,0-4.32,4.32h0v7a15.09,15.09,0,0,0,30.17.78q0-.39,0-.78v-7.4A3.94,3.94,0,0,0,62.29,29.26Zm1.23,11.27a12.39,12.39,0,0,1-24.78,0h0v-7a1.62,1.62,0,0,1,1.62-1.62h6a7.84,7.84,0,0,0,5-1.76,7.23,7.23,0,0,0,4.71,1.76h6.3a1.23,1.23,0,0,1,1.23,1.23h0Z"/><path class="cls-2" d="M55.15,45a1.35,1.35,0,0,0-1.91,0h0a2.63,2.63,0,0,1-3.72,0l-.09-.1a1.35,1.35,0,1,0-2,1.82,5.33,5.33,0,0,0,7.53.35l.18-.17a1.35,1.35,0,0,0,0-1.91Z"/><circle class="cls-2" cx="71.3" cy="55.88" r="1.35"/></svg>