<svg id="Слой_1" data-name="Слой 1" xmlns="http://www.w3.org/2000/svg" viewBox="0 0 141.34 101.5"><defs><style>.cls-1{fill:#1fb6ff;}.cls-2{fill:#fff;}</style></defs><title>avatarboy</title><circle class="cls-1" cx="50.75" cy="50.75" r="50.75"/><circle class="cls-2" cx="45.9" cy="39.99" r="1.37"/><circle class="cls-2" cx="56.29" cy="39.99" r="1.37"/><path class="cls-2" d="M72.85,64.39c-2.55-.65-4.81-1.17-7.49-1.6l-2.67-4a1.32,1.32,0,0,0-2.09-.15L51.42,69l-9.2-9.84a1.32,1.32,0,0,0-1.87,0h0l-.13.15-2.63,3.46c-2.75.44-5,1-7.65,1.63a12.65,12.65,0,0,0-9.52,12.32V79.8A5.2,5.2,0,0,0,25.61,85H77.23a5.2,5.2,0,0,0,5.19-5.19V76.68A12.69,12.69,0,0,0,72.85,64.39ZM61.42,61.63l1.93,2.93-4.8,9.53-5.13-3.38Zm-20.07.52,8,8.56-5.26,3.35-4.3-9.89Zm4.3,20.16h-20a2.55,2.55,0,0,1-2.55-2.55h0V76.68A10,10,0,0,1,30.58,67c2.35-.6,4.45-1.09,6.87-1.5l4.85,11a1.32,1.32,0,0,0,1.74.68h0l.18-.1,2.57-1.63Zm2.68,0,1.44-8.73,1.63-1,1.7,1.12L55,82.35Zm28.89,0H57.76l-1.48-6.57,2.07,1.36a1.32,1.32,0,0,0,1.83-.38h0l.07-.13,5.57-11.06c2.21.39,4.18.85,6.37,1.41a10,10,0,0,1,7.59,9.74v3.08h0a2.55,2.55,0,0,1-2.55,2.55h0Z"/><path class="cls-2" d="M70.72,22.33a1.32,1.32,0,0,0-1.32,1.32h0v1.77a4.88,4.88,0,0,1-4.87,4.87H43.59a7.53,7.53,0,0,0-7.53,7.53v6.93a15.17,15.17,0,0,0,.11,1.84c-2.68-1.15-2.92-4.65-2.92-5.84V28.35A4.35,4.35,0,0,1,37.6,24h1.61a1.32,1.32,0,0,0,1.32-1.32h0A2.66,2.66,0,0,1,43.17,20H64.94a1.32,1.32,0,0,0,0-2.64H43.19a5.31,5.31,0,0,0-5.13,4H37.6a7,7,0,0,0-7,7V40.77c0,4.81,2.41,8.14,6.22,8.75A15.07,15.07,0,0,0,66.2,44.77v-12A7.53,7.53,0,0,0,72,25.45V23.68a1.32,1.32,0,0,0-1.29-1.35h0ZM63.57,44.75a12.43,12.43,0,0,1-24.86,0V37.82h0a4.89,4.89,0,0,1,4.89-4.89h20Z"/><path class="cls-2" d="M56.23,48.44a1.32,1.32,0,0,0-1.87,0h0a4.18,4.18,0,0,1-5.91,0l-.09-.09A1.34,1.34,0,0,0,46.28,50l.08.09a6.82,6.82,0,0,0,9.63.45l.23-.22a1.32,1.32,0,0,0,0-1.87h0Z"/><circle class="cls-2" cx="70.72" cy="18.71" r="1.32"/><circle class="cls-1" cx="131.42" cy="50.42" r="9.92"/></svg>