<svg id="Layer_1" data-name="Layer 1" xmlns="http://www.w3.org/2000/svg" viewBox="0 0 143.34 101.5"><defs><style>.cls-1{fill:#1fb6ff;}.cls-2{fill:#fff;}</style></defs><title>beer1</title><circle class="cls-1" cx="50.75" cy="50.75" r="50.75"/><circle class="cls-1" cx="130.92" cy="50.92" r="12.42"/><path class="cls-2" d="M80.32,42H72.79V40.44a8.25,8.25,0,0,0-2.34-15,9.09,9.09,0,0,0-8.74-6.73c-.25,0-.51,0-.76,0A11.88,11.88,0,0,0,40.69,17a8.27,8.27,0,0,0-10.53,5.25H30a7.77,7.77,0,0,0-4.18,14.31V78.42A7.22,7.22,0,0,0,33,85.62H65.58a7.21,7.21,0,0,0,7.21-7.21V69.84h7.53a1.44,1.44,0,0,0,1.44-1.44v-25A1.44,1.44,0,0,0,80.32,42ZM36.89,82.75H33a4.34,4.34,0,0,1-4.34-4.34V59.34a4,4,0,0,1,4-4h.13a4,4,0,0,1,4,4V82.75Zm11,0H45.16V65.46a1.44,1.44,0,1,0-2.87,0v17.3H39.77V59.34h0a4,4,0,0,1,4-4h.12a4,4,0,0,1,4,4ZM59,59.43V82.75H50.81V59.34h0a4,4,0,0,1,4-4H55a4,4,0,0,1,4,4v.09Zm10.93,19a4.31,4.31,0,0,1-.52,2.07l-.1.18a4.36,4.36,0,0,1-2,1.72V65.46a1.44,1.44,0,0,0-2.87,0v17.3H61.86V59.43h0a4.1,4.1,0,0,1,3.92-4.12,4,4,0,0,1,4.13,4V78.42Zm0-24.68a6.84,6.84,0,0,0-9.47,1.42A6.89,6.89,0,0,0,55,52.44h-.12a6.89,6.89,0,0,0-5.46,2.69,6.89,6.89,0,0,0-5.46-2.69H43.8a6.89,6.89,0,0,0-5.46,2.69,6.89,6.89,0,0,0-5.46-2.69h-.13a6.86,6.86,0,0,0-4,1.3V46H69.92v7.77ZM28.71,43.09V37.7h.08l.28,0,.15,0,.44,0h.59l.45,0c0,.13.05.26.08.38l0,.12.07.27,0,.13.09.27,0,.1.14.36,0,.06.14.29.06.11.13.24.06.11.16.26,0,.07.22.31.06.08.18.23.08.1.17.2.08.09.23.25,0,0,.28.26.08.07.21.18.1.08.22.17.09.07.32.21,0,0,.3.18,0,0H28.71ZM46,34.89h24v8.2H42.14l.2-.12h0l.28-.18.07,0,.24-.17,0,0,.26-.2.07-.05.22-.19,0,0,.24-.23.06-.06.19-.2,0,0,.21-.25.05-.06.17-.22,0-.05.19-.27,0-.06.15-.23,0-.06.16-.28,0-.06.13-.25,0-.07.14-.3,0-.06.1-.26,0-.08.11-.32,0-.05.08-.28,0-.08c0-.11.05-.22.08-.33v0c0-.1,0-.2.05-.3v-.09c0-.11,0-.23,0-.34v0c0-.11,0-.22,0-.33v-.09c0-.12,0-.24,0-.36A7.68,7.68,0,0,0,46,34.89ZM71.36,32h-26a9.16,9.16,0,0,1-2.45-2.29A1.44,1.44,0,0,0,41,29.38l-.27.16a1.44,1.44,0,0,0,0,2.5,4.91,4.91,0,0,1,2.42,3.29h0c0,.1,0,.19,0,.29v0c0,.09,0,.18,0,.27V36c0,.11,0,.21,0,.32a4.9,4.9,0,0,1-9.8,0c0-.07,0-.14,0-.21a1.43,1.43,0,0,0-.57-1.2h0l-.13-.08,0,0-.13-.07h0l-.14-.05h0l-.14,0h0l-.15,0h-.19l-.15,0h0l-.15,0a4.89,4.89,0,0,1-1.54.25H29.5l-.17,0h-.08l-.19,0H29l-.2,0h0l-.21-.06h0A4.9,4.9,0,0,1,31,25.24a1.44,1.44,0,0,0,1.7-1.2A5.43,5.43,0,0,1,38,19.45a5.33,5.33,0,0,1,2.52.62,1.44,1.44,0,0,0,1.9-.52,9.05,9.05,0,0,1,16.32,1.33,1.44,1.44,0,0,0,1.64.87,6.17,6.17,0,0,1,7.42,5.15,1.44,1.44,0,0,0,1.25,1.22,5.37,5.37,0,0,1,3.73,8.44v-3.1A1.44,1.44,0,0,0,71.36,32ZM78.88,67H72.79V44.86h6.09Z"/><path class="cls-2" d="M44.74,58.58a1.47,1.47,0,0,0-.22-.18,1.41,1.41,0,0,0-.25-.13L44,58.19a1.45,1.45,0,0,0-.56,0l-.27.08a1.44,1.44,0,0,0-.78.78,1.51,1.51,0,0,0-.08.27,1.46,1.46,0,0,0,0,.56,1.45,1.45,0,0,0,.08.27,1.41,1.41,0,0,0,.13.25,1.45,1.45,0,0,0,.18.22,1.37,1.37,0,0,0,.22.18,1.46,1.46,0,0,0,.25.13l.27.08.28,0L44,61l.27-.08a1.42,1.42,0,0,0,.25-.13,1.39,1.39,0,0,0,.4-.4,1.43,1.43,0,0,0,.13-.25,1.45,1.45,0,0,0,.08-.27,1.4,1.4,0,0,0,0-.28A1.44,1.44,0,0,0,44.74,58.58Z"/><path class="cls-2" d="M66.91,58.58a1.54,1.54,0,0,0-.22-.18l-.25-.13-.27-.08a1.42,1.42,0,0,0-.56,0l-.27.08-.25.13a1.54,1.54,0,0,0-.22.18,1.44,1.44,0,0,0-.42,1,1.41,1.41,0,0,0,0,.28,1.48,1.48,0,0,0,.08.27,1.42,1.42,0,0,0,.13.25,1.37,1.37,0,0,0,.18.22,1.43,1.43,0,0,0,.22.18l.25.13.27.08.28,0,.28,0,.27-.08.25-.13a1.45,1.45,0,0,0,.22-.18,1.37,1.37,0,0,0,.18-.22,1.42,1.42,0,0,0,.13-.25,1.45,1.45,0,0,0,.08-.27,1.41,1.41,0,0,0,0-.28A1.44,1.44,0,0,0,66.91,58.58Z"/></svg>