<svg id="Слой_1" data-name="Слой 1" xmlns="http://www.w3.org/2000/svg" viewBox="0 0 1205.08 809.35"><defs><style>.cls-1,.cls-3{fill:#1879a8;}.cls-2{fill:none;stroke:#1879a8;stroke-miterlimit:10;stroke-width:7px;}.cls-3{font-size:24px;font-family:MyriadPro-Regular, Myriad Pro;}.cls-4{letter-spacing:-0.09em;}.cls-5{letter-spacing:0.02em;}.cls-6{letter-spacing:-0.01em;}.cls-7{letter-spacing:0em;}.cls-8{letter-spacing:0em;}.cls-9{letter-spacing:0em;}.cls-10{letter-spacing:-0.01em;}.cls-11{letter-spacing:0.02em;}.cls-12{letter-spacing:0em;}.cls-13{letter-spacing:0em;}.cls-14{letter-spacing:0em;}.cls-15{letter-spacing:0em;}.cls-16{letter-spacing:-0.01em;}.cls-17{letter-spacing:0em;}.cls-18{letter-spacing:0em;}.cls-19{letter-spacing:0.01em;}.cls-20{letter-spacing:0.02em;}.cls-21{letter-spacing:-0.01em;}.cls-22{letter-spacing:0.01em;}.cls-23{letter-spacing:-0.01em;}.cls-24{letter-spacing:-0.02em;}.cls-25{letter-spacing:0.01em;}.cls-26{letter-spacing:0.01em;}.cls-27{letter-spacing:0.03em;}.cls-28{letter-spacing:-0.01em;}.cls-29{letter-spacing:0em;}.cls-30{letter-spacing:0em;}.cls-31{letter-spacing:-0.03em;}.cls-32{letter-spacing:0em;}.cls-33{letter-spacing:0em;}.cls-34{letter-spacing:0em;}.cls-35{letter-spacing:0em;}.cls-36{letter-spacing:-0.01em;}.cls-37{letter-spacing:-0.01em;}.cls-38{letter-spacing:-0.02em;}</style></defs><title>beforeface-scheme</title><path class="cls-1" d="M839.37,835.85c-1.21-3.46.22-2.58-1.25-6.07q-2.14,2.43-4.39,4.75A89.64,89.64,0,0,0,807.15,800a91.86,91.86,0,0,0-25.9-14.35,47.89,47.89,0,1,0-67,1.34,91.61,91.61,0,0,0-24.91,15.12,10,10,0,1,0,13,15.19,72.78,72.78,0,0,1,47.23-17.24c31.22,0,58.88,19.95,68.11,48.24-.93.66-1.88,1.3-2.83,1.93,1.1,1.06,2.25,2.2,3.45,3.37C827.06,850.08,834,842.55,839.37,835.85Zm-92.31-57.94A27.92,27.92,0,1,1,775,750,27.95,27.95,0,0,1,747.06,777.91Z" transform="translate(-179.37 -347.52)"/><circle class="cls-1" cx="499.13" cy="478.18" r="10"/><circle class="cls-2" cx="569.63" cy="405.48" r="120.33"/><line class="cls-2" x1="569.63" y1="525.81" x2="569.63" y2="576.48"/><line class="cls-2" x1="570.63" y1="232.81" x2="570.63" y2="283.48"/><line class="cls-2" x1="443.63" y1="277.48" x2="486.56" y2="318.42"/><line class="cls-2" x1="652.63" y1="488.18" x2="694.63" y2="528.48"/><line class="cls-2" x1="396.38" y1="404.48" x2="452.88" y2="404.48"/><line class="cls-2" x1="690.38" y1="404.48" x2="746.88" y2="404.48"/><line class="cls-2" x1="485.55" y1="491.56" x2="446.13" y2="525.81"/><line class="cls-2" x1="690.38" y1="285.15" x2="650.96" y2="319.4"/><circle class="cls-2" cx="389.75" cy="225.45" r="78.38"/><circle class="cls-2" cx="568.63" cy="151.48" r="78.38"/><circle class="cls-2" cx="740.92" cy="220.95" r="78.38"/><circle class="cls-2" cx="827.25" cy="405.48" r="78.38"/><circle class="cls-2" cx="740.92" cy="590" r="78.38"/><circle class="cls-2" cx="569.63" cy="653.48" r="78.38"/><circle class="cls-2" cx="390.75" cy="582.46" r="78.38"/><circle class="cls-2" cx="315.25" cy="405.48" r="78.38"/><path class="cls-1" d="M979.45,559.92l-22-22a2.32,2.32,0,0,0-3.28,3.28l20.35,20.35-11.9,11.9a.94.94,0,0,1-1.32,0L937.82,550a.94.94,0,0,1,0-1.32l8-8a2.32,2.32,0,1,0-3.28-3.28l-8,8a5.58,5.58,0,0,0-1.18,6.13l-2.7,2.7H911.77l-3.41-3.41a5.6,5.6,0,0,0,.2-1.48,5.54,5.54,0,0,0-1.63-3.94l-7.77-7.77a2.32,2.32,0,0,0-3.28,3.28l7.77,7.77a.93.93,0,0,1,0,1.32l-.65.65-22.85,22.85,0,0a.93.93,0,0,1-1.29,0l-11.9-11.9,20.62-20.62a2.32,2.32,0,0,0-3.28-3.28L862,559.91a2.32,2.32,0,0,0,0,3.28l13.54,13.54a5.56,5.56,0,0,0,5.88,1.28l7.62,7.62a7.93,7.93,0,0,0,7,11.65h0a7.94,7.94,0,0,0,7.9,7.93h0a7.93,7.93,0,0,0,11.66,7l2.84,2.84a7,7,0,0,0,12-4.68,7.17,7.17,0,0,0,6.81-7.26h0a7.8,7.8,0,0,0,7.31-7.8,7.59,7.59,0,0,0,6.55-11l7.61-7a5.57,5.57,0,0,0,7.13-.62l13.54-13.54A2.32,2.32,0,0,0,979.45,559.92Zm-83.4,32.73a3.29,3.29,0,1,1,3.29-3.29A3.29,3.29,0,0,1,896.05,592.64Zm10.41,6.83-.28.28a3.31,3.31,0,1,1,.28-.28Zm7.81,8,0,0,0,0a3.29,3.29,0,0,1-4.75-4.54l.28-.28a3.29,3.29,0,0,1,4.53,4.75Zm32.2-17.7a2.94,2.94,0,0,1-4.16,0L937.49,585a2.32,2.32,0,0,0-3.28,3.28L939,593.1h0a3.15,3.15,0,0,1-4.39,4.51l-4.64-4.4a2.32,2.32,0,0,0-3.19,3.37l5.06,4.79a2.53,2.53,0,1,1-3.53,3.63L926,602.67a2.32,2.32,0,1,0-3.28,3.28l2.44,2.44a2.4,2.4,0,1,1-3.39,3.39l-2.84-2.84a7.93,7.93,0,0,0-7-11.65h0a7.94,7.94,0,0,0-7.93-7.93h0a7.93,7.93,0,0,0-11.66-7l-7.25-7.25,20.52-20.52,3.57,3.57a2.32,2.32,0,0,0,1.64.68h3L904.65,568a7.42,7.42,0,0,0,10.49,10.49l7.77-7.77,8.51.09,15,14.84a2.94,2.94,0,0,1,0,4.17Zm1.68-9-14.14-14h0l0,0a2.31,2.31,0,0,0-1.9-.65l-10.1-.11a2.33,2.33,0,0,0-1.67.68l-8.46,8.46a2.77,2.77,0,0,1-3.92-3.92l12.44-12.44h11.23a2.32,2.32,0,0,0,1.64-.68l3.09-3.09,19.08,19.08Z" transform="translate(-179.37 -347.52)"/><circle class="cls-1" cx="783.51" cy="214.8" r="2.32"/><circle class="cls-1" cx="698.51" cy="215.03" r="2.32"/><circle class="cls-1" cx="712.09" cy="186.07" r="2.32"/><circle class="cls-1" cx="770.13" cy="185.88" r="2.32"/><path class="cls-1" d="M1041.29,720.37H970.76a3.16,3.16,0,0,0-3.16,3.16v10.81a2.07,2.07,0,0,0,2.07,2.07h77a2.07,2.07,0,0,0,2.07-2.07V727.8A7.44,7.44,0,0,0,1041.29,720.37Zm-51.46,11.9h-18.1V724.5h18.1Zm30.19,0H994V724.5H1020Zm4.13,0V724.5h17.14a3.3,3.3,0,0,1,3.3,3.3v4.47Z" transform="translate(-179.37 -347.52)"/><path class="cls-1" d="M1046.66,749.45h-77a2.07,2.07,0,0,0-2.07,2.07v11.9a2.07,2.07,0,0,0,2.07,2.07h77a2.07,2.07,0,0,0,2.07-2.07v-11.9A2.07,2.07,0,0,0,1046.66,749.45Zm-56.83,11.9h-18.1v-7.77h18.1Zm30.19,0H994v-7.77H1020Zm4.13,0v-7.77h20.44v7.77Z" transform="translate(-179.37 -347.52)"/><path class="cls-1" d="M1057.93,779.6h-1.76V727.8a14.89,14.89,0,0,0-14.88-14.88H970.76a10.61,10.61,0,0,0-10.6,10.6v33.66l-3,2.35a8.2,8.2,0,0,0-3,6.62v15.51a2.07,2.07,0,0,0,2.07,2.07h5.48a11.31,11.31,0,0,0,22.27,0h33.26a11.31,11.31,0,0,0,22.27,0h18.41a2.07,2.07,0,0,0,0-4.13Zm-93.64-56.07a6.48,6.48,0,0,1,6.47-6.47h70.53A10.75,10.75,0,0,1,1052,727.8v14H964.29Zm-2.15,54.58,0,.1-.11.35,0,.16-.08.32,0,.21-.06.29v.06h-3.43v-5h5.81A11.31,11.31,0,0,0,962.14,778.1Zm10.72,10.81a7.19,7.19,0,0,1-7.18-7.18c0-.08,0-.17,0-.25s0-.09,0-.14,0-.14,0-.22,0-.1,0-.15,0-.12,0-.19,0-.12,0-.18l0-.14,0-.22,0-.09.06-.26v0a7.18,7.18,0,0,1,13.88,0v0l.06.26,0,.09,0,.22,0,.14c0,.06,0,.12,0,.18s0,.12,0,.19,0,.1,0,.15,0,.14,0,.22,0,.09,0,.14,0,.17,0,.25A7.19,7.19,0,0,1,972.86,788.91Zm44.82-10.81,0,.1-.11.35,0,.16-.08.32,0,.21-.06.29v.06H984v-.06l-.06-.29,0-.21-.08-.32,0-.16-.11-.35,0-.1a11.31,11.31,0,0,0-2-3.56h38.06A11.3,11.3,0,0,0,1017.67,778.1Zm10.72,10.81a7.19,7.19,0,0,1-7.18-7.18c0-.08,0-.16,0-.24s0-.1,0-.15,0-.14,0-.2,0-.11,0-.16l0-.17c0-.06,0-.13,0-.19l0-.13c0-.08,0-.15,0-.23l0-.08.07-.27v0a7.18,7.18,0,0,1,13.88,0v0l.07.27,0,.08c0,.08,0,.15,0,.23l0,.13c0,.06,0,.13,0,.19l0,.17c0,.05,0,.11,0,.16s0,.13,0,.2,0,.1,0,.15,0,.16,0,.24A7.19,7.19,0,0,1,1028.39,788.91ZM1052,779.6H1039.5v-.06l-.06-.29,0-.21-.08-.32,0-.16-.11-.35,0-.1a11.31,11.31,0,0,0-2-3.56H1039a2.07,2.07,0,0,0,0-4.13H958.31v-4.26a4.17,4.17,0,0,1,1.43-3.37l3.77-3a2.07,2.07,0,0,0,.79-1.62V746H1052Z" transform="translate(-179.37 -347.52)"/><path class="cls-1" d="M1049.67,772.08a2.08,2.08,0,0,0-.12-.39,2,2,0,0,0-.19-.36,2,2,0,0,0-.26-.31,2.08,2.08,0,0,0-1.87-.56,2.19,2.19,0,0,0-.39.12,2.1,2.1,0,0,0-.36.19,2,2,0,0,0-.31.26,2.11,2.11,0,0,0-.26.31,2,2,0,0,0-.19.36,2.09,2.09,0,0,0-.12.39,2,2,0,0,0,0,.4,2.07,2.07,0,0,0,0,.41,2.19,2.19,0,0,0,.12.39,2.07,2.07,0,0,0,1.12,1.12,2.38,2.38,0,0,0,.39.12,2.24,2.24,0,0,0,.41,0,2.08,2.08,0,0,0,1.46-.61,2,2,0,0,0,.26-.31,2.1,2.1,0,0,0,.19-.36,2.19,2.19,0,0,0,.12-.39,2.07,2.07,0,0,0,0-.41A2,2,0,0,0,1049.67,772.08Z" transform="translate(-179.37 -347.52)"/><path class="cls-1" d="M788.49,993.66h-4.93V989.5a2,2,0,0,0-2-2h-15.3v-1a2,2,0,1,0-4.09,0v1H715.56a2,2,0,0,0-2,2v28.16a24.89,24.89,0,0,0,8.33,18.92,26.4,26.4,0,0,0,4.13,3H713.06a2,2,0,0,0,0,4.09h3.5l7.2,8a2.59,2.59,0,0,0,1.92.85H771.4a2.6,2.6,0,0,0,1.92-.85l7.2-8H784a2,2,0,0,0,0-4.09H771.1a26.41,26.41,0,0,0,4.13-3,24.86,24.86,0,0,0,8.33-18.58,13.16,13.16,0,0,0,7-11.64V995.71A2,2,0,0,0,788.49,993.66Zm-22.27-2.11h13.25v8.58H766.22Zm1.73,20,3.06,5.09v8.92H757.34v-8.92l3.06-5.09Zm7,32.09-4.26,4.72H726.35l-4.27-4.72H775Zm4.48-26c0,12.7-10.11,21.91-24,21.91H741.65c-13.93,0-24-9.22-24-21.91V991.55h44.52v8.58H734.41a2,2,0,0,0,0,4.09h27.71v3.26h-2.89a2,2,0,0,0-1.75,1l-3.95,6.57a2,2,0,0,0-.29,1.05v11.54a2,2,0,0,0,2,2h17.77a2,2,0,0,0,2-2V1016.1a2,2,0,0,0-.29-1.05l-3.95-6.57a2,2,0,0,0-1.75-1h-2.89v-3.26h13.25v13.44Zm7-11.31a9.09,9.09,0,0,1-2.88,6.65V997.75h2.88Z" transform="translate(-179.37 -347.52)"/><path class="cls-1" d="M775.4,950.32a2,2,0,0,0-1.47-1.47l-.14,0-.43-.1-.21,0-.34-.07a41.3,41.3,0,0,0-13.27-.65h0l-.63.1h0c-.73.12-1.44.27-2.12.44a14.56,14.56,0,0,0-11.19,11l-.21-.22c-5.65-5.74-17.18-2.81-17.67-2.68a2,2,0,0,0-1.46,1.47c-.13.49-3,12,2.67,17.65,2.79,2.79,7,3.52,10.57,3.52a31,31,0,0,0,7.08-.85.58.58,0,0,1,.77,0,43.71,43.71,0,0,0,10,1.19c5,0,10.72-1,14.53-4.8a15.73,15.73,0,0,0,4-7.3c.18-.69.33-1.4.45-2.11A41.41,41.41,0,0,0,775.4,950.32Zm-31.14,24.38c-3.32.62-9.55,1.06-12.49-1.87s-2.48-9.22-1.86-12.53c3.32-.63,9.6-1.1,12.51,1.86,1.34,1.36,2.1,3.65,2.25,6.56v.19A27.31,27.31,0,0,1,744.25,974.71Zm24.65-2.78c-5.1,5.1-15.78,3.51-19.37,2.8a43.35,43.35,0,0,1-.74-5.67q0-.48,0-1c-.16-4.4.46-9.62,3.58-12.74a11.15,11.15,0,0,1,4.51-2.62A43.47,43.47,0,0,0,758,964.82a2,2,0,0,0,1.47,1.47,44.11,44.11,0,0,0,10,1.2c.68,0,1.37,0,2.07-.06A11.13,11.13,0,0,1,768.9,971.93Zm3.59-11.31s0,.07,0,.11,0,.22,0,.34v.09q0,.19,0,.39v0q0,.44,0,.89v.06q0,.18,0,.37V963l0,.22a38.47,38.47,0,0,1-10.69-.66A38.28,38.28,0,0,1,761,951.9l.22,0h.13l.37,0h.06l.89,0h2.22c.71,0,1.4.06,2.06.12h0l.37,0h0l.34,0h0l.33,0h0l.34,0h0l1.35.18h0l.28,0h0l.24,0h.07l.21,0h.08l.18,0H771l.17,0h.07l.17,0h.05l.21,0,0,.21v.06l0,.17,0,.08,0,.16,0,.09,0,.16,0,.1,0,.17,0,.1,0,.19,0,.1,0,.22v.08l0,.29v0q0,.32.09.67v.05l0,.29v.09l0,.27v.1l0,.27v.1l0,.28v.1l0,.3v.08l0,.34v0c0,.4.05.81.07,1.23V959q0,.18,0,.36v.09q0,.16,0,.33v.11q0,.16,0,.32v.11Q772.5,960.46,772.49,960.62Z" transform="translate(-179.37 -347.52)"/><path class="cls-1" d="M728.06,1001.77a2.17,2.17,0,0,0-.12-.38,2,2,0,0,0-.44-.66,2,2,0,0,0-.31-.26,2.08,2.08,0,0,0-.35-.19,2.12,2.12,0,0,0-.38-.12,2,2,0,0,0-.8,0,2.07,2.07,0,0,0-.38.12,2,2,0,0,0-.35.19,2,2,0,0,0-.57.57,2.08,2.08,0,0,0-.19.35,2.12,2.12,0,0,0-.12.38,2,2,0,0,0,0,.4,2,2,0,0,0,0,.4,2.07,2.07,0,0,0,.12.38,2,2,0,0,0,.19.35,2,2,0,0,0,.57.57,2,2,0,0,0,.35.19,2.07,2.07,0,0,0,.38.12,2,2,0,0,0,.4,0,2.05,2.05,0,0,0,.4,0,2.12,2.12,0,0,0,.38-.12,2.08,2.08,0,0,0,.35-.19,2,2,0,0,0,.31-.25,2.1,2.1,0,0,0,.26-.31,2,2,0,0,0,.19-.35,2.07,2.07,0,0,0,.12-.38,2,2,0,0,0,0-.4A2,2,0,0,0,728.06,1001.77Z" transform="translate(-179.37 -347.52)"/><path class="cls-1" d="M525.54,710.14H466.85a1.71,1.71,0,0,0-1.71,1.71v58.43L456.38,779a5.55,5.55,0,0,0,7.85,7.85l.91-.91v8.17a1.71,1.71,0,0,0,1.71,1.71h44.63a1.71,1.71,0,0,0,1.21-.5l14.06-14.06a1.71,1.71,0,0,0,.5-1.21V711.85A1.71,1.71,0,0,0,525.54,710.14Zm-63.72,74.34a2.13,2.13,0,0,1-3-3l16.36-16.36,3,3ZM513.18,790v-8.25h8.25Zm10.65-11.65H511.46a1.71,1.71,0,0,0-1.71,1.71v12.37H468.55v-9.88l13.24-13.24a1.71,1.71,0,0,0,0-2.41l-1.56-1.56,3.27-3.27a20.26,20.26,0,1,0-2.43-2.4l-3.25,3.25-1.46-1.46a1.71,1.71,0,0,0-2.41,0l-5.39,5.39V713.56h55.28v64.82Zm-44.2-31.83a16.82,16.82,0,1,1,16.82,16.82A16.84,16.84,0,0,1,479.63,746.55Z" transform="translate(-179.37 -347.52)"/><path class="cls-1" d="M506.1,744.92H487a1.71,1.71,0,1,0,0,3.42H506.1a1.71,1.71,0,1,0,0-3.42Z" transform="translate(-179.37 -347.52)"/><path class="cls-1" d="M506.1,751.58H487a1.71,1.71,0,1,0,0,3.42H506.1a1.71,1.71,0,1,0,0-3.42Z" transform="translate(-179.37 -347.52)"/><path class="cls-1" d="M494.66,738.09H487a1.71,1.71,0,1,0,0,3.42h7.68a1.71,1.71,0,1,0,0-3.42Z" transform="translate(-179.37 -347.52)"/><path class="cls-1" d="M500.8,738.09h-1a1.71,1.71,0,0,0,0,3.42h1a1.71,1.71,0,1,0,0-3.42Z" transform="translate(-179.37 -347.52)"/><path class="cls-1" d="M964,911.91H938.69v-4.43a8.16,8.16,0,0,0-8.15-8.15H909.92a8.16,8.16,0,0,0-8.15,8.15v4.43H876.42a7.11,7.11,0,0,0-7.1,7.1v49.9a7.11,7.11,0,0,0,7.1,7.1H964a7.11,7.11,0,0,0,7.1-7.1V919A7.11,7.11,0,0,0,964,911.91Zm-58.22-4.43a4.1,4.1,0,0,1,4.09-4.09h20.62a4.1,4.1,0,0,1,4.09,4.09v4.43h-28.8Zm61.26,61.43a3,3,0,0,1-3,3H876.42a3,3,0,0,1-3-3V929.77l31.14,15.11a8.13,8.13,0,0,0,8,6.8h15.42a8.13,8.13,0,0,0,8-6.8l19.45-9.44a2,2,0,1,0-1.77-3.65l-18.14,8.8a8.13,8.13,0,0,0-7.55-5.14H912.53a8.13,8.13,0,0,0-7.55,5.14l-31.6-15.33V919a3,3,0,0,1,3-3H964a3,3,0,0,1,3,3v49.9Zm-58.62-25.35a4.06,4.06,0,0,1,4.06-4.06h15.42a4.06,4.06,0,1,1,0,8.11H912.53A4.06,4.06,0,0,1,908.47,943.56Z" transform="translate(-179.37 -347.52)"/><path class="cls-1" d="M964.28,928.88a2,2,0,0,0-2.71-.94l-1.24.6a2,2,0,1,0,1.77,3.65l1.24-.6A2,2,0,0,0,964.28,928.88Z" transform="translate(-179.37 -347.52)"/><path class="cls-1" d="M606.34,943a2,2,0,0,0-.12-.37,2,2,0,0,0-.18-.34,1.92,1.92,0,0,0-.55-.55,2,2,0,0,0-.34-.18,2,2,0,0,0-.37-.11,2,2,0,0,0-.77,0,2,2,0,0,0-.37.11,2,2,0,0,0-.34.18,1.89,1.89,0,0,0-.3.25,2,2,0,0,0-.25.3,2,2,0,0,0-.18.34,2,2,0,0,0-.12.37,2,2,0,0,0,0,.39,2,2,0,0,0,0,.39,2.13,2.13,0,0,0,.12.37,2,2,0,0,0,.73.89,2,2,0,0,0,.34.18,2,2,0,0,0,.37.11,2,2,0,0,0,.77,0,2,2,0,0,0,.37-.11,2,2,0,0,0,.34-.18,2,2,0,0,0,.3-.25,1.89,1.89,0,0,0,.25-.3,2,2,0,0,0,.18-.34,2.11,2.11,0,0,0,.12-.37,2,2,0,0,0,0-.78Z" transform="translate(-179.37 -347.52)"/><path class="cls-1" d="M620.25,951.83a2,2,0,0,0-2.14-.44c-.06,0-6.35,2.51-10.61,2.51-1.07,0-3.26-1.78-5.38-3.49-4.6-3.73-10.9-8.85-19.62-8.85H582a14.23,14.23,0,0,0-11.67,6.63c-.13.2-.26.41-.38.62-.12-.21-.24-.42-.38-.62A14.22,14.22,0,0,0,558,941.57h-.45c-8.72,0-15,5.11-19.62,8.85-2.12,1.72-4.31,3.49-5.38,3.49-4.26,0-10.55-2.49-10.61-2.51a2,2,0,0,0-2.58,2.58c.26.65,6.57,16,20.17,20.74a24.62,24.62,0,0,0,8,1.29,29.07,29.07,0,0,0,8.91-1.42c6.09-2,10.85-5.72,13.4-10.55l.17-.34.17.34c2.55,4.83,7.31,8.58,13.4,10.55a29.06,29.06,0,0,0,8.91,1.42,24.62,24.62,0,0,0,8-1.29c13.61-4.72,19.91-20.08,20.17-20.74A2,2,0,0,0,620.25,951.83Zm-53.08,8.55c-.25.59-.54,1.2-.85,1.8-4.5,8.53-17.19,11.67-25.52,8.78-7.79-2.7-13-9.75-15.67-14.31a29.09,29.09,0,0,0,7.38,1.23c2.48,0,4.86-1.93,7.88-4.38,4.37-3.55,9.81-8,17.12-8h.33a10.31,10.31,0,0,1,8.45,4.81A10.82,10.82,0,0,1,567.17,960.38Zm32,10.58a20.45,20.45,0,0,1-6.66,1c-7.35,0-15.45-3.37-18.86-9.83-.32-.6-.6-1.21-.85-1.8a10.81,10.81,0,0,1,.88-10,10.31,10.31,0,0,1,8.45-4.81h.33c7.31,0,12.75,4.41,17.12,8,3,2.45,5.4,4.38,7.88,4.38a29.09,29.09,0,0,0,7.38-1.23C612.2,961.21,607,968.26,599.21,971Z" transform="translate(-179.37 -347.52)"/><path class="cls-1" d="M590.33,964c-4.38-.55-8.16-2.7-9.62-5.48-.21-.39-.39-.78-.55-1.16a2,2,0,0,0-3.66,1.53c.2.49.44,1,.7,1.48,2.08,3.95,6.93,6.84,12.64,7.56l.25,0a2,2,0,0,0,.25-4Z" transform="translate(-179.37 -347.52)"/><path class="cls-1" d="M598.66,964.33a2.13,2.13,0,0,0-.3-.25,2.11,2.11,0,0,0-.34-.18,2,2,0,0,0-.37-.11,2,2,0,0,0-.78,0,2,2,0,0,0-.37.11,2.1,2.1,0,0,0-.34.18,2.13,2.13,0,0,0-.3.25,1.9,1.9,0,0,0-.25.3,2,2,0,0,0-.18.34,2.07,2.07,0,0,0-.11.37,1.92,1.92,0,0,0,0,.77,2,2,0,0,0,.11.37,2,2,0,0,0,.18.34,1.9,1.9,0,0,0,.25.3,2,2,0,0,0,.3.25,2.12,2.12,0,0,0,.34.18,2,2,0,0,0,.37.11,1.92,1.92,0,0,0,.78,0,2,2,0,0,0,.37-.11,2.09,2.09,0,0,0,.34-.18,2,2,0,0,0,.3-3.05Z" transform="translate(-179.37 -347.52)"/><path class="cls-1" d="M562.44,956.25a2,2,0,0,0-2.6,1.06c-.16.38-.34.77-.55,1.16-1.47,2.78-5.24,4.93-9.62,5.48a2,2,0,0,0,.25,4l.25,0c5.71-.72,10.56-3.62,12.64-7.56.26-.5.5-1,.7-1.48A2,2,0,0,0,562.44,956.25Z" transform="translate(-179.37 -347.52)"/><path class="cls-1" d="M544.69,965.34a2.1,2.1,0,0,0-.11-.37,2,2,0,0,0-.18-.34,1.91,1.91,0,0,0-.25-.3,1.93,1.93,0,0,0-.64-.43,2,2,0,0,0-.37-.11,2,2,0,0,0-.78,0,2,2,0,0,0-.37.11,2.1,2.1,0,0,0-.34.18,2.14,2.14,0,0,0-.3.25,1.9,1.9,0,0,0-.25.3,2,2,0,0,0-.18.34,2.1,2.1,0,0,0-.11.37,2,2,0,0,0,0,.39,2,2,0,0,0,0,.39,2,2,0,0,0,.11.37,2,2,0,0,0,.18.34,1.9,1.9,0,0,0,.25.3,2,2,0,0,0,.3.25,2.12,2.12,0,0,0,.34.18,2,2,0,0,0,.37.11,2,2,0,0,0,.39,0,2,2,0,0,0,1.4-.58,1.91,1.91,0,0,0,.25-.3,2,2,0,0,0,.18-.34,2,2,0,0,0,.11-.37,2,2,0,0,0,0-.39A2,2,0,0,0,544.69,965.34Z" transform="translate(-179.37 -347.52)"/><path class="cls-1" d="M606.37,903.47a17.52,17.52,0,1,0-4,11.12v20.73a2,2,0,1,0,4,0V903.48ZM588.87,917A13.53,13.53,0,1,1,602.4,903.5,13.55,13.55,0,0,1,588.87,917Z" transform="translate(-179.37 -347.52)"/><path class="cls-1" d="M706.3,474.78l-1.23-.71a2.56,2.56,0,0,0-2.56,4.43l1.23.71a2.56,2.56,0,0,0,2.56-4.43Z" transform="translate(-179.37 -347.52)"/><path class="cls-1" d="M804.8,471.07a2.56,2.56,0,0,0,0-.31v0a2.67,2.67,0,0,0-.06-.28l0-.07q0-.11-.08-.22l0-.07a2.54,2.54,0,0,0-.14-.27,2.47,2.47,0,0,0-.17-.25l-.05-.06-.15-.18-.06-.06-.21-.18,0,0-.26-.17h0l-53.72-31a2.56,2.56,0,0,0-2.56,0l-32,18.5h0l-21.68,12.52a2.56,2.56,0,0,0-1.28,2.22v13.75a2.56,2.56,0,0,0,1.28,2.22l1.49.86v40.42a2.56,2.56,0,0,0,1.28,2.22l51,29.42h0l.28.14h0l.27.09.08,0,.23,0h.08l.3,0,.3,0h.08l.23,0,.08,0,.27-.09h0l.28-.14h0l51-29.42a2.56,2.56,0,0,0,1.28-2.22V487.92l1.49-.86a2.56,2.56,0,0,0,1.28-2.22V471.09A.21.21,0,0,0,804.8,471.07Zm-7.67,0-16.63,9.6-16.63-9.6,16.63-9.6Zm-46,30.95c0-.05,0-.1,0-.15v-.12l0-.13,0-.13,0-.11,0-.14,0-.1-.05-.13-.05-.1-.06-.11-.07-.11-.06-.09-.09-.12-.06-.07-.1-.11-.07-.07-.11-.1-.09-.08L750,500l-.13-.08-.06,0L731.9,489.56l16.63-9.6,16.63,9.6-3.45,2a2.56,2.56,0,1,0,2.56,4.43l3.46-2v7.84l-16.63,9.6v-9.32S751.08,502.06,751.08,502ZM746,503.59v7.84l-16.63-9.6V494ZM753.64,477l5.12-3,16.63,9.6-5.12,3Zm17.6,28.7,5.12-3v5.62a2.56,2.56,0,0,0-2.48.72l-2.64,2.78V505.7Zm1.59-6.82V491l5.12-3v7.84l-.25.14h0ZM748.52,443l26.86,15.51-48.6,28.06-5.12-3,17.88-10.33h0l10.22-5.9h0l5.52-3.18a2.56,2.56,0,0,0-2.56-4.43l-4.23,2.44-16.63-9.6Zm-27.83,59.72,5.12,3v6.17l-2.64-2.78a2.56,2.56,0,0,0-2.48-.72v-5.62Zm-1.59-6.82v-7.84l5.12,3v7.84Zm7.67-40.34,16.63,9.6-5.12,3-16.63-9.6Zm-29.42,17,19.19-11.08,16.63,9.6-16.63,9.6-3.69-2.13a2.56,2.56,0,0,0-2.56,4.43l3.69,2.13V493l-16.63-9.6Zm99.56,54.29h0l-45.84,26.46V532.83a2.56,2.56,0,0,0-5.12,0v20.49l-45.84-26.46v-36l15.45,8.92v12.28s0,0,0,.06,0,.11,0,.16v.11l0,.13,0,.14,0,.1.05.16,0,.05v0l.07.15,0,.08.07.12.06.1.06.09.09.11.06.07.11.12.06.05.12.11.07.06.12.09.1.06.11.07.12.06.1,0,.13,0,.1,0,.12,0,.12,0,.1,0,.15,0h.62l.14,0,.13,0,.1,0,.16-.05.05,0,1.58-.61,5.87,6.2,0,0,.11.11.08.07.12.09.09.07.12.08.09.06.23.11h0l.22.08h0l.21.05h.07l.18,0h.6l.15,0,.11,0,.13,0,.11,0,.12,0,.1,0,.12-.06.1-.06.11-.07.1-.07.1-.07.1-.08.06-.06,0,0,.1-.1.08-.09.08-.1.08-.1.06-.1.07-.12.05-.1.06-.12,0-.12,0-.11,0-.13,0-.11,0-.12s0-.08,0-.12,0-.08,0-.12,0-.09,0-.14,0,0,0,0v-9.64l16.32,9.42h0l.28.14h0l.27.09.08,0,.23,0h.08l.3,0,.3,0h.08l.23,0,.08,0,.27-.09h0l.28-.14h0l16.32-9.42v9.67s0,.09,0,.14,0,.08,0,.12,0,.08,0,.12,0,.08,0,.12l0,.11,0,.13,0,.11,0,.12.06.12.05.1.07.12.06.1.08.1.08.1.08.09.1.1,0,0,.06.06.1.08.1.08.1.07.12.07.1.05.12.06.1,0,.13,0,.11,0,.13,0,.11,0,.15,0h.6l.18,0h.07l.2-.05h0l.21-.08h0l.23-.11.1-.06.11-.07.09-.07.11-.09.08-.07.11-.11,0,0,5.87-6.2,1.58.61.06,0,.15.05.11,0,.13,0,.14,0h.62l.15,0,.11,0,.12,0,.13,0,.1,0,.13-.05.09,0,.12-.06.1-.06.1-.06.12-.09.07-.06.12-.11.06-.05.11-.12.05-.06.09-.12.06-.09.06-.1.07-.12,0-.09.07-.15v0l0-.06.05-.16,0-.1,0-.14,0-.13s0-.07,0-.11,0-.11,0-.16,0,0,0-.06V499.79l5.22-3v8a2.56,2.56,0,1,0,5.12,0v-11l5.12-3v36Zm2.77-43.49-1.43.82h0L788,490.1h0l-5,2.86v-7.84l16.63-9.6v7.84Z" transform="translate(-179.37 -347.52)"/><path class="cls-1" d="M755.3,500.75a2.55,2.55,0,0,0,1.28-.34l1.22-.7a2.56,2.56,0,0,0-2.56-4.43L754,496a2.56,2.56,0,0,0,1.28,4.77Z" transform="translate(-179.37 -347.52)"/><path class="cls-1" d="M760.48,460.84a2.55,2.55,0,0,0,1.28-.34l1.32-.76a2.56,2.56,0,0,0-2.56-4.43l-1.32.76a2.56,2.56,0,0,0,1.28,4.77Z" transform="translate(-179.37 -347.52)"/><path class="cls-1" d="M748.52,521.23a2.56,2.56,0,0,0-2.56,2.56v1.53a2.56,2.56,0,0,0,5.12,0v-1.53A2.56,2.56,0,0,0,748.52,521.23Z" transform="translate(-179.37 -347.52)"/><path class="cls-1" d="M789.25,509.76a2.56,2.56,0,0,0-2.56,2.56v1.53a2.56,2.56,0,0,0,5.12,0v-1.53A2.56,2.56,0,0,0,789.25,509.76Z" transform="translate(-179.37 -347.52)"/><path class="cls-1" d="M617.79,529.93H547a6.87,6.87,0,0,0-6.86,6.86v21.05a9.26,9.26,0,0,0-7.44,9.69L533,572l.68,10.44a11.58,11.58,0,0,0,19.77,7.42h64.36a6.87,6.87,0,0,0,6.86-6.86V536.78A6.87,6.87,0,0,0,617.79,529.93Zm-80.67,39.59-.15-2.27a5,5,0,0,1,5-5.31h5.53l-1.2,3.19C545.94,565.63,543.71,568.63,537.12,569.52Zm15.38,12.64a7.29,7.29,0,0,1-14.56,0l-.54-8.35a19.6,19.6,0,0,0,10.37-4.08,8.85,8.85,0,0,0,1.5,1,19.81,19.81,0,0,0,3.89,1.34Zm1-14.91,0,.41a12.61,12.61,0,0,1-2.21-.79,4.27,4.27,0,0,1-.84-.54l1.23-3.28a5.08,5.08,0,0,1,.5.47A4.93,4.93,0,0,1,553.47,567.25ZM620.36,583a2.57,2.57,0,0,1-2.57,2.57H556.13a11.65,11.65,0,0,0,.65-3.13v-.16H612a2.14,2.14,0,1,0,0-4.29h-2.33V542.64a2.14,2.14,0,0,0-2.14-2.14H597.14a2.14,2.14,0,0,0-2.14,2.14V578h-2.67V562.65a2.14,2.14,0,0,0-2.14-2.14H579.83a2.14,2.14,0,0,0-2.14,2.14V578h-2.51V551.07a2.14,2.14,0,0,0-2.14-2.14H562.68a2.14,2.14,0,0,0-2.14,2.14V578h-3.46l.49-7.48.19-3A9.31,9.31,0,0,0,555.6,561V539.76a2.14,2.14,0,0,0-4.29,0v18.34a9.24,9.24,0,0,0-2.81-.44h-4.08V536.78a2.57,2.57,0,0,1,2.57-2.57h70.8a2.57,2.57,0,0,1,2.57,2.57V583Zm-55.54-5V553.22h6.07V578ZM582,578v-13.2H588V578Zm17.31,0v-33.2h6.07V578Z" transform="translate(-179.37 -347.52)"/><path class="cls-1" d="M573.32,608.69a17.69,17.69,0,0,0-17.42-14.54h-3.27a2.15,2.15,0,0,0-1.52.63l-5.9,5.9-5.9-5.9a2.14,2.14,0,0,0-1.52-.63h-3.27a17.69,17.69,0,0,0-17.42,14.54,7.23,7.23,0,0,0,7.12,8.52h42a7.23,7.23,0,0,0,7.12-8.52Zm-4.86,3.18a2.94,2.94,0,0,1-2.26,1.06h-42a2.95,2.95,0,0,1-2.9-3.47,13.41,13.41,0,0,1,13.2-11h2.38l6.79,6.79a2.14,2.14,0,0,0,3,0l6.79-6.79h2.38a13.41,13.41,0,0,1,13.2,11h0A2.94,2.94,0,0,1,568.47,611.87Z" transform="translate(-179.37 -347.52)"/><path class="cls-1" d="M616.28,536.23a2.14,2.14,0,0,0-2.14,2.14v8.15a2.14,2.14,0,0,0,4.29,0v-8.15A2.14,2.14,0,0,0,616.28,536.23Z" transform="translate(-179.37 -347.52)"/><path class="cls-1" d="M616.28,551.24a2.14,2.14,0,0,0-2.14,2.14v1.07a2.14,2.14,0,1,0,4.29,0v-1.07A2.14,2.14,0,0,0,616.28,551.24Z" transform="translate(-179.37 -347.52)"/><text class="cls-3" transform="translate(448.05 20.09)"><tspan class="cls-4">Г</tspan><tspan x="8.18" y="0">о</tspan><tspan class="cls-5" x="21.36" y="0">с</tspan><tspan class="cls-6" x="32.5" y="0">т</tspan><tspan x="42.22" y="0">ям, приш</tspan><tspan class="cls-7" x="137.16" y="0">е</tspan><tspan x="149.25" y="0">дшим на </tspan><tspan x="-1.58" y="28.8">общий </tspan><tspan class="cls-8" x="73.92" y="28.8">д</tspan><tspan class="cls-9" x="86.54" y="28.8">ень р</tspan><tspan class="cls-10" x="142.36" y="28.8">о</tspan><tspan class="cls-11" x="155.35" y="28.8">ж</tspan><tspan class="cls-8" x="171.96" y="28.8">д</tspan><tspan class="cls-12" x="184.58" y="28.8">ен</tspan><tspan class="cls-13" x="209.71" y="28.8">и</tspan><tspan x="223.1" y="28.8">я?</tspan></text><text class="cls-3" transform="translate(830.75 177.08)"><tspan class="cls-14">К</tspan><tspan class="cls-15" x="12.94" y="0">ол</tspan><tspan x="38.47" y="0">ле</tspan><tspan class="cls-16" x="62.66" y="0">г</tspan><tspan class="cls-17" x="71.57" y="0">ам </tspan><tspan class="cls-13" x="103.56" y="0">и</tspan><tspan x="116.95" y="0">ли </tspan><tspan class="cls-6" x="147.5" y="0">с</tspan><tspan x="158.11" y="0">о</tspan><tspan class="cls-6" x="171.29" y="0">с</tspan><tspan class="cls-18" x="181.89" y="0">е</tspan><tspan class="cls-19" x="193.99" y="0">д</tspan><tspan x="206.92" y="0">ям?</tspan></text><text class="cls-3" transform="translate(926.18 410.52)">По<tspan class="cls-8" x="28.51" y="0">п</tspan><tspan class="cls-20" x="41.4" y="0">у</tspan><tspan class="cls-21" x="53.23" y="0">т</tspan><tspan x="62.88" y="0">чи</tspan><tspan class="cls-22" x="88.54" y="0">к</tspan><tspan x="100.27" y="0">ам в </tspan><tspan class="cls-23" x="149.35" y="0">т</tspan><tspan x="159.05" y="0">ранспо</tspan><tspan class="cls-10" x="234.28" y="0">р</tspan><tspan class="cls-24" x="247.75" y="0">т</tspan><tspan x="257.13" y="0">е?</tspan></text><text class="cls-3" transform="translate(799.87 689.06)"><tspan class="cls-21">О</tspan><tspan x="16.32" y="0">дно</tspan><tspan class="cls-25" x="55.32" y="0">к</tspan><tspan x="66.98" y="0">урсни</tspan><tspan class="cls-26" x="129.09" y="0">к</tspan><tspan x="140.83" y="0">ам </tspan><tspan class="cls-13" x="172.82" y="0">и</tspan><tspan x="186.21" y="0">ли</tspan><tspan class="cls-23" x="13.82" y="28.8">о</tspan><tspan class="cls-12" x="26.83" y="28.8">дно</tspan><tspan class="cls-27" x="65.83" y="28.8">к</tspan><tspan x="77.97" y="28.8">ла</tspan><tspan class="cls-6" x="101.71" y="28.8">с</tspan><tspan x="112.32" y="28.8">сни</tspan><tspan class="cls-22" x="149.47" y="28.8">к</tspan><tspan class="cls-12" x="161.21" y="28.8">ам?</tspan></text><text class="cls-3" transform="translate(469.81 774.55)">Си<tspan class="cls-19" x="27.22" y="0">д</tspan><tspan x="40.15" y="0">ящим в </tspan><tspan class="cls-22" x="120.84" y="0">к</tspan><tspan class="cls-12" x="132.57" y="0">афе за </tspan><tspan class="cls-28" x="-5.63" y="28.8">с</tspan><tspan class="cls-29" x="4.98" y="28.8">о</tspan><tspan class="cls-28" x="18.16" y="28.8">с</tspan><tspan class="cls-30" x="28.76" y="28.8">е</tspan><tspan x="40.86" y="28.8">дним </tspan><tspan class="cls-5" x="100.4" y="28.8">с</tspan><tspan class="cls-24" x="111.54" y="28.8">т</tspan><tspan class="cls-13" x="120.92" y="28.8">о</tspan><tspan x="134.19" y="28.8">ли</tspan><tspan class="cls-6" x="159.66" y="28.8">к</tspan><tspan x="171.01" y="28.8">ом?</tspan></text><text class="cls-3" transform="translate(91.38 681.56)"><tspan class="cls-31">У</tspan><tspan x="11.69" y="0">ч</tspan><tspan class="cls-32" x="24.05" y="0">и</tspan><tspan class="cls-24" x="37.27" y="0">т</tspan><tspan class="cls-33" x="46.66" y="0">е</tspan><tspan class="cls-13" x="58.8" y="0">л</tspan><tspan class="cls-9" x="71.06" y="0">ям ваших </tspan><tspan class="cls-34" x="174.17" y="0">де</tspan><tspan class="cls-24" x="198.72" y="0">т</tspan><tspan x="208.1" y="0">ей </tspan><tspan class="cls-35" x="54.34" y="28.8">и</tspan><tspan class="cls-9" x="67.73" y="28.8">ли вр</tspan><tspan class="cls-36" x="123.93" y="28.8">а</tspan><tspan x="135.17" y="28.8">чам?</tspan></text><text class="cls-3" transform="translate(0 404.12)">Зна<tspan class="cls-28" x="36.48" y="0">к</tspan><tspan x="47.83" y="0">омым в </tspan><tspan class="cls-5" x="129.81" y="0">с</tspan><tspan class="cls-36" x="140.95" y="0">т</tspan><tspan x="150.48" y="0">арой </tspan><tspan x="8.32" y="28.8">записной книж</tspan><tspan class="cls-28" x="165.83" y="28.8">к</tspan><tspan x="177.18" y="28.8">е?</tspan></text><text class="cls-3" transform="translate(100.5 162.08)">Преп<tspan class="cls-23" x="54" y="0">о</tspan><tspan class="cls-29" x="67.01" y="0">дав</tspan><tspan class="cls-37" x="103.29" y="0">а</tspan><tspan class="cls-38" x="114.7" y="0">т</tspan><tspan class="cls-33" x="124.08" y="0">е</tspan><tspan class="cls-13" x="136.22" y="0">л</tspan><tspan x="148.49" y="0">ям?</tspan></text></svg>