<svg id="Layer_1" data-name="Layer 1" xmlns="http://www.w3.org/2000/svg" viewBox="0 0 79.66 79.66"><defs><style>.cls-1{fill:#1fb6ff;}</style></defs><title>bottle</title><path class="cls-1" d="M68,11.67A39.83,39.83,0,1,0,79.66,39.82,39.83,39.83,0,0,0,68,11.67ZM39.84,76.48A36.65,36.65,0,1,1,76.49,39.82,36.65,36.65,0,0,1,39.84,76.48Z" transform="translate(0 0)"/><path class="cls-1" d="M48.88,32.15h0a1.08,1.08,0,1,0,0,2.15h0a1.08,1.08,0,1,0,0-2.15Z" transform="translate(0 0)"/><path class="cls-1" d="M52.62,37.48a5.28,5.28,0,0,0-7.46,0l-6.9,6.93a5.28,5.28,0,0,0,0,7.46h0a5.28,5.28,0,0,0,7.46,0l6.9-6.9a5.29,5.29,0,0,0,0-7.47ZM44.19,50.31a3.12,3.12,0,0,1-4.4,0h0a3.12,3.12,0,0,1,0-4.4l2.69-2.69,4.4,4.42Zm6.9-6.9-2.67,2.67L44,41.68,46.71,39a3.12,3.12,0,0,1,4.51,4.3l-.11.11Z" transform="translate(0 0)"/><path class="cls-1" d="M39.9,13.08h0a1.07,1.07,0,1,0,0,2.15h0a1.07,1.07,0,1,0,0-2.15Z" transform="translate(0 0)"/><path class="cls-1" d="M52.28,22.13H50.57v-1h.3a4,4,0,0,0,.37-8H43.57a1.07,1.07,0,1,0,0,2.15h7.3a1.84,1.84,0,0,1,0,3.67H28.74a1.84,1.84,0,0,1,0-3.67h7.54a1.07,1.07,0,1,0,0-2.15H28.74a4,4,0,0,0,0,8h.34v1.07h-1.7a5.42,5.42,0,0,0-5.45,5.39h0V62.85a5.42,5.42,0,0,0,5.44,5.4H52.28a5.42,5.42,0,0,0,5.45-5.39h0V27.53a5.42,5.42,0,0,0-5.44-5.4h0Zm-21-1H48.42v1.07H31.2V21.08Zm24.35,11.1H52.72a1.08,1.08,0,1,0,0,2.15h2.86V55.64H34.85V34.31H44.93a1.08,1.08,0,0,0,0-2.15H33.79a1.07,1.07,0,0,0-1.07,1.07V56.72a1.07,1.07,0,0,0,1.07,1.07h21.8v5a3.27,3.27,0,0,1-3.25,3.29h-25a3.27,3.27,0,0,1-3.3-3.23V27.53a3.27,3.27,0,0,1,3.28-3.24H52.28a3.27,3.27,0,0,1,3.3,3.23h0Z" transform="translate(0 0)"/><path class="cls-1" d="M52.53,59.2H37.45a1.08,1.08,0,1,0,0,2.15H52.53a1.08,1.08,0,0,0,0-2.15Z" transform="translate(0 0)"/><path class="cls-1" d="M33.81,59.2h0a1.08,1.08,0,1,0,0,2.15h0a1.08,1.08,0,0,0,0-2.15Z" transform="translate(0 0)"/></svg>