<svg id="Capa_1" data-name="Capa 1" xmlns="http://www.w3.org/2000/svg" viewBox="0 0 101.5 101.5"><defs><style>.cls-1{fill:#1fb6ff;}.cls-2{fill:#fff;}</style></defs><title>boy</title><circle class="cls-1" cx="50.75" cy="50.75" r="50.75"/><path class="cls-2" d="M85.82,77.48H79.4l-.65-5.93a11.25,11.25,0,0,0-8.85-9.8l-7.35-1.57a4.08,4.08,0,0,1-3.21-4v-.81a16.65,16.65,0,0,0,4.11-3.14,20,20,0,0,0,3.39-4.85,4.74,4.74,0,0,0,4.88-7.17l-.25-.36h0a21.47,21.47,0,0,0-29.76-25,3,3,0,0,1-.06-2.11A1.43,1.43,0,1,0,39,11.61a5,5,0,0,0-.4,2,9.56,9.56,0,0,0-2.14-.29,1.43,1.43,0,0,0-.31,2.84h.23a5.8,5.8,0,0,1,2.23.45A21.49,21.49,0,0,0,30,39.88a1.43,1.43,0,0,0,.09.25,4.72,4.72,0,0,0,4.58,7.35A20.12,20.12,0,0,0,37.71,52a16.72,16.72,0,0,0,4.37,3.43v.83a4.08,4.08,0,0,1-3.21,4l-7.32,1.57a11.25,11.25,0,0,0-8.8,9.73l-.65,5.92H15.68a1.43,1.43,0,1,0-.24,2.85H85.83a1.43,1.43,0,0,0,0-2.85ZM69.55,43.2A1.88,1.88,0,0,1,68,44.63,27.9,27.9,0,0,0,69,41.4,1.88,1.88,0,0,1,69.55,43.2Zm-37.42,0a1.88,1.88,0,0,1,.4-1.63,27.84,27.84,0,0,0,.88,3,1.88,1.88,0,0,1-1.28-1.37Zm.31-5.35A18.64,18.64,0,0,1,41.75,18h.07A18.63,18.63,0,0,1,68.94,38.17c-3.76,0-16.5-.41-20.23-7.76a1.43,1.43,0,0,0-1.27-.78h0a1.43,1.43,0,0,0-1.27.8c-2.32,4.72-10.53,6.79-13.73,7.43Zm2.71,2.32c3.68-.93,9.25-2.87,12.31-6.55,4.46,5.72,13.47,7,18.72,7.3-1.11,4.7-4.65,13.68-15.43,13.68-11.17,0-14.59-9.48-15.61-14.43ZM57.86,60.32,50.75,69l-7.12-8.69a6.9,6.9,0,0,0,1.31-3.68,20.17,20.17,0,0,0,11.57,0A6.9,6.9,0,0,0,57.86,60.32ZM25,77.48l.61-5.61a8.41,8.41,0,0,1,6.6-7.32L39.49,63a6.82,6.82,0,0,0,2-.79l8.13,9.92a1.43,1.43,0,0,0,1.1.52h0a1.43,1.43,0,0,0,1.1-.52L60,62.22A6.83,6.83,0,0,0,62,63l7.35,1.57a8.41,8.41,0,0,1,6.61,7.32l.61,5.61H25Z"/><path class="cls-2" d="M57.3,40.55a1.64,1.64,0,1,0,1.64,1.64,1.64,1.64,0,0,0-1.64-1.64Z"/><path class="cls-2" d="M44.19,40.55a1.64,1.64,0,1,0,1.64,1.64h0A1.64,1.64,0,0,0,44.19,40.55Z"/><path class="cls-2" d="M38.83,24.39a1.43,1.43,0,0,0-2,.34h0A1.43,1.43,0,1,0,39,26.55l.12-.18h0A1.43,1.43,0,0,0,38.83,24.39Z"/><path class="cls-2" d="M50.75,17.45a17,17,0,0,0-11.26,4.28,1.43,1.43,0,1,0,1.89,2.13,14.1,14.1,0,0,1,9.37-3.56h0a1.43,1.43,0,0,0,0-2.85Z"/><path class="cls-2" d="M53.41,46.9a1.43,1.43,0,0,0-2-.29,1.12,1.12,0,0,1-1.33,0,1.43,1.43,0,0,0-1.69,2.29,4,4,0,0,0,4.73,0A1.43,1.43,0,0,0,53.41,46.9Z"/></svg>