<svg id="Capa_1" data-name="Capa 1" xmlns="http://www.w3.org/2000/svg" viewBox="0 0 101.5 101.5"><defs><style>.cls-1{fill:#1fb6ff;}.cls-2{fill:#fff;}</style></defs><title>buy</title><circle class="cls-1" cx="50.75" cy="50.75" r="50.75"/><path class="cls-2" d="M78.15,72l3.39-3.39a1.48,1.48,0,0,0,.43-.48A35.76,35.76,0,1,0,33.32,81.95q1.51.84,3.09,1.53h-.55a1.5,1.5,0,0,0,0,3H65.64a1.5,1.5,0,0,0,0-3H65q1.5-.65,2.93-1.43a1.48,1.48,0,0,0,.51-.33L72,78.15,79.89,86A1.49,1.49,0,0,0,82,86h0l4-4a1.49,1.49,0,0,0,0-2.11h0ZM34.37,79.12A32.76,32.76,0,0,1,67.13,22.39,32.9,32.9,0,0,1,79.92,65.66l-17-4.56a1.49,1.49,0,0,0-1.82,1.82l4.55,17A33,33,0,0,1,34.37,79.12Zm46.57,3.75L73.06,75A1.49,1.49,0,0,0,71,75l-2.8,2.8L64.64,64.64l13.15,3.52L75,71a1.49,1.49,0,0,0,0,2.11h0L82.87,81Z"/><path class="cls-2" d="M31.7,58.13H34a13.17,13.17,0,0,0,4.33-.49q2.14-.85,2.14-3.86a3.67,3.67,0,0,0-.67-2.34,3.5,3.5,0,0,0-2-1.16,3,3,0,0,0,1.68-1.21,4,4,0,0,0,.53-2.21,3.43,3.43,0,0,0-.87-2.51,4.31,4.31,0,0,0-2.69-1.07,20.18,20.18,0,0,0-2.31-.13H31.7q-2.23,0-2.23,2.33v10.4a1.93,1.93,0,0,0,2.23,2.25Zm.7-11.86q0-.76.64-.76H34.5a5.72,5.72,0,0,1,1.4.13,1.55,1.55,0,0,1,1.21,1.76,1.61,1.61,0,0,1-1,1.65,5.45,5.45,0,0,1-1.8.19h-2v-3Zm0,5.3h2.08a6.23,6.23,0,0,1,2,.21,1.69,1.69,0,0,1,1.08,1.72q0,1.57-1,2a5.1,5.1,0,0,1-1.74.21H33.21a.84.84,0,0,1-.63-.19.88.88,0,0,1-.18-.62Z"/><path class="cls-2" d="M64.16,57.51q0,.64.57.64h1.78a.58.58,0,0,0,.42-.17.63.63,0,0,0,.17-.47V51.83l4.67-7.59a1.56,1.56,0,0,0,.25-.68.37.37,0,0,0-.25-.36,11.24,11.24,0,0,0-2.14-.11,1,1,0,0,0-.87.64q-2.23,3.67-3,5.22-1-1.89-3-5.26a1,1,0,0,0-.85-.59,15.56,15.56,0,0,0-2.38.08.42.42,0,0,0-.28.4,1.6,1.6,0,0,0,.28.7l4.67,7.64v5.6Z"/><path class="cls-2" d="M55.7,43.13H54a.51.51,0,0,0-.57.59v9.14A4.14,4.14,0,0,1,53,55.15q-.55.81-2.5.81a2.77,2.77,0,0,1-2.4-.85,4.16,4.16,0,0,1-.45-2.29v-9.1q0-.59-.49-.59H45.25a.51.51,0,0,0-.57.59v8.46a11.31,11.31,0,0,0,.47,4q1,2.21,5.13,2.21t5.3-2.06a4.3,4.3,0,0,0,.51-1.59,20.73,20.73,0,0,0,.13-2.63V43.72Q56.21,43.13,55.7,43.13Z"/><path class="cls-2" d="M43.81,76.64a26.88,26.88,0,0,1-19-19,1.49,1.49,0,1,0-2.88.77h0A29.86,29.86,0,0,0,43,79.52a1.49,1.49,0,0,0,.77-2.88Z"/><path class="cls-2" d="M76.64,43.82A1.49,1.49,0,1,0,79.51,43,29.86,29.86,0,0,0,58.46,22a1.49,1.49,0,0,0-.77,2.88A26.88,26.88,0,0,1,76.64,43.82Z"/><path class="cls-2" d="M49.86,77.54l-1.12-.06a1.5,1.5,0,1,0-.22,3l1.24.07h0a1.5,1.5,0,0,0,0-3Z"/><path class="cls-2" d="M51.64,24l1.12.06h.11a1.5,1.5,0,1,0,.11-3L51.74,21a1.5,1.5,0,0,0-.1,3Z"/></svg>