<svg id="Layer_1" data-name="Layer 1" xmlns="http://www.w3.org/2000/svg" viewBox="0 0 101.5 101.5"><defs><style>.cls-1{fill:#1fb6ff;}.cls-2{fill:#fff;}</style></defs><title>camera1</title><circle class="cls-1" cx="50.75" cy="50.75" r="50.75"/><path class="cls-2" d="M81.12,32.62a1.2,1.2,0,0,0-1.2-1.2H70.3l-2-8a1.2,1.2,0,0,0-1.16-.9H47.49a1.2,1.2,0,0,0-1.16.9l-2,8H38.61V25.93a1.2,1.2,0,0,0-1.2-1.2H26.54a1.2,1.2,0,0,0-1.2,1.2h0v5.49H21a1.2,1.2,0,0,0-1.2,1.2V74.28a1.2,1.2,0,0,0,1.2,1.2H79.9a1.2,1.2,0,0,0,1.2-1.2h0V41.48h0Zm-32.7-7.71H66.18l1.65,6.51H46.77ZM36.18,27.13v4.3H27.73v-4.3Zm-9.61,46H22.22V42.68h4.35Zm6.67-15.21V73.13H29V42.68h4.27ZM27.9,40.33H22.23V33.87h56.5v6.46Zm7.74,32.8V42.68H49.16a16.52,16.52,0,0,0,4.2,30.41Zm7.54-16A14.13,14.13,0,1,1,57.31,71.26h0A14.13,14.13,0,0,1,43.18,57.13h0Zm35.55,16H61.26a16.52,16.52,0,0,0,4.2-30.41H78.74Z"/><path class="cls-2" d="M64.14,47.92a6.13,6.13,0,0,0-1.06-.7,11.43,11.43,0,1,0,1.06.7Zm-3.9,1a3.69,3.69,0,0,1,1.67.4q.38.23.74.5a3.71,3.71,0,1,1-2.41-.89ZM57.3,66.06a9,9,0,0,1-1.18-17.94A6.11,6.11,0,1,0,66,54.69a9,9,0,0,1-8.7,11.37Z"/><path class="cls-2" d="M73.73,36.6a1.12,1.12,0,0,0-.07-.22,1.21,1.21,0,0,0-.11-.21A1.29,1.29,0,0,0,73.4,36a1.15,1.15,0,0,0-.18-.15L73,35.73l-.22-.07a1.18,1.18,0,0,0-.47,0l-.22.07-.21.11a1.15,1.15,0,0,0-.18.15,1.2,1.2,0,0,0-.15.18,1.34,1.34,0,0,0-.18.43,1.19,1.19,0,0,0,.07.69,1.27,1.27,0,0,0,.11.21,1.19,1.19,0,0,0,.15.18,1.15,1.15,0,0,0,.18.15l.21.11.22.07h.46l.22-.07.21-.11a1.23,1.23,0,0,0,.44-.54,1.12,1.12,0,0,0,.07-.22,1.16,1.16,0,0,0,0-.47Z"/><path class="cls-2" d="M68,35.64H32.44A1.2,1.2,0,0,0,32.22,38H68a1.2,1.2,0,1,0,.22-2.39Z"/></svg>