<svg id="Capa_1" data-name="Capa 1" xmlns="http://www.w3.org/2000/svg" viewBox="0 0 101.5 101.5"><defs><style>.cls-1{fill:#1fb6ff;}.cls-2{fill:#fff;}</style></defs><title>certificate1</title><circle class="cls-1" cx="50.75" cy="50.75" r="50.75"/><path class="cls-2" d="M83.43,25.54H19.24a1.31,1.31,0,0,0-1.31,1.31V71a1.31,1.31,0,0,0,1.31,1.31H52l-.66,1.14a1.31,1.31,0,0,0,1,2l2.25.27L56,77.54a1.31,1.31,0,0,0,1,.52h.08a1.3,1.3,0,0,0,1-.65l2.78-4.81,2.78,4.81a1.31,1.31,0,0,0,1,.65h.08a1.31,1.31,0,0,0,1-.52l1.36-1.81,2.28-.29a1.31,1.31,0,0,0,1-2L69.7,72.3H83.35A1.31,1.31,0,0,0,84.66,71V26.85A1.31,1.31,0,0,0,83.43,25.54ZM20.52,28.15h4.87A6.33,6.33,0,0,1,20.52,33Zm0,41.58V64.86a6.33,6.33,0,0,1,4.87,4.87Zm36.36,4.65-.54-.71a1.31,1.31,0,0,0-.88-.51l-.83-.1,1.44-2.5a7.59,7.59,0,0,0,2.26,1.31Zm6.41-5.24-.16.08H63l-.13.06h-.23l-.18.06h-.06l-.24.07h0l-.52.11H59.27l-.17-.07H59l-.18-.08h0l-.19-.1h0a5,5,0,1,1,4.77,0Zm3.08,4a1.31,1.31,0,0,0-.88.51l-.5.67-1.44-2.5h.06l.27-.11h.06l.28-.13h0a7.58,7.58,0,0,0,1.56-1l1.45,2.51Zm8.23-3.46H68.34l-.76-1.31a7.59,7.59,0,1,0-13.28,0l-.76,1.31H28a8.94,8.94,0,0,0-7.52-7.52V35.67A8.94,8.94,0,0,0,28,28.15H74.6a8.94,8.94,0,0,0,7.52,7.52V62.21a8.94,8.94,0,0,0-7.51,7.52Zm7.52,0H77.24a6.33,6.33,0,0,1,4.87-4.87Zm0-36.71a6.33,6.33,0,0,1-4.87-4.87h4.87Z"/><path class="cls-2" d="M65.16,45.52H37.5a1.31,1.31,0,0,0-.23,2.61H65.16a1.31,1.31,0,0,0,.23-2.61Z"/><path class="cls-2" d="M65.16,50.82H37.5a1.31,1.31,0,0,0-.23,2.61H65.16a1.31,1.31,0,0,0,.23-2.61Z"/><path class="cls-2" d="M57.24,39.46h0a1.31,1.31,0,0,0,.23-2.61h-.23A1.31,1.31,0,0,0,57,39.46Z"/><path class="cls-2" d="M45.41,39.46h8a1.31,1.31,0,0,0,0-2.61h-8a1.31,1.31,0,0,0-.23,2.61Z"/><path class="cls-2" d="M37.53,59.23h0a1.31,1.31,0,0,0,0,2.61h0a1.31,1.31,0,0,0,.23-2.61Z"/><path class="cls-2" d="M46.74,59.23h-5.5A1.31,1.31,0,0,0,41,61.84h5.7a1.31,1.31,0,0,0,0-2.61Z"/></svg>