<svg id="Слой_1" data-name="Слой 1" xmlns="http://www.w3.org/2000/svg" viewBox="0 0 101.5 101.5"><defs><style>.cls-1{fill:#1fb6ff;}.cls-2{fill:#fff;}</style></defs><title>certeficate</title><circle class="cls-1" cx="50.75" cy="50.75" r="50.75"/><path class="cls-2" d="M74.28,17.36a1.32,1.32,0,0,0-.93-.39H28.15a1.32,1.32,0,0,0-1.32,1.32V81.68A1.32,1.32,0,0,0,28.15,83H73.24a1.32,1.32,0,0,0,1.32-1.31l.11-63.39A1.31,1.31,0,0,0,74.28,17.36Zm-2.36,63H29.46V19.61H72Z"/><path class="cls-2" d="M69.92,72l-6-6.08v-.55a6.79,6.79,0,0,0-13.57-.52q0,.26,0,.52v.54L44.29,72a1.32,1.32,0,0,0,.78,2.24l2.86.33.33,2.86a1.31,1.31,0,0,0,2.24.78l6.06-6.07h1.13l6,6.07a1.32,1.32,0,0,0,2.24-.78l.33-2.86,2.86-.33a1.32,1.32,0,0,0,.8-2.24ZM50.57,74.37l-.14-1.19A1.32,1.32,0,0,0,49.28,72l-1.2-.14,3.17-3.18a6.83,6.83,0,0,0,2.49,2.49Zm6.56-4.89a4.16,4.16,0,1,1,4.16-4.16h0A4.16,4.16,0,0,1,57.13,69.48ZM64.94,72a1.32,1.32,0,0,0-1.16,1.16l-.14,1.18L60.52,71.2A6.84,6.84,0,0,0,63,68.71l3.14,3.17Z"/><path class="cls-2" d="M44.83,62.35H34.7a1.32,1.32,0,0,0,0,2.63H44.83a1.32,1.32,0,1,0,.23-2.63Z"/><path class="cls-2" d="M56.08,24.87H45.42a1.32,1.32,0,0,0-.23,2.63H56.08a1.32,1.32,0,1,0,.23-2.63Z"/><path class="cls-2" d="M66.2,30.39H35.3a1.32,1.32,0,0,0,0,2.63H66.2a1.32,1.32,0,0,0,0-2.63Z"/><path class="cls-2" d="M60.42,39.47H46.54a1.32,1.32,0,0,0,0,2.63H60.42a1.32,1.32,0,1,0,.23-2.63Z"/><path class="cls-2" d="M41.81,39.47h-.72a1.32,1.32,0,0,0,0,2.63h.72A1.32,1.32,0,1,0,42,39.47Z"/><path class="cls-2" d="M60.42,44.6H46.54a1.32,1.32,0,0,0,0,2.63H60.42a1.32,1.32,0,1,0,.23-2.63Z"/><path class="cls-2" d="M41.81,44.6h-.72a1.32,1.32,0,0,0,0,2.63h.72A1.32,1.32,0,1,0,42,44.6Z"/><path class="cls-2" d="M60.42,49.86H46.54a1.32,1.32,0,1,0-.23,2.63H60.42a1.32,1.32,0,1,0,.23-2.63Z"/><path class="cls-2" d="M41.81,49.86h-.72a1.32,1.32,0,1,0-.23,2.63h.95A1.32,1.32,0,1,0,42,49.86Z"/></svg>