<svg id="Capa_1" data-name="Capa 1" xmlns="http://www.w3.org/2000/svg" viewBox="0 0 513 513"><defs><style>.cls-1{fill:#1fb6ff;stroke:#fff;stroke-miterlimit:10;}.cls-2{fill:#fff;}</style></defs><title>checked2.2</title><path class="cls-1" d="M256.5.5C115.34.5.5,115.34.5,256.5s114.84,256,256,256,256-114.85,256-256S397.67.5,256.5.5Z"/><path class="cls-2" d="M380.18,132.87A174.87,174.87,0,1,0,431.37,256.5,174.87,174.87,0,0,0,380.18,132.87ZM256.5,417.42a160.9,160.9,0,1,1,.1,0Z"/><path class="cls-2" d="M355.94,181.43a24.41,24.41,0,0,0-34.46,0L218.92,284,185.5,250.36A24.38,24.38,0,0,0,151,284.82l50.84,50.89a24.37,24.37,0,0,0,34.46,0h0L356.16,215.9A24.41,24.41,0,0,0,355.94,181.43Zm-9.83,24.63L226.29,325.88a10.45,10.45,0,0,1-14.78,0h0l-50.84-50.71A10.47,10.47,0,1,1,175,259.92l.45.45h0L214,298.92a7,7,0,0,0,9.83,0L331.36,191.27a10.47,10.47,0,0,1,14.8,14.8h0Z"/><path class="cls-2" d="M397.3,285.27a7,7,0,0,0-8.47,5A136.41,136.41,0,0,1,256.5,393a7,7,0,1,0-1.1,13.83h1.1a150.33,150.33,0,0,0,146-113.14,7,7,0,0,0-5.1-8.45Z"/><path class="cls-2" d="M400,249.5a7,7,0,0,0-7,7v6a7,7,0,0,0,6.67,7.24H400a7,7,0,0,0,6.85-6.67V256.5A7,7,0,0,0,400,249.5Z"/></svg>