<svg id="Layer_1" data-name="Layer 1" xmlns="http://www.w3.org/2000/svg" viewBox="0 0 101.5 101.5"><defs><style>.cls-1{fill:#1fb6ff;}.cls-2{fill:#fff;}</style></defs><title>checked (1)</title><circle class="cls-1" cx="50.75" cy="50.75" r="50.75"/><path class="cls-2" d="M84.09,39.66a34.12,34.12,0,1,0-46.63,40h-.53a1.42,1.42,0,0,0,0,2.84H65.38a1.42,1.42,0,0,0,0-2.84h-.63A34,34,0,0,0,84.1,39.62ZM78.25,64.13A31.45,31.45,0,0,1,51.07,79.75h0A31.28,31.28,0,1,1,78.28,64.13Z"/><path class="cls-2" d="M44.52,73.22A25.68,25.68,0,0,1,26.41,55.11a1.42,1.42,0,0,0-2.75.74A28.53,28.53,0,0,0,43.78,76a1.42,1.42,0,0,0,.74-2.75h0Z"/><path class="cls-2" d="M58.51,21a1.42,1.42,0,0,0-.74,2.75h0A25.68,25.68,0,0,1,75.88,41.87a1.42,1.42,0,0,0,2.75-.74h0A28.53,28.53,0,0,0,58.51,21Z"/><path class="cls-2" d="M50.3,74.08,49.23,74A1.43,1.43,0,0,0,49,76.86l1.18.06h0a1.42,1.42,0,0,0,0-2.84Z"/><path class="cls-2" d="M52,22.9l1.07.06h.08a1.42,1.42,0,1,0,.1-2.84h0l-1.18-.06A1.42,1.42,0,1,0,52,22.9Z"/><path class="cls-2" d="M63.6,34.82a4.59,4.59,0,0,0-3.27,1.35L45.49,51,42,47.49A4.62,4.62,0,1,0,35.43,54h0l6.8,6.8.06.06h0l.06.06h4.82l.06-.06h0l.06-.06h0l18.1-18a4.62,4.62,0,0,0-3.27-7.89Zm1.26,5.88L46.74,58.82l-.1.09-.24.17-.28.13-.34.09h-.59l-.29-.08-.31-.15-.25-.19L37.48,52A1.78,1.78,0,0,1,40,49.51L44.53,54a1.42,1.42,0,0,0,2,0L62.38,38.19a1.78,1.78,0,0,1,2.52,2.52Z"/></svg>