<svg id="Слой_1" data-name="Слой 1" xmlns="http://www.w3.org/2000/svg" viewBox="0 0 2097.48 1156.5"><defs><style>.cls-1{fill:#fff;stroke:#0087c0;stroke-miterlimit:10;stroke-width:10px;}.cls-2{font-size:72px;font-family:MyriadPro-Regular, Myriad Pro;}.cls-3{letter-spacing:-0.01em;}.cls-4{letter-spacing:-0.01em;}.cls-5{letter-spacing:-0.05em;}.cls-6{letter-spacing:-0.02em;}.cls-7{letter-spacing:-0.01em;}.cls-8{letter-spacing:0.01em;}.cls-9{letter-spacing:-0.01em;}</style></defs><title>cloud2r</title><path class="cls-1" d="M-71.38-78.7A121,121,0,0,0-145.6-53.37c-20.29-107-114.21-187.86-227.07-187.86-1.56,0-3.1.08-4.66.12-28-175.7-180.16-310-363.74-310-181.37,0-332,131.11-362.62,303.7a230.59,230.59,0,0,0-174.63-79.78c-127.68,0-231.19,103.51-231.19,231.19,0,1.64.09,3.26.12,4.9a184.87,184.87,0,0,0-42.16-4.9C-1653.42-96-1736-13.42-1736,88.45s82.58,184.45,184.45,184.45A183.56,183.56,0,0,0-1447,240.36c24.8,107.55,121.09,187.76,236.18,187.76a241.91,241.91,0,0,0,186.43-87.47,242.15,242.15,0,0,0,200.2,105.72c100.25,0,186.29-60.86,223.19-147.64a181.92,181.92,0,0,0,97.88,28.44A182.74,182.74,0,0,0-346.65,239a142.82,142.82,0,0,0,132.47,89.46A142.81,142.81,0,0,0-71.38,185.68,144.13,144.13,0,0,0-73,164.39c.53,0,1.05,0,1.58,0A121.57,121.57,0,0,0,50.19,42.87,121.57,121.57,0,0,0-71.38-78.7Z" transform="translate(1741 556.11)"/><circle class="cls-1" cx="1884.15" cy="905.07" r="92.96"/><circle class="cls-1" cx="2048.53" cy="1107.55" r="43.95"/><text class="cls-2" transform="translate(457.35 592.11)">Позаб<tspan class="cls-3" x="189.29" y="0">о</tspan><tspan class="cls-4" x="228.24" y="0">т</tspan><tspan class="cls-5" x="257.33" y="0">ь</tspan><tspan class="cls-6" x="289.44" y="0">т</tspan><tspan x="317.59" y="0">есь об ок</tspan><tspan class="cls-7" x="603.86" y="0">р</tspan><tspan class="cls-8" x="644.11" y="0">у</tspan><tspan class="cls-9" x="678.74" y="0">ж</tspan><tspan x="726.33" y="0">ении</tspan></text></svg>