<svg id="Слой_1" data-name="Слой 1" xmlns="http://www.w3.org/2000/svg" viewBox="0 0 2097.48 1156.5"><defs><style>.cls-1{fill:#fff;stroke:#0087c0;stroke-miterlimit:10;stroke-width:10px;}.cls-2{font-size:72px;font-family:MyriadPro-Regular, Myriad Pro;}.cls-3{letter-spacing:0em;}.cls-4{letter-spacing:-0.02em;}.cls-5{letter-spacing:0.02em;}.cls-6{letter-spacing:-0.01em;}.cls-7{letter-spacing:0em;}.cls-8{letter-spacing:0em;}</style></defs><title>cloud2l</title><path class="cls-1" d="M-1313.14-78.7a121,121,0,0,1,74.23,25.33c20.29-107,114.21-187.86,227.07-187.86,1.56,0,3.1.08,4.66.12,28-175.7,180.16-310,363.74-310,181.37,0,332,131.11,362.62,303.7A230.59,230.59,0,0,1-106.2-327.19C21.49-327.19,125-223.69,125-96c0,1.64-.09,3.26-.12,4.9A184.87,184.87,0,0,1,167-96C268.9-96,351.48-13.42,351.48,88.45S268.9,272.9,167,272.9A183.56,183.56,0,0,1,62.44,240.36C37.63,347.91-58.65,428.12-173.74,428.12a241.91,241.91,0,0,1-186.43-87.47,242.15,242.15,0,0,1-200.2,105.72c-100.25,0-186.29-60.86-223.19-147.64a181.92,181.92,0,0,1-97.88,28.44A182.74,182.74,0,0,1-1037.87,239a142.82,142.82,0,0,1-132.47,89.46,142.81,142.81,0,0,1-142.81-142.81,144.13,144.13,0,0,1,1.58-21.28c-.53,0-1.05,0-1.58,0A121.57,121.57,0,0,1-1434.71,42.87,121.57,121.57,0,0,1-1313.14-78.7Z" transform="translate(1741 556.11)"/><circle class="cls-1" cx="213.33" cy="905.07" r="92.96"/><circle class="cls-1" cx="48.95" cy="1107.55" r="43.95"/><text class="cls-2" transform="translate(686.21 604.11)">Найд<tspan class="cls-3" x="159.69" y="0">и</tspan><tspan class="cls-4" x="199.37" y="0">т</tspan><tspan x="227.52" y="0">е и</tspan><tspan class="cls-5" x="318.74" y="0">с</tspan><tspan class="cls-4" x="352.15" y="0">т</tspan><tspan class="cls-6" x="380.3" y="0">о</tspan><tspan x="419.11" y="0">чник жизненной с</tspan><tspan class="cls-7" x="985.02" y="0">и</tspan><tspan class="cls-8" x="1025.19" y="0">лы</tspan></text></svg>