<svg id="Capa_1" data-name="Capa 1" xmlns="http://www.w3.org/2000/svg" viewBox="0 0 101.5 101.5"><defs><style>.cls-1{fill:#1fb6ff;}.cls-2{fill:#fff;}</style></defs><title>coin</title><circle class="cls-1" cx="50.75" cy="50.75" r="50.75"/><circle class="cls-2" cx="83.77" cy="30.96" r="1.35"/><path class="cls-2" d="M57.28,71.61H52a1.35,1.35,0,0,0,0,2.7h5.23a1.46,1.46,0,0,1,0,2.92H43.2a7.08,7.08,0,0,1-5.46-2.56l-3.37-4a9.77,9.77,0,0,0-7.25-3.53v-8h5a9.35,9.35,0,0,1,6.53,2.64l7.27,7a1.32,1.32,0,0,1-1.81,1.92L38.4,65.47a1.36,1.36,0,0,0-1.83,2h0l5.71,5.23a4,4,0,1,0,5.51-5.86l-7.27-7a12,12,0,0,0-8.4-3.39h-5.2a3.35,3.35,0,0,0-3.1-2.09H17.43a1.35,1.35,0,0,0-1.35,1.35v9.86a1.35,1.35,0,0,0,2.7,0V57h5a.64.64,0,0,1,.64.64V68.5a.64.64,0,0,1-.64.64h-1.4a1.35,1.35,0,0,0,0,2.7h1.4a3.35,3.35,0,0,0,3.08-2A7.08,7.08,0,0,1,32.3,72.4l3.37,4a9.78,9.78,0,0,0,7.54,3.53H57.28a4.17,4.17,0,0,0,0-8.33Z"/><path class="cls-2" d="M65.76,62.25a1.35,1.35,0,0,0-1.91.1h0a1.35,1.35,0,0,0,2,1.79l-1-.91,1,.9A1.35,1.35,0,0,0,65.76,62.25Z"/><path class="cls-2" d="M62.93,65.19a1.36,1.36,0,1,0-.31,1.9h0a1.35,1.35,0,0,0,.3-1.88Z"/><path class="cls-2" d="M59.56,67.45a1.36,1.36,0,1,0-.73,1.81h0a1.35,1.35,0,0,0,.69-1.78Z"/><path class="cls-2" d="M55.78,69a1.36,1.36,0,1,0-1.34,1.63h.29A1.35,1.35,0,0,0,55.79,69Z"/><path class="cls-2" d="M70.94,47.92l-1.33.26,1.33-.26a1.35,1.35,0,1,0-2.67.43l0,.08h0a1.36,1.36,0,0,0,1.32,1.08h.28A1.35,1.35,0,0,0,70.94,47.92Z"/><path class="cls-2" d="M69.7,50.89a1.35,1.35,0,0,0-1.47,1.22h0a1.36,1.36,0,0,0,1.25,1.45h.1a1.35,1.35,0,0,0,1.35-1.25l-1.35-.12,1.35.12A1.35,1.35,0,0,0,69.7,50.89Z"/><path class="cls-2" d="M67.88,58.78a1.36,1.36,0,1,0,.5,1.86h0a1.35,1.35,0,0,0-.49-1.84Z"/><path class="cls-2" d="M69.21,54.93a1.36,1.36,0,1,0,.89,1.71h0a1.35,1.35,0,0,0-.86-1.7Z"/><path class="cls-2" d="M33.56,54.73a1.35,1.35,0,0,0-2.64.59h0a1.36,1.36,0,0,0,2.63-.66Z"/><path class="cls-2" d="M33.86,41.85a1.35,1.35,0,0,0-1.79.67h0a1.35,1.35,0,1,0,1.8-.71Z"/><path class="cls-2" d="M32.37,45.63a1.35,1.35,0,0,0-1.6,1h0a1.35,1.35,0,0,0,1.06,1.59h.27a1.36,1.36,0,0,0,.28-2.69Z"/><path class="cls-2" d="M36.11,38.46a1.35,1.35,0,0,0-1.88.3h0l1.09.8-1.09-.79a1.35,1.35,0,0,0,2.19,1.59h0a1.35,1.35,0,0,0-.27-1.89Z"/><path class="cls-2" d="M39,35.63a1.35,1.35,0,0,0-1.91-.1h0a1.35,1.35,0,1,0,1.92.09Z"/><path class="cls-2" d="M42.51,33.5a1.35,1.35,0,0,0-1.84-.5h0a1.35,1.35,0,1,0,1.87.5Z"/><path class="cls-2" d="M46.34,32.13a1.35,1.35,0,0,0-1.7-.87h0l.4,1.29-.4-1.29a1.35,1.35,0,1,0,.8,2.58h0a1.35,1.35,0,0,0,.91-1.68Z"/><path class="cls-2" d="M50.38,31.64a1.35,1.35,0,0,0-1.46-1.23h0a1.35,1.35,0,1,0,.13,2.7h.12a1.35,1.35,0,0,0,1.22-1.47Z"/><path class="cls-2" d="M33.09,51a1.35,1.35,0,0,0-2.7.07h0a1.35,1.35,0,0,0,1.35,1.33h0a1.35,1.35,0,0,0,1.35-1.35S33.09,51,33.09,51Z"/><path class="cls-2" d="M52,49.3H49.21a2.06,2.06,0,0,1-2-2V45.62a2.06,2.06,0,0,1,2-2h3.08A1.76,1.76,0,0,1,54,45.32a1.35,1.35,0,0,0,2.7,0,4.46,4.46,0,0,0-4.46-4.46H52v-2a1.35,1.35,0,0,0-2.7,0v2h0a4.76,4.76,0,0,0-4.76,4.76v1.62A4.76,4.76,0,0,0,49.21,52H52a2.06,2.06,0,0,1,2,2.06v1.62a2.06,2.06,0,0,1-2,2H48.91A1.76,1.76,0,0,1,47.16,56a1.35,1.35,0,0,0-2.7,0,4.46,4.46,0,0,0,4.46,4.46h.34v2a1.35,1.35,0,0,0,2.7,0v-2h0a4.76,4.76,0,0,0,4.76-4.76h0V54.06A4.76,4.76,0,0,0,52,49.3Z"/><path class="cls-2" d="M83.77,34a1.35,1.35,0,0,0-1.35,1.35v9h-5a.64.64,0,0,1-.64-.64V33a.64.64,0,0,1,.64-.64h1.3a1.35,1.35,0,0,0,0-2.7h-1.3a3.35,3.35,0,0,0-3.1,2.09,7.08,7.08,0,0,1-5.42-2.56l-3.37-4A9.78,9.78,0,0,0,58,21.56H43.92a4.16,4.16,0,1,0,0,8.33h5.76a1.35,1.35,0,0,0,0-2.7H43.92a1.46,1.46,0,1,1,0-2.92H58a7.08,7.08,0,0,1,5.46,2.56l3.37,4a9.77,9.77,0,0,0,7.25,3.53v8h-5a9.35,9.35,0,0,1-6.53-2.64l-7.27-7a1.32,1.32,0,0,1,1.81-1.92L62.84,36a1.36,1.36,0,0,0,1.83-2h0L59,28.79a4,4,0,0,0-5.51,5.86l7.27,7A12,12,0,0,0,69.16,45h5.22a3.35,3.35,0,0,0,3.08,2h6.35a1.35,1.35,0,0,0,1.35-1.35V35.37A1.35,1.35,0,0,0,83.83,34Z"/><circle class="cls-2" cx="17.43" cy="70.49" r="1.35"/></svg>