<svg id="Capa_1" data-name="Capa 1" xmlns="http://www.w3.org/2000/svg" viewBox="0 0 101.5 101.5"><defs><style>.cls-1{fill:#1fb6ff;}.cls-2{fill:#fff;}</style></defs><title>currency</title><circle class="cls-1" cx="50.75" cy="50.75" r="50.75"/><path class="cls-2" d="M65.89,67a14.57,14.57,0,0,0-4.34-1.71l-1-.28c-1.85-.54-3-1.62-3.17-2.87A2.73,2.73,0,0,1,59,59.49a3.22,3.22,0,0,1,.79-.3v2.25a1.51,1.51,0,0,0,3,0V59.3a9,9,0,0,1,2.45,1,1.51,1.51,0,1,0,1.57-2.59,12.11,12.11,0,0,0-4-1.5V55.12a1.51,1.51,0,0,0-3,0v1a6.53,6.53,0,0,0-2.25.73,5.73,5.73,0,0,0-3.18,5.59c.27,2.51,2.26,4.54,5.32,5.44h.11V75a3.68,3.68,0,0,1-2.62-1.38A1.51,1.51,0,0,0,54.52,75c.92,1.77,3,2.77,5.3,3v1.58a1.51,1.51,0,0,0,3,0V78a8.29,8.29,0,0,0,.91-.23,6.55,6.55,0,0,0,4.5-5.26A5.54,5.54,0,0,0,65.89,67Zm-.62,5a3.5,3.5,0,0,1-2.41,2.81h0v-6a6.34,6.34,0,0,1,1.34.65A2.58,2.58,0,0,1,65.27,72Z"/><path class="cls-2" d="M61.34,47.73q-.76,0-1.51.06V21.63c0-1.58-1.11-3.81-6.38-5.45a46.37,46.37,0,0,0-13.29-1.73,46.37,46.37,0,0,0-13.29,1.73c-5.27,1.65-6.38,3.88-6.38,5.45V67.39c0,1.58,1.11,3.81,6.38,5.45a46.37,46.37,0,0,0,13.29,1.73c1,0,1.9,0,2.85-.07A19.66,19.66,0,1,0,61.34,47.73ZM27.78,19.07a43.32,43.32,0,0,1,12.38-1.59,43.32,43.32,0,0,1,12.38,1.59c3.47,1.09,4.25,2.25,4.25,2.57S56,23.12,52.55,24.2a43.32,43.32,0,0,1-12.38,1.59A43.32,43.32,0,0,1,27.78,24.2c-3.47-1.09-4.25-2.25-4.25-2.57S24.31,20.15,27.78,19.07Zm-4.25,6.62a17.14,17.14,0,0,0,3.35,1.4,46.37,46.37,0,0,0,13.29,1.73,46.38,46.38,0,0,0,13.29-1.73,17.14,17.14,0,0,0,3.35-1.4v3.57c0,.32-.78,1.48-4.25,2.57a43.32,43.32,0,0,1-12.38,1.59,53.43,53.43,0,0,1-6.33-.36,1.51,1.51,0,0,0-.36,3h0a56.45,56.45,0,0,0,6.69.39,46.37,46.37,0,0,0,13.28-1.73,17.15,17.15,0,0,0,3.35-1.4v11.2c0,.32-.78,1.48-4.25,2.57a43.32,43.32,0,0,1-12.38,1.59A43.32,43.32,0,0,1,27.8,47.09c-3.47-1.09-4.25-2.25-4.25-2.57V40.94a17.15,17.15,0,0,0,3.35,1.4,46.37,46.37,0,0,0,13.29,1.73,54.11,54.11,0,0,0,8.47-.64,1.52,1.52,0,0,0-.48-3h0a51.84,51.84,0,0,1-8,.6A43.32,43.32,0,0,1,27.8,39.44c-3.47-1.09-4.25-2.25-4.25-2.57V25.69ZM40.16,71.55A43.32,43.32,0,0,1,27.78,70c-3.47-1.09-4.25-2.25-4.25-2.57V63.82a17.15,17.15,0,0,0,3.35,1.4A46.37,46.37,0,0,0,40.17,67h1.52v4l.06.3v.29C41.46,71.54,40.81,71.55,40.16,71.55ZM43.42,59.3h0l-.16.36v.1l-.07.17a19.49,19.49,0,0,0-1.16,4H40.21a43.32,43.32,0,0,1-12.38-1.59c-3.47-1.09-4.25-2.25-4.25-2.57V48.56h0A17.15,17.15,0,0,0,26.88,50a46.37,46.37,0,0,0,13.28,1.7,50.74,50.74,0,0,0,11-1.11,19.73,19.73,0,0,0-4.75,4q-.59.69-1.12,1.44c-1.64.15-3.36.23-5.1.23a53.43,53.43,0,0,1-6.33-.36,1.51,1.51,0,0,0-.36,3,56.45,56.45,0,0,0,6.69.39c1.11,0,2.21,0,3.29-.09ZM61.34,84A16.67,16.67,0,0,1,45.45,72.34l-.07-.25-.12-.42-.07-.28-.06-.23q-.06-.24-.1-.48v-.2a1.32,1.32,0,0,0-.07-.42v-.13a5,5,0,0,0-.07-.54v-.16a1.84,1.84,0,0,0,0-.52h0v-2.9a2.48,2.48,0,0,1,.06-.54v-.56a2.88,2.88,0,0,1,.12-.64h0A16.7,16.7,0,0,1,56.75,51.39h.07l.41-.11.48-.11h.18l.63-.12a16.64,16.64,0,1,1,2.81,33Z"/><path class="cls-2" d="M28.11,35.07l.72.18a1.51,1.51,0,1,0,.7-2.94l-.65-.16a1.51,1.51,0,0,0-.77,2.92Z"/><path class="cls-2" d="M52.69,42.5a1.52,1.52,0,0,0,.43-.06l.89-.28a1.51,1.51,0,1,0-1-2.86l-.78.25a1.52,1.52,0,1,0,.43,3Z"/><path class="cls-2" d="M29.53,55.18,28.88,55a1.51,1.51,0,0,0-.77,2.93l.72.18a1.51,1.51,0,0,0,.7-2.94Z"/></svg>