<svg id="Capa_1" data-name="Capa 1" xmlns="http://www.w3.org/2000/svg" viewBox="0 0 101.5 101.5"><defs><style>.cls-1{fill:#1fb6ff;}.cls-2{fill:#fff;}</style></defs><title>dollar</title><circle class="cls-1" cx="50.75" cy="50.75" r="50.75"/><path class="cls-2" d="M74.48,27a31.67,31.67,0,0,0-46.8,42.57q-2.21,4.5-5.17,6A2.73,2.73,0,0,0,21,78.49a2.76,2.76,0,0,0,2.31,2.32,14.06,14.06,0,0,0,2.3.17h0A20.17,20.17,0,0,0,37,77.24,31.67,31.67,0,0,0,74.48,27ZM72.21,69.53A28.47,28.47,0,0,1,37.68,74a1.6,1.6,0,0,0-2,.29,17,17,0,0,1-10.07,3.51h-.48c2.35-1.56,4.29-4.13,5.9-7.81a1.6,1.6,0,0,0-.27-1.71,28.44,28.44,0,1,1,41.44,1.3Z"/><path class="cls-2" d="M54.33,47.75H49.85a3.32,3.32,0,0,1,0-6.65h7.9a1.6,1.6,0,0,0,0-3.2H53.68V34.8a1.6,1.6,0,0,0-3.2,0h0v3.1h-.64a6.53,6.53,0,0,0,0,13.06h4.5a3.33,3.33,0,1,1,0,6.65H46.27a1.6,1.6,0,1,0,0,3.2h4.22V64a1.6,1.6,0,1,0,3.2,0V60.81h.72a6.53,6.53,0,1,0-.08-13.06Z"/></svg>