<svg id="Layer_1" data-name="Layer 1" xmlns="http://www.w3.org/2000/svg" viewBox="0 0 143.34 101.5"><defs><style>.cls-1{fill:#1fb6ff;}.cls-2{fill:#fff;}</style></defs><title>earth1</title><circle class="cls-1" cx="50.75" cy="50.75" r="50.75"/><circle class="cls-1" cx="130.92" cy="50.92" r="12.42"/><path class="cls-2" d="M50.56,28.3A22.42,22.42,0,1,0,73,50.72,22.45,22.45,0,0,0,50.56,28.3Zm-7,3.78A20.73,20.73,0,0,0,40,38.45H34.89A20,20,0,0,1,43.58,32.08ZM33.21,41h6A37.35,37.35,0,0,0,38,49.46H30.69A19.77,19.77,0,0,1,33.21,41ZM30.69,52H38a37.8,37.8,0,0,0,1,7.77H32.82A19.75,19.75,0,0,1,30.69,52Zm3.66,10.29h5.41a21.32,21.32,0,0,0,3.81,7.09A20,20,0,0,1,34.36,62.28ZM49.3,70.34c-2.07-.53-4-2.37-5.61-5.31a22.16,22.16,0,0,1-1.24-2.75H49.3Zm0-10.58H41.65A34.8,34.8,0,0,1,40.55,52H49.3Zm0-10.29H40.55A34.27,34.27,0,0,1,41.85,41H49.3Zm0-11H42.73a21.51,21.51,0,0,1,1-2c1.58-2.94,3.54-4.78,5.61-5.31ZM67.9,41a19.76,19.76,0,0,1,2.52,8.49H63.08A37.35,37.35,0,0,0,61.88,41Zm-1.68-2.52H61.09a20.73,20.73,0,0,0-3.56-6.37A20,20,0,0,1,66.22,38.45Zm-14.4-7.35c2.07.53,4,2.37,5.61,5.31a21.52,21.52,0,0,1,1,2H51.82Zm0,9.87h7.45a34.28,34.28,0,0,1,1.3,8.49H51.82Zm0,11h8.75a34.8,34.8,0,0,1-1.1,7.77H51.82Zm0,18.36V62.28h6.85A22.16,22.16,0,0,1,57.43,65C55.85,68,53.89,69.81,51.82,70.34Zm5.71-1a21.32,21.32,0,0,0,3.81-7.09h5.41A20,20,0,0,1,57.53,69.36Zm4.54-9.61a37.81,37.81,0,0,0,1-7.77h7.33a19.76,19.76,0,0,1-2.13,7.77Z"/><path class="cls-2" d="M76.49,18.74A5.51,5.51,0,1,0,82,24.25,5.52,5.52,0,0,0,76.49,18.74Zm0,8.5a3,3,0,1,1,3-3A3,3,0,0,1,76.49,27.24Z"/><path class="cls-2" d="M23.51,18.74A5.51,5.51,0,1,0,29,24.25,5.52,5.52,0,0,0,23.51,18.74Zm0,8.5a3,3,0,1,1,3-3A3,3,0,0,1,23.51,27.24Z"/><path class="cls-2" d="M76.49,72.24A5.51,5.51,0,1,0,82,77.75,5.52,5.52,0,0,0,76.49,72.24Zm0,8.5a3,3,0,1,1,3-3A3,3,0,0,1,76.49,80.74Z"/><path class="cls-2" d="M23.51,72.24A5.51,5.51,0,1,0,29,77.75,5.52,5.52,0,0,0,23.51,72.24Zm0,8.5a3,3,0,1,1,3-3A3,3,0,0,1,23.51,80.74Z"/><circle class="cls-2" cx="30.61" cy="31.48" r="1.26"/><circle class="cls-2" cx="30.49" cy="70.32" r="1.26"/><circle class="cls-2" cx="69.84" cy="70.5" r="1.26"/><circle class="cls-2" cx="69.84" cy="31.48" r="1.26"/></svg>