<svg id="Capa_1" data-name="Capa 1" xmlns="http://www.w3.org/2000/svg" viewBox="0 0 101.5 101.5"><defs><style>.cls-1{fill:#1fb6ff;}.cls-2{fill:#fff;}</style></defs><title>edit</title><circle class="cls-1" cx="50.75" cy="50.75" r="50.75"/><path class="cls-2" d="M81.1,22.89a14.11,14.11,0,0,0-20,0l0,0L24.47,59.5a1.83,1.83,0,0,0-.52,1l-2.71,20.1a1.83,1.83,0,0,0,.52,1.54,1.86,1.86,0,0,0,1.3.55h.25L35.42,81.1a1.84,1.84,0,1,0-.49-3.65l-9.7,1.29,1.9-14L41.88,79.49a1.86,1.86,0,0,0,1.3.55,1.81,1.81,0,0,0,1.3-.55L81.11,42.88a14.11,14.11,0,0,0,0-20l0,0Zm-19.27,4.5L68,33.54,34.58,67l-6.15-6.15ZM43.19,75.58l-6-6L70.58,36.15l6,6Zm36-36.05L64.48,24.82A10.45,10.45,0,0,1,79.19,39.53Z"/></svg>