<svg id="Capa_1" data-name="Capa 1" xmlns="http://www.w3.org/2000/svg" viewBox="0 0 693 513"><defs><style>.cls-1,.cls-4{fill:#1fb6ff;}.cls-1,.cls-2{stroke:#fff;}.cls-1{stroke-miterlimit:10;}.cls-2{fill:none;stroke-linecap:round;stroke-linejoin:round;stroke-width:14px;}.cls-3{fill:#fff;}</style></defs><title>fb-logo</title><path class="cls-1" d="M256.5.5C115.34.5.5,115.34.5,256.5s114.84,256,256,256,256-114.85,256-256S397.67.5,256.5.5Z"/><path class="cls-2" d="M339.19,256.65h-54.1V449.5H204.91V256.65H166.8V188.5h38.11V144.41c0-31.57,15-80.91,80.91-80.91l59.41.23v66.16H302.11c-7,0-17,3.51-17,18.57v40H346.2Z"/><line class="cls-2" x1="263.5" y1="290.5" x2="263.5" y2="427.5"/><path class="cls-3" d="M263.44,252.5a6.94,6.94,0,0,0-6.94,6.94h0v5.93a6.94,6.94,0,0,0,6.63,7.2h.31a6.94,6.94,0,0,0,6.81-6.63v-6.55A6.94,6.94,0,0,0,263.44,252.5Z"/><path class="cls-2" d="M226.5,130.21c.91-5.57,3-19.9,15.25-32.5,14.75-15.21,42-15.43,46-15.21"/><path class="cls-3" d="M300.34,82.39a6.94,6.94,0,0,0,6.94,6.94h5.93a6.94,6.94,0,0,0,7.2-6.63v-.31a6.94,6.94,0,0,0-6.63-6.81h-6.55A6.94,6.94,0,0,0,300.34,82.39Z"/><circle class="cls-4" cx="643" cy="256.5" r="50"/></svg>