<svg id="Capa_1" data-name="Capa 1" xmlns="http://www.w3.org/2000/svg" viewBox="0 0 101.5 101.5"><defs><style>.cls-1{fill:#1fb6ff;}.cls-2{fill:#fff;}</style></defs><title>firework</title><circle class="cls-1" cx="50.75" cy="50.75" r="50.75"/><path class="cls-2" d="M60.43,70.81h0a1.3,1.3,0,0,0-2.36,1.11h0a1.3,1.3,0,0,0,2.36-1.11Z"/><path class="cls-2" d="M58.64,67,55.15,59.5a1.3,1.3,0,1,0-2.36,1.1l3.49,7.48A1.3,1.3,0,1,0,58.64,67Z"/><path class="cls-2" d="M36.07,49.92,19.15,44.06a1.3,1.3,0,0,0-1.73,1.23V57a1.3,1.3,0,0,0,1.73,1.23l16.92-5.86a1.3,1.3,0,0,0,0-2.46Zm-16,5.27v-8l11.65,4Z"/><path class="cls-2" d="M83.53,44.23a1.3,1.3,0,0,0-1.18-.17L65.43,49.92a1.3,1.3,0,0,0,0,2.46l16.92,5.86A1.3,1.3,0,0,0,84.08,57V45.29A1.3,1.3,0,0,0,83.53,44.23Zm-2.06,11-11.65-4,11.65-4Z"/><path class="cls-2" d="M57.67,18.37a1.3,1.3,0,0,0-1.06-.55H44.88a1.3,1.3,0,0,0-1.23,1.73l5.86,16.92a1.3,1.3,0,0,0,2.46,0l5.86-16.92A1.3,1.3,0,0,0,57.67,18.37Zm-6.93,13.7-4-11.65h8.07Z"/><path class="cls-2" d="M57.84,82.76,52,65.84a1.3,1.3,0,0,0-2.46,0L43.66,82.76a1.3,1.3,0,0,0,1.23,1.73H56.62a1.3,1.3,0,0,0,1.23-1.73Zm-11.13-.88,4-11.65,4,11.65h-8Z"/><path class="cls-2" d="M41.25,39.8,23.61,18.29a1.3,1.3,0,0,0-1.83-.18l-.1.09-3.87,3.87a1.3,1.3,0,0,0,0,1.84l.1.09L39.41,41.64a1.3,1.3,0,0,0,1.83-1.83ZM20.65,22.89l1.83-1.83,8.37,10.2Z"/><path class="cls-2" d="M83.6,78.31,62.09,60.67a1.3,1.3,0,0,0-1.83,1.83L77.9,84a1.3,1.3,0,0,0,.94.47h.06a1.3,1.3,0,0,0,.92-.38l3.87-3.87a1.3,1.3,0,0,0,0-1.84l-.1-.09ZM79,81.25,70.63,71l10.2,8.37Z"/><path class="cls-2" d="M83.7,22.07,79.83,18.2a1.3,1.3,0,0,0-1.84,0l-.09.1L60.25,39.8a1.3,1.3,0,0,0,1.83,1.83L83.59,24a1.3,1.3,0,0,0,.18-1.83l-.09-.1ZM70.64,31.26,79,21.06l1.83,1.83Z"/><path class="cls-2" d="M41.14,60.76a1.3,1.3,0,0,0-1.75-.09L17.88,78.31a1.3,1.3,0,0,0-.18,1.83l.09.1,3.87,3.87a1.3,1.3,0,0,0,.92.38h.06a1.3,1.3,0,0,0,.94-.47L41.25,62.5A1.3,1.3,0,0,0,41.14,60.76ZM22.49,81.25l-1.83-1.83L30.86,71Z"/><path class="cls-2" d="M56.14,50a1.3,1.3,0,0,0-1-.89l-2.18-.32-1-2a1.3,1.3,0,0,0-2.34,0l-1,2-2.18.32a1.3,1.3,0,0,0-.72,2.22l1.58,1.54L46.88,55a1.3,1.3,0,0,0,1.89,1.37l2-1,2,1A1.3,1.3,0,0,0,54.66,55l-.37-2.17,1.58-1.54A1.3,1.3,0,0,0,56.14,50Zm-4.22,1.49a1.3,1.3,0,0,0-.37,1.15v.25l-.22-.12a1.3,1.3,0,0,0-1.21,0l-.22.12v-.25a1.3,1.3,0,0,0-.37-1.15l-.18-.17h.25a1.3,1.3,0,0,0,1-.71l.11-.22.11.22a1.3,1.3,0,0,0,1,.71h.25Z"/><path class="cls-2" d="M41,73.4h-.79v-.79a1.3,1.3,0,0,0-1.3-1.29h0a1.3,1.3,0,0,0-1.29,1.31h0v.77h-.77a1.3,1.3,0,0,0,0,2.6h.79v.79a1.3,1.3,0,0,0,1.3,1.29h0a1.3,1.3,0,0,0,1.29-1.31h0V76H41a1.3,1.3,0,1,0,0-2.6Z"/><path class="cls-2" d="M29.25,38.06h-.79v-.79a1.3,1.3,0,0,0-2.6,0h0V38h-.77a1.3,1.3,0,1,0,0,2.6h.79v.79a1.3,1.3,0,0,0,1.3,1.29h0a1.3,1.3,0,0,0,1.29-1.31h0v-.77h.78a1.3,1.3,0,0,0,0-2.6Z"/><path class="cls-2" d="M64.7,26.32h-.79v-.79a1.3,1.3,0,1,0-2.6,0h0v.77h-.77a1.3,1.3,0,1,0,0,2.6h.79v.79A1.3,1.3,0,0,0,62.63,31h0a1.3,1.3,0,0,0,1.29-1.31h0V28.9h.77a1.3,1.3,0,0,0,0-2.6Z"/><path class="cls-2" d="M76.35,61.72h-.79v-.79a1.3,1.3,0,0,0-1.3-1.29h0A1.3,1.3,0,0,0,73,60.95h0v.77H72.2a1.3,1.3,0,0,0,0,2.6H73v.83a1.3,1.3,0,0,0,1.3,1.29h0a1.3,1.3,0,0,0,1.29-1.31h0v-.77h.77a1.3,1.3,0,0,0,0-2.6Z"/><path class="cls-2" d="M31.73,59.09A1.3,1.3,0,0,0,30,58.46h0a1.3,1.3,0,0,0,1.11,2.36h0A1.3,1.3,0,0,0,31.73,59.09Z"/><path class="cls-2" d="M43,53.83a1.3,1.3,0,0,0-1.69-.72l-.09,0-7.48,3.49A1.3,1.3,0,1,0,34.87,59l7.48-3.49A1.3,1.3,0,0,0,43,53.83Z"/><path class="cls-2" d="M43.43,30.4h0a1.3,1.3,0,0,0-2.36,1.11h0a1.3,1.3,0,0,0,2.36-1.11Z"/><path class="cls-2" d="M48.7,41.7l-3.45-7.48a1.3,1.3,0,1,0-2.36,1.1h0l3.49,7.48a1.3,1.3,0,1,0,2.36-1.1Z"/><path class="cls-2" d="M72.14,42.1a1.3,1.3,0,0,0-1.73-.63h0a1.3,1.3,0,0,0,1.11,2.36h0A1.3,1.3,0,0,0,72.14,42.1Z"/><path class="cls-2" d="M68.3,43.89a1.3,1.3,0,0,0-1.73-.63h0l-7.48,3.49a1.3,1.3,0,1,0,1.1,2.36l7.48-3.49a1.3,1.3,0,0,0,.63-1.73Z"/></svg>