<svg id="Layer_1" data-name="Layer 1" xmlns="http://www.w3.org/2000/svg" viewBox="0 0 101.5 101.5"><defs><style>.cls-1{fill:#1fb6ff;}.cls-2{fill:#fff;}</style></defs><title>flag1</title><circle class="cls-1" cx="50.75" cy="50.75" r="50.75"/><circle class="cls-2" cx="38.05" cy="19.48" r="1.34"/><circle class="cls-2" cx="73.64" cy="42.37" r="1.34"/><circle class="cls-2" cx="47.2" cy="42.05" r="1.34"/><path class="cls-2" d="M86.59,41.83a1.34,1.34,0,0,0-1.22-.8H79.3A1.34,1.34,0,0,0,79,43.7h3.3l-8,8.73a1.34,1.34,0,0,0-.24,1.42L77.92,63H48.82l2.07-8.3H65.15a1.34,1.34,0,0,0,1.3-1l5.34-21.94a1.34,1.34,0,0,0-1.3-1.65H39.36l.5-2.07a3.71,3.71,0,0,0-.62-3.19,3.57,3.57,0,0,0-2.85-1.32,5.22,5.22,0,0,0-4.86,3.88l-.9,3.68h0L25.25,53,18.33,81.44A1.34,1.34,0,0,0,19.21,83a6.5,6.5,0,0,0,8.19-4.16q.08-.23.14-.48l5.77-23.71H48.25L45.93,64a1.34,1.34,0,0,0,1.3,1.66H80.06a1.34,1.34,0,0,0,1.23-1.86L77,53.61l9.41-10.34A1.34,1.34,0,0,0,86.59,41.83ZM34.14,28a2.55,2.55,0,0,1,2.26-1.84.93.93,0,0,1,.75.3,1.06,1.06,0,0,1,.12.91l-.66,2.71h-3ZM25,77.75a3.84,3.84,0,0,1-3.69,2.93l6.33-26h3ZM28.25,52l2.1-8.62H41.53a1.34,1.34,0,1,0,.25-2.67H31l1.94-8H68.79L64.1,52Z"/></svg>