<svg id="Layer_1" data-name="Layer 1" xmlns="http://www.w3.org/2000/svg" viewBox="0 0 139.84 101.5"><defs><style>.cls-1{fill:#1fb6ff;}.cls-2{fill:#fff;}</style></defs><title>flasks</title><circle class="cls-1" cx="50.75" cy="50.75" r="50.75"/><path class="cls-2" d="M42.1,72.62h0a1.34,1.34,0,1,0,0,2.68h0a1.34,1.34,0,1,0,0-2.68Z"/><path class="cls-2" d="M68.16,43.63A1.3,1.3,0,0,0,66.9,45v0h0V56.88a1.26,1.26,0,0,0,2.52,0h0V45a1.3,1.3,0,0,0-1.23-1.37h0Z"/><path class="cls-2" d="M68.16,39.08a1.3,1.3,0,0,0-1.26,1.34h0a1.26,1.26,0,0,0,2.52,0h0a1.3,1.3,0,0,0-1.26-1.34Z"/><path class="cls-2" d="M52,43.63a1.3,1.3,0,0,0-1.28,1.32h0V57a1.26,1.26,0,1,0,2.52,0h0V45A1.3,1.3,0,0,0,52,43.63Z"/><path class="cls-2" d="M52,39.08a1.3,1.3,0,0,0-1.26,1.34h0a1.26,1.26,0,0,0,2.52,0h0A1.3,1.3,0,0,0,52,39.08Z"/><path class="cls-2" d="M35.9,43.63A1.3,1.3,0,0,0,34.64,45v0h0V56.88a1.26,1.26,0,0,0,2.52,0h0V45a1.3,1.3,0,0,0-1.23-1.37h0Z"/><path class="cls-2" d="M35.9,39.08a1.3,1.3,0,0,0-1.26,1.34h0a1.26,1.26,0,0,0,2.52,0h0a1.3,1.3,0,0,0-1.26-1.34Z"/><path class="cls-2" d="M81.75,72.62h-2V34.06h2a1.34,1.34,0,0,0,0-2.68h-2V23.84a1.26,1.26,0,0,0-2.52,0h0v7.54h-4V28a1.34,1.34,0,0,0,0-2.68H60.63a1.34,1.34,0,0,0,0,2.68h0v3.4H57.1V28a1.34,1.34,0,1,0,0-2.68H44.5a1.34,1.34,0,0,0,0,2.68h0v3.4H41V28a1.34,1.34,0,0,0,0-2.68H28.37a1.34,1.34,0,0,0,0,2.68h0v3.4H24.31V23.86a1.26,1.26,0,0,0-2.52,0h0V31.4h-2a1.34,1.34,0,0,0,0,2.68h2V72.64h-2A1.3,1.3,0,0,0,18.53,74v0h0v7.24a1.3,1.3,0,0,0,1.26,1.34h62a1.3,1.3,0,0,0,1.26-1.34h0V74a1.3,1.3,0,0,0-1.22-1.38h-.08ZM63.12,28h7.56v3.4H63.12Zm0,6.08h7.56V63a3.79,3.79,0,1,1-7.56,0ZM47,28h7.56v3.4H47Zm0,6.08h7.56V63A3.79,3.79,0,1,1,47,63ZM30.86,28h7.56v3.4H30.86Zm0,6.08h7.56V63a3.79,3.79,0,1,1-7.56,0Zm49.63,45.8H21V75.3H37.9a1.34,1.34,0,1,0,0-2.68H24.28V34.06h4.06V63a6.31,6.31,0,1,0,12.6,0V34.1h3.53V63a6.31,6.31,0,1,0,12.6,0V34.1H60.6V63a6.31,6.31,0,1,0,12.6,0V34.1h4V72.66H46.56a1.34,1.34,0,0,0,0,2.68H80.49Z"/><circle class="cls-1" cx="129.92" cy="50.92" r="9.92"/></svg>