<svg id="Layer_1" data-name="Layer 1" xmlns="http://www.w3.org/2000/svg" viewBox="0 0 141.34 101.5"><defs><style>.cls-1{fill:#1fb6ff;}.cls-2{fill:#fff;}</style></defs><title>formula</title><circle class="cls-1" cx="50.75" cy="50.75" r="50.75"/><path class="cls-2" d="M21.75,47.85a1.34,1.34,0,0,0-1.34,1.34h0a1.34,1.34,0,0,0,2.68,0h0a1.34,1.34,0,0,0-1.34-1.34Z"/><path class="cls-2" d="M83.77,25.36h-66a1.34,1.34,0,0,0-1.34,1.34h0V76.1a1.34,1.34,0,0,0,1.34,1.34h66a1.34,1.34,0,0,0,1.34-1.34V26.7A1.34,1.34,0,0,0,83.77,25.36Zm-1.34,49.4H19.07V28H82.43Z"/><path class="cls-2" d="M67.94,55.83H65.69a3.12,3.12,0,0,1-3.12-3.12V50.09A3.12,3.12,0,0,1,65.69,47h2.25a1.34,1.34,0,0,0,0-2.68H65.69a5.81,5.81,0,0,0-5.81,5.81h0v2.62a5.81,5.81,0,0,0,5.81,5.81h2.25a1.34,1.34,0,0,0,0-2.68h0Z"/><path class="cls-2" d="M74,41.15H73a5.24,5.24,0,0,0,1.67-3.36,3.1,3.1,0,0,0-2.91-3.28h-.37a3.28,3.28,0,0,0-3.28,3.28,1.34,1.34,0,0,0,2.68,0h0a.59.59,0,0,1,.59-.59c.51,0,.59.17.59.59,0,.66-1.57,2.38-3.3,3.61a1.34,1.34,0,0,0,.78,2.44h4.5a1.34,1.34,0,0,0,0-2.68Z"/><path class="cls-2" d="M58.16,44.35a1.34,1.34,0,0,0-1.5.46l-3.28,4.34-3.29-4.36a1.34,1.34,0,0,0-2.41.81V57.15a1.34,1.34,0,1,0,2.68,0V49.61l2,2.58a1.34,1.34,0,0,0,2.14,0l2-2.58v7.54a1.34,1.34,0,0,0,2.68,0h0V45.63A1.34,1.34,0,0,0,58.16,44.35Z"/><path class="cls-2" d="M42.25,51.6H37.37a1.34,1.34,0,0,0,0,2.68h4.89a1.34,1.34,0,0,0,0-2.68h0Z"/><path class="cls-2" d="M42.25,55.83H37.37a1.34,1.34,0,0,0,0,2.68h4.89a1.34,1.34,0,0,0,0-2.68h0Z"/><path class="cls-2" d="M33.44,55.83H28.88V52.74h4.21a1.34,1.34,0,1,0,0-2.68H28.88V47h4.56a1.34,1.34,0,0,0,0-2.68H27.53a1.34,1.34,0,0,0-1.34,1.34h0V57.15a1.34,1.34,0,0,0,1.34,1.34h5.91a1.34,1.34,0,0,0,0-2.68Z"/><path class="cls-2" d="M73.13,65h0a1.34,1.34,0,1,0,0,2.68h0a1.34,1.34,0,1,0,0-2.68Z"/><path class="cls-2" d="M79.74,29.44h-58a1.34,1.34,0,0,0-1.34,1.34h0V45a1.34,1.34,0,0,0,2.68,0V32.15h55.3V65h-2a1.34,1.34,0,1,0,0,2.68h2v3H53.48v-3H69.77a1.34,1.34,0,1,0,0-2.68H52.13a1.34,1.34,0,0,0-1.34,1.34V70.7H23.09V53.58a1.34,1.34,0,0,0-2.68,0V72a1.34,1.34,0,0,0,1.34,1.34h58A1.34,1.34,0,0,0,81.09,72V30.79a1.34,1.34,0,0,0-1.33-1.35h0Z"/><circle class="cls-1" cx="131.42" cy="50.42" r="9.92"/></svg>