<svg id="Слой_1" data-name="Слой 1" xmlns="http://www.w3.org/2000/svg" viewBox="0 0 101.5 101.5"><defs><style>.cls-1{fill:#1fb6ff;}.cls-2{fill:#fff;}</style></defs><title>grouptrio</title><circle class="cls-1" cx="50.75" cy="50.75" r="50.75"/><path class="cls-2" d="M37.51,56a4.49,4.49,0,0,0-3.27-1.42H31.3a4.48,4.48,0,0,0-4.48,4.48q0,.14,0,.29l.13,2h0L27.27,66a5.52,5.52,0,0,0,11,0l.35-5.35.09-1.34A4.49,4.49,0,0,0,37.51,56Zm-8.12,3.19a1.92,1.92,0,0,1,1.84-2H33.3l-.36,1c-.18.26-1.08,1.35-3.53,1.76Zm6.33,6.69a3,3,0,0,1-5.9,0l-.23-3.45a9.09,9.09,0,0,0,4.33-1.7,4.58,4.58,0,0,0,.51.3,8.36,8.36,0,0,0,1.56.56Zm-.1-7.12-.14-.08.29-.78A1.89,1.89,0,0,1,36.16,59a3.78,3.78,0,0,1-.54-.24Z"/><path class="cls-2" d="M46.18,81.37l-.49-2.69a8.26,8.26,0,0,0-8.13-6.79H36.1a1.28,1.28,0,0,0-.91.37l-2.42,2.42-2.42-2.42a1.28,1.28,0,0,0-.91-.37H28a8.26,8.26,0,0,0-8.13,6.79l-.49,2.69a1.28,1.28,0,0,0,1,1.49l.23,0h24.3a1.28,1.28,0,0,0,1.26-1.51Zm-24-1.05.21-1.18A5.7,5.7,0,0,1,28,74.45h.94l3,3a1.28,1.28,0,0,0,1.81,0l3-3h.94a5.7,5.7,0,0,1,5.61,4.68l.21,1.18H22.18Z"/><path class="cls-2" d="M73.47,56a4.49,4.49,0,0,0-3.27-1.42H67.26a4.48,4.48,0,0,0-4.48,4.48q0,.14,0,.29l.13,2h0L63.23,66a5.52,5.52,0,0,0,11,0l.35-5.35.09-1.34A4.49,4.49,0,0,0,73.47,56Zm-8.12,3.19a1.92,1.92,0,0,1,1.84-2h2.07l-.36,1c-.18.26-1.08,1.35-3.53,1.76Zm6.33,6.69a3,3,0,0,1-5.9,0l-.23-3.45a9.09,9.09,0,0,0,4.33-1.7,4.58,4.58,0,0,0,.51.3,8.36,8.36,0,0,0,1.56.56Zm-.1-7.12-.14-.08.29-.78A1.89,1.89,0,0,1,72.12,59a3.79,3.79,0,0,1-.54-.24Z"/><path class="cls-2" d="M82.14,81.37l-.49-2.69a8.26,8.26,0,0,0-8.13-6.79H72.06a1.28,1.28,0,0,0-.91.37l-2.42,2.42-2.42-2.42a1.28,1.28,0,0,0-.91-.37H63.94a8.26,8.26,0,0,0-8.13,6.79l-.49,2.69a1.28,1.28,0,0,0,1,1.49l.23,0h24.3a1.28,1.28,0,0,0,1.26-1.51Zm-24-1.05.21-1.18A5.7,5.7,0,0,1,64,74.46h.94l3,3a1.28,1.28,0,0,0,1.81,0l3-3h.94a5.7,5.7,0,0,1,5.61,4.68l.21,1.18Z"/><path class="cls-2" d="M55.49,20a4.49,4.49,0,0,0-3.27-1.42H49.28a4.48,4.48,0,0,0-4.48,4.48q0,.14,0,.29l.13,2L45.25,30a5.52,5.52,0,0,0,11,0l.35-5.35.09-1.34A4.49,4.49,0,0,0,55.49,20Zm-8.12,3.19a1.92,1.92,0,0,1,1.84-2h2.07l-.36,1c-.18.26-1.08,1.35-3.53,1.76Zm6.33,6.69a3,3,0,0,1-5.9,0l-.23-3.45a9.09,9.09,0,0,0,4.33-1.7,4.58,4.58,0,0,0,.51.3,8.36,8.36,0,0,0,1.56.56Zm-.1-7.12-.14-.08.29-.78a1.89,1.89,0,0,1,.39,1.1,3.8,3.8,0,0,1-.54-.21Z"/><path class="cls-2" d="M64.16,45.44l-.49-2.69A8.26,8.26,0,0,0,55.55,36H54.08a1.28,1.28,0,0,0-.91.37l-2.42,2.42-2.42-2.42a1.28,1.28,0,0,0-.91-.37H46a8.26,8.26,0,0,0-8.13,6.79l-.49,2.69a1.28,1.28,0,0,0,1,1.49l.23,0H62.9a1.28,1.28,0,0,0,1.26-1.51Zm-24-1,.21-1.18A5.7,5.7,0,0,1,46,38.52h.94l3,3a1.28,1.28,0,0,0,1.81,0l3-3h.94A5.7,5.7,0,0,1,61.3,43.2l.21,1.18Z"/><path class="cls-2" d="M50.36,49.28a1.28,1.28,0,0,0-1.28,1.28v.39a1.28,1.28,0,0,0,2.56,0v-.39a1.28,1.28,0,0,0-1.28-1.28Z"/><path class="cls-2" d="M59.36,63.91l-7.71-4.45V54.67a1.28,1.28,0,0,0-2.56,0v4.79h0l-7.71,4.45a1.28,1.28,0,0,0,1.28,2.22l7.71-4.45,7.71,4.45a1.28,1.28,0,0,0,1.28-2.22Z"/></svg>