<svg id="Слой_1" data-name="Слой 1" xmlns="http://www.w3.org/2000/svg" viewBox="0 0 139.84 101.5"><defs><style>.cls-1{fill:#1fb6ff;}.cls-2{fill:#fff;}</style></defs><title>handplant</title><circle class="cls-1" cx="50.75" cy="50.75" r="50.75"/><circle class="cls-2" cx="26.98" cy="71.85" r="1.36"/><path class="cls-2" d="M78.65,30.25h-8A7.44,7.44,0,0,0,65.89,32V27.88a9.69,9.69,0,0,0-9.68-9.68H47.14a1.36,1.36,0,0,0-1.36,1.36h0v3.73A9.69,9.69,0,0,0,55.45,33h7.72V46.75H62.09a16.79,16.79,0,0,0-9.88,3.19,1.36,1.36,0,0,0,1.59,2.21A14.16,14.16,0,0,1,64.24,49.6h.18a14.21,14.21,0,0,1,10.09,7.13,1.36,1.36,0,1,0,2.38-1.32,16.93,16.93,0,0,0-11-8.29v-4.4h6.64A7.49,7.49,0,0,0,80,35.28V31.61A1.36,1.36,0,0,0,78.65,30.25Zm-15.48,0H55.46a7,7,0,0,1-7-7V20.91h7.71a7,7,0,0,1,7,7Zm14.12,5A4.76,4.76,0,0,1,72.53,40H65.89V37.73A4.76,4.76,0,0,1,70.65,33h6.64Z"/><path class="cls-2" d="M85.1,62.32a5.34,5.34,0,0,0-7-2.72h0l-8.88,4.1a1.36,1.36,0,0,0,1.14,2.47l8.87-4.09a2.61,2.61,0,1,1,2.1,4.78l-18.18,8a10.54,10.54,0,0,1-9-.2L47.5,71.35a13.25,13.25,0,0,0-11.28-.26l-.13.06-5-11.26,6.91-3a13.74,13.74,0,0,1,10.34-.33l13.38,4.91A2.41,2.41,0,0,1,60.11,66L49.76,62.5a1.36,1.36,0,0,0-.87,2.58l10.35,3.5a5.13,5.13,0,0,0,3.41-9.68L49.27,54a16.45,16.45,0,0,0-12.37.39L30,57.45a3.44,3.44,0,0,0-4.27-1.27L16.8,60.09a1.36,1.36,0,0,0-.8,1.25v24a1.36,1.36,0,0,0,2,1.21L35.32,77.8a3.45,3.45,0,0,0,1.89-4.07l.16-.07a10.54,10.54,0,0,1,9,.2L53,77.17a13.25,13.25,0,0,0,11.28.26l18.18-8a5.33,5.33,0,0,0,2.64-7.06ZM34.49,74.88a.72.72,0,0,1-.38.4H34l-15.39,7.8v-6l4-2a1.36,1.36,0,0,0-1.2-2.44l-2.8,1.46V62.22l8.12-3.56a.73.73,0,0,1,1,.3v0h0l6.4,14.49h0l.35.79A.72.72,0,0,1,34.49,74.88Z"/><circle class="cls-1" cx="129.92" cy="50.92" r="9.92"/></svg>