<svg id="Слой_1" data-name="Слой 1" xmlns="http://www.w3.org/2000/svg" viewBox="0 0 101.5 101.5"><defs><style>.cls-1{fill:#1fb6ff;}.cls-2{fill:#fff;}</style></defs><title>hands</title><circle class="cls-1" cx="50.75" cy="50.75" r="50.75"/><path class="cls-2" d="M84.09,40.85H79.42A23.33,23.33,0,0,0,80.16,35V25.11h4a1.33,1.33,0,1,0,0-2.66H79.87a3.28,3.28,0,0,0-4.38-1.53l-.08,0A3.41,3.41,0,0,0,71.72,20a3.39,3.39,0,0,0-5.81-.33,3.44,3.44,0,0,0-4.78,2.76H46.5a1.33,1.33,0,0,0-1.33,1.33h0v.47l-1.42-.39v-5.2a1.33,1.33,0,0,0-2.66,0v4.51a23.33,23.33,0,0,0-5.64-.7H25.37v-3.8a1.33,1.33,0,1,0-2.66,0v4.21a3.28,3.28,0,0,0-1.33,4.38A3.41,3.41,0,0,0,20.44,31a3.39,3.39,0,0,0-.33,5.81,3.44,3.44,0,0,0,2.6,4.76V56.27A1.33,1.33,0,0,0,24,57.6h.47l-.34,1.26H18.75a1.33,1.33,0,1,0,0,2.66h4.67a23.33,23.33,0,0,0-.74,5.81v9.93h-4a1.33,1.33,0,1,0,0,2.66H23a3.28,3.28,0,0,0,4.38,1.53l.08,0a3.41,3.41,0,0,0,3.69.94,3.39,3.39,0,0,0,5.81.33,3.44,3.44,0,0,0,4.78-2.76H56.27a1.33,1.33,0,0,0,1.33-1.33v-.47l1.42.39v5.22a1.33,1.33,0,1,0,2.66,0V79.17a23.33,23.33,0,0,0,5.64.7H77.41v3.8a1.33,1.33,0,1,0,2.66,0h0v-4.2a3.28,3.28,0,0,0,1.33-4.38,3.41,3.41,0,0,0,.94-3.69,3.39,3.39,0,0,0,.33-5.81,3.44,3.44,0,0,0-2.6-4.76V46.09a1.33,1.33,0,0,0-1.33-1.33h-.47l.34-1.26H84a1.33,1.33,0,0,0,0-2.66ZM62.37,34.17a1.33,1.33,0,0,0,1.33-1.33v-10a.79.79,0,0,1,1.57,0v3a1.33,1.33,0,1,0,2.66,0v-4.3a.73.73,0,0,1,1.46,0v4.15a1.33,1.33,0,1,0,2.66,0h0v-2.5a.76.76,0,0,1,1.52,0v2.6a1.33,1.33,0,1,0,2.66,0v-2a.63.63,0,1,1,1.26,0V34.95a20.67,20.67,0,0,1-.73,5.46l-1.17,4.26H63.7v-.5A5.46,5.46,0,0,0,63,41.43l-3.08-5.31a1.83,1.83,0,0,1-.25-.92V31.67A2.74,2.74,0,0,1,61,29.27v3.58A1.33,1.33,0,0,0,62.37,34.17Zm-39.1,4.71a.79.79,0,0,1,0-1.57h3a1.33,1.33,0,0,0,0-2.66H22a.73.73,0,0,1,0-1.46h4.15a1.33,1.33,0,0,0,0-2.66h-2.5a.76.76,0,1,1,0-1.52h2.6a1.33,1.33,0,0,0,0-2.66h-2a.63.63,0,0,1,0-1.26h11.2a20.67,20.67,0,0,1,5.46.73L45.14,27V38.87h-.6a5.46,5.46,0,0,0-2.74.74l-5.31,3.08a1.83,1.83,0,0,1-.92.25H32a2.74,2.74,0,0,1-2.4-1.41h3.58a1.33,1.33,0,0,0,0-2.66H23.27Zm17.2,29.29a1.33,1.33,0,0,0-1.33,1.33v10h0a.79.79,0,0,1-1.57,0v-3a1.33,1.33,0,0,0-2.66,0v4.3a.73.73,0,1,1-1.46,0V76.65a1.33,1.33,0,0,0-2.66,0v2.5a.76.76,0,1,1-1.52,0v-2.6a1.33,1.33,0,0,0-2.66,0v2a.63.63,0,1,1-1.26,0h0V67.3a20.67,20.67,0,0,1,.73-5.46l1.17-4.26H39.13v.6a5.46,5.46,0,0,0,.74,2.74l3.08,5.31a1.83,1.83,0,0,1,.25.92v3.53a2.74,2.74,0,0,1-1.41,2.4V69.5A1.33,1.33,0,0,0,40.47,68.17Zm15.87-9.33H46.73a1.33,1.33,0,1,0,0,2.66H55V77.23H41.8V75.91a5.41,5.41,0,0,0,4.07-5.23V67.17a4.49,4.49,0,0,0-.61-2.25l-3.08-5.31a2.8,2.8,0,0,1-.38-1.41v-.6h.62a1.33,1.33,0,0,0,1.33-1.33V47.93a1.33,1.33,0,0,0-2.66,0v7H25.37V41.55h1.48a5.41,5.41,0,0,0,5.23,4.07h3.53A4.49,4.49,0,0,0,37.86,45l5.31-3.08a2.8,2.8,0,0,1,1.41-.38h.6v.62a1.33,1.33,0,0,0,1.33,1.33h9.3a1.33,1.33,0,0,0,0-2.66h-8V25.12H61v1.32a5.41,5.41,0,0,0-4.07,5.23v3.5a4.49,4.49,0,0,0,.61,2.25l3.08,5.31A2.8,2.8,0,0,1,61,44.14v.6h-.6a1.33,1.33,0,0,0-1.33,1.33v9.42a1.33,1.33,0,1,0,2.66,0h0v-8.1H77.48V60.76H76a5.41,5.41,0,0,0-5.23-4.07H67.24A4.49,4.49,0,0,0,65,57.3l-5.31,3.08a2.8,2.8,0,0,1-1.41.38h-.6v-.59a1.33,1.33,0,0,0-1.32-1.34h0Zm23.23,4.61a.79.79,0,1,1,0,1.57h-3a1.33,1.33,0,1,0,0,2.66h4.3a.73.73,0,1,1,0,1.46H76.72a1.33,1.33,0,0,0,0,2.66h2.5a.76.76,0,0,1,0,1.52H76.62a1.33,1.33,0,1,0,0,2.66h2a.63.63,0,0,1,0,1.26H67.42A20.67,20.67,0,0,1,62,76.51L57.7,75.34V63.45h.6A5.46,5.46,0,0,0,61,62.71l5.31-3.08a1.83,1.83,0,0,1,.92-.25H70.8a2.74,2.74,0,0,1,2.4,1.41H69.62a1.33,1.33,0,1,0,0,2.66h10Z"/><circle class="cls-2" cx="37.97" cy="51.98" r="1.33"/><circle class="cls-2" cx="37.97" cy="47.56" r="1.33"/><circle class="cls-2" cx="52.32" cy="64.43" r="1.33"/><circle class="cls-2" cx="47.89" cy="64.43" r="1.33"/><circle class="cls-2" cx="64.86" cy="50.11" r="1.33"/><circle class="cls-2" cx="64.86" cy="54.53" r="1.33"/><circle class="cls-2" cx="50.72" cy="38.33" r="1.33"/><circle class="cls-2" cx="55.15" cy="38.33" r="1.33"/></svg>