<svg id="Слой_1" data-name="Слой 1" xmlns="http://www.w3.org/2000/svg" viewBox="0 0 101.5 101.5"><defs><style>.cls-1{fill:#1fb6ff;}.cls-2{fill:#fff;}</style></defs><title>head1</title><circle class="cls-1" cx="50.75" cy="50.75" r="50.75"/><path class="cls-2" d="M80.84,52.33,76,43.44V37.35a26.28,26.28,0,0,0-52.55,0v4.51A27,27,0,0,0,28.3,57.4V70.33a1.57,1.57,0,1,0,3.13,0V56.9a1.57,1.57,0,0,0-.3-.92,23.88,23.88,0,0,1-4.58-14.12V37.35a23.15,23.15,0,0,1,46.29,0v6.49a1.57,1.57,0,0,0,.19.75l5.06,9.24a1.54,1.54,0,0,1-1.35,2.28H74.42a1.57,1.57,0,0,0-1.57,1.57h0v7a6.78,6.78,0,0,1-6.77,6.77h-4.7a3.87,3.87,0,0,0-3.87,3.87h0v12L36.22,77.75a1.57,1.57,0,0,0-1.28,2.86L58.42,91.17a1.57,1.57,0,0,0,2.21-1.43V75.31a.74.74,0,0,1,.74-.74h4.7A9.92,9.92,0,0,0,76,64.66h0V59.24h.76a4.68,4.68,0,0,0,4.1-6.92Z"/><path class="cls-2" d="M65,31.94h0l-1-.12-.21-.51.66-.83a3.76,3.76,0,0,0-.07-5l-2.75-2.75a3.76,3.76,0,0,0-5-.07l-.83.66-.51-.21-.12-1a3.76,3.76,0,0,0-3.57-3.47H47.68a3.76,3.76,0,0,0-3.57,3.47l-.11,1-.51.21-.83-.66a3.76,3.76,0,0,0-5,.07L34.9,25.48a3.76,3.76,0,0,0-.07,5l.66.83-.21.51-1,.12a3.76,3.76,0,0,0-3.47,3.57v3.88A3.76,3.76,0,0,0,34.23,43l1,.12.21.51-.66.83a3.76,3.76,0,0,0,.07,5l2.75,2.75a3.76,3.76,0,0,0,5,.07l.83-.66.51.21.12,1a3.76,3.76,0,0,0,3.57,3.47h3.88a3.76,3.76,0,0,0,3.57-3.47l.12-1,.51-.21.83.66a3.76,3.76,0,0,0,5-.07l2.75-2.75a3.76,3.76,0,0,0,.07-5l-.66-.83.21-.51L65,43a3.76,3.76,0,0,0,3.47-3.57V35.51A3.76,3.76,0,0,0,65,31.94Zm.33,7.45c0,.16-.27.41-.7.46l-2,.24a1.57,1.57,0,0,0-1.31,1.08,12.22,12.22,0,0,1-.79,1.91,1.57,1.57,0,0,0,.16,1.69L62,46.36c.27.34.28.71.17.82l-2.75,2.75c-.11.11-.48.1-.82-.17L57,48.5a1.57,1.57,0,0,0-1.69-.16,12.22,12.22,0,0,1-1.91.79,1.57,1.57,0,0,0-1.08,1.31l-.24,2a.66.66,0,0,1-.46.7H47.7c-.16,0-.41-.27-.46-.7l-.24-2a1.57,1.57,0,0,0-1.08-1.31A12.22,12.22,0,0,1,44,48.34a1.57,1.57,0,0,0-1.69.16l-1.6,1.26c-.34.27-.71.28-.82.17l-2.76-2.76c-.11-.11-.1-.48.17-.82l1.26-1.6a1.57,1.57,0,0,0,.16-1.69,12.21,12.21,0,0,1-.79-1.91,1.57,1.57,0,0,0-1.31-1.08l-2-.24a.66.66,0,0,1-.7-.46V35.49c0-.16.27-.41.7-.46l2-.24a1.57,1.57,0,0,0,1.31-1.08,12.22,12.22,0,0,1,.79-1.91,1.57,1.57,0,0,0-.16-1.69l-1.26-1.6c-.27-.34-.28-.71-.17-.82l2.75-2.75c.11-.11.48-.1.82.17l1.6,1.26a1.57,1.57,0,0,0,1.69.16,12.2,12.2,0,0,1,1.91-.79A1.57,1.57,0,0,0,47,24.43l.24-2a.66.66,0,0,1,.46-.7h3.88c.16,0,.41.27.46.7l.24,2a1.57,1.57,0,0,0,1.08,1.31,12.22,12.22,0,0,1,1.91.79A1.57,1.57,0,0,0,57,26.37l1.6-1.26c.34-.27.71-.28.82-.17l2.75,2.75c.11.11.1.48-.17.82l-1.26,1.6a1.57,1.57,0,0,0-.16,1.69,12.22,12.22,0,0,1,.79,1.91,1.57,1.57,0,0,0,1.31,1.08l2,.24a.66.66,0,0,1,.7.46v3.9Z"/><path class="cls-2" d="M49.63,29.53a7.92,7.92,0,1,0,7.92,7.92h0A7.93,7.93,0,0,0,49.63,29.53Zm0,12.72a4.79,4.79,0,1,1,4.79-4.79h0A4.8,4.8,0,0,1,49.63,42.25Z"/><circle class="cls-2" cx="30" cy="76.46" r="1.57"/></svg>