<svg id="Слой_1" data-name="Слой 1" xmlns="http://www.w3.org/2000/svg" viewBox="0 0 139.84 101.5"><defs><style>.cls-1{fill:#1fb6ff;}.cls-2{fill:#fff;}</style></defs><title>heart</title><circle class="cls-1" cx="50.75" cy="50.75" r="50.75"/><path class="cls-2" d="M82.74,72a19.53,19.53,0,0,1-7.15-4.57q-.35-.35-.69-.72A33,33,0,1,0,63,74.86a23.06,23.06,0,0,0,10.15,2.36,22.81,22.81,0,0,0,9.68-2.13A1.65,1.65,0,0,0,82.74,72Zm-9.55,1.88a19.72,19.72,0,0,1-9.3-2.33,1.65,1.65,0,0,0-1.43-.06,29.82,29.82,0,1,1,9.06-6.05,1.65,1.65,0,0,0-.15,2.2,23.31,23.31,0,0,0,1.89,2.13,23,23,0,0,0,4.59,3.56,19.68,19.68,0,0,1-4.66.58Z"/><path class="cls-2" d="M50.75,59.57a1.65,1.65,0,0,0,1.17-.48l11-11h0A9.42,9.42,0,0,0,50.75,33.77,9.42,9.42,0,0,0,38.59,48.09h0l11,11A1.65,1.65,0,0,0,50.75,59.57ZM40.93,45.76a6.12,6.12,0,0,1,8.36-8.94l.29.29a1.65,1.65,0,0,0,2.33,0h0a6.12,6.12,0,0,1,8.65,8.65h0l-9.81,9.81-9.81-9.81Z"/><path class="cls-2" d="M75.16,48.87a1.65,1.65,0,0,0-2,1.18A23.16,23.16,0,0,1,50.75,67.29a1.65,1.65,0,1,0,0,3.31A26.47,26.47,0,0,0,76.34,50.9a1.65,1.65,0,0,0-1.16-2Z"/><path class="cls-2" d="M75.47,46.85h.07a1.65,1.65,0,0,0,1.65-1.58V44.14a1.65,1.65,0,0,0-3.31,0h0v1a1.65,1.65,0,0,0,1.59,1.71Z"/><path class="cls-2" d="M52.4,19.32a1.65,1.65,0,0,0-1.65-1.65h0a26.47,26.47,0,0,0-25.59,19.7,1.65,1.65,0,0,0,3.2.84A23.16,23.16,0,0,1,50.75,21a1.65,1.65,0,0,0,1.65-1.65h0Z"/><path class="cls-2" d="M26,41.42A1.66,1.66,0,0,0,24.31,43v1.13a1.65,1.65,0,0,0,3.31,0v-1A1.65,1.65,0,0,0,26,41.42Z"/><path class="cls-2" d="M67.29,87.14H34.21a1.65,1.65,0,0,0,0,3.31H67.29a1.65,1.65,0,0,0,0-3.31Z"/><circle class="cls-1" cx="129.92" cy="50.92" r="9.92"/></svg>