<svg id="Capa_1" data-name="Capa 1" xmlns="http://www.w3.org/2000/svg" viewBox="0 0 101.5 101.5"><defs><style>.cls-1{fill:#1fb6ff;}.cls-2{fill:#fff;}</style></defs><title>house</title><circle class="cls-1" cx="50.75" cy="50.75" r="50.75"/><path class="cls-2" d="M31.23,61.28V72a1.34,1.34,0,0,0,1.34,1.34h10.7A1.34,1.34,0,0,0,44.61,72V61.28a1.34,1.34,0,0,0-1.34-1.34H32.57a1.34,1.34,0,0,0-1.34,1.34Zm8,1.34h2.68V65.3H39.26V62.62Zm0,5.35h2.68v2.68H39.26V68ZM33.9,62.62h2.68V65.3H33.9Zm0,5.35h2.68v2.68H33.9Z"/><path class="cls-2" d="M83.66,46.48H64.92v-12l.82.48a1.34,1.34,0,0,0,1.34-2.32L47,21.09a1.34,1.34,0,0,0-1.34,0L25.59,32.68a1.34,1.34,0,0,0,1.18,2.41l.15-.09.82-.48V52.14L17.17,58.25a1.34,1.34,0,0,0,1.34,2.32l.82-.48V79.26a1.34,1.34,0,0,0,1.34,1.34H80.83a1.34,1.34,0,0,0,1.34-1.34V60.75h1.49A1.34,1.34,0,0,0,85,59.41h0V47.81A1.34,1.34,0,0,0,83.66,46.48ZM68.95,49.15H74.3v8.92H68.95Zm-2.68,0v8.92H60.92V49.15ZM30.42,43h4.15a1.34,1.34,0,1,0,0-2.68H30.42V33l15.91-9.19L62.25,33V46.5H37.46l-.15.07h0l-6.89,4Zm19.79,6.1v4.22L42.9,49.1Zm3.61,28.77H22V58.55l15.91-9.19,15.91,9.19Zm-.94-23V49.15h5.35V58Zm26.6,23h-23V75.28h23Zm0-5.31h-23V60.09l.82.48h0l.15.07H79.39v2.54H74A1.41,1.41,0,1,0,74,66h5.49ZM82.31,58H77V49.15h5.35Z"/><path class="cls-2" d="M43.32,43h6a1.34,1.34,0,0,0,1.34-1.34h0V34a1.34,1.34,0,0,0-1.34-1.34h-6A1.34,1.34,0,0,0,42,34v7.73A1.34,1.34,0,0,0,43.32,43Zm1.34-7.73H48v5.06H44.66Z"/><path class="cls-2" d="M70.16,63.28h0a1.34,1.34,0,0,0,0,2.68h0a1.34,1.34,0,0,0,0-2.68Z"/><path class="cls-2" d="M38.42,43h0a1.34,1.34,0,0,0,0-2.68h0a1.34,1.34,0,0,0,0,2.68Z"/></svg>