<svg id="Слой_1" data-name="Слой 1" xmlns="http://www.w3.org/2000/svg" viewBox="0 0 202.6 148.12"><defs><style>.cls-1{font-size:100px;fill:#dbdbdb;font-family:Poppins-Bold, Poppins;font-weight:700;}.cls-2{fill:#1fb6ff;}.cls-3{fill:#fff;}</style></defs><title>icon-one</title><text class="cls-1" transform="translate(0 95.62)">1</text><circle class="cls-2" cx="145.35" cy="57.25" r="57.25"/><path class="cls-3" d="M217.74,231.26a8.46,8.46,0,0,0-1.94-11,8.46,8.46,0,0,0-5.59-9.69,8.46,8.46,0,0,0-8.57-7.19,8.45,8.45,0,0,0-10.51-3.83,8.46,8.46,0,0,0-11.19,0,8.46,8.46,0,0,0-10.51,3.83,8.46,8.46,0,0,0-8.57,7.19,8.46,8.46,0,0,0-5.6,9.69,8.46,8.46,0,0,0-1.94,11,8.46,8.46,0,0,0,1.94,11,8.46,8.46,0,0,0,5.59,9.69,8.46,8.46,0,0,0,8.57,7.19A8.45,8.45,0,0,0,179.92,263a8.43,8.43,0,0,0,5.6,2.11h0a8.43,8.43,0,0,0,5.59-2.11,8.46,8.46,0,0,0,10.51-3.83A8.46,8.46,0,0,0,210.2,252a8.46,8.46,0,0,0,5.59-9.69,8.46,8.46,0,0,0,1.94-11Zm-2.22,5.29A5.06,5.06,0,0,1,213,240.1a1.69,1.69,0,0,0-.75,2.07,5.08,5.08,0,0,1-3.92,6.8,1.69,1.69,0,0,0-1.42,1.69,5.08,5.08,0,0,1-5.07,5.13,5.13,5.13,0,0,1-.94-.09,1.69,1.69,0,0,0-1.91,1.1,5.08,5.08,0,0,1-7.38,2.68,1.69,1.69,0,0,0-2.17.38,5.08,5.08,0,0,1-7.85,0,1.69,1.69,0,0,0-2.17-.38A5.08,5.08,0,0,1,172,256.8a1.69,1.69,0,0,0-1.91-1.1,5.08,5.08,0,0,1-6-5,1.69,1.69,0,0,0-1.42-1.69,5.08,5.08,0,0,1-3.93-6.8,1.69,1.69,0,0,0-.75-2.07,5.08,5.08,0,0,1-1.36-7.73,1.69,1.69,0,0,0,0-2.2,5.08,5.08,0,0,1,1.36-7.73,1.69,1.69,0,0,0,.75-2.07,5.08,5.08,0,0,1,3.93-6.8,1.69,1.69,0,0,0,1.42-1.69,5.08,5.08,0,0,1,5.07-5.13,5.14,5.14,0,0,1,.94.09,1.69,1.69,0,0,0,1.91-1.1,5.08,5.08,0,0,1,7.38-2.68,1.69,1.69,0,0,0,2.17-.38,5.08,5.08,0,0,1,7.85,0,1.69,1.69,0,0,0,2.17.38,5.08,5.08,0,0,1,7.38,2.68,1.69,1.69,0,0,0,1.91,1.1,5.08,5.08,0,0,1,4.2,1.1,5.06,5.06,0,0,1,1.81,3.95,1.69,1.69,0,0,0,1.42,1.69,5.08,5.08,0,0,1,3.93,6.8,1.69,1.69,0,0,0,.75,2.07,5.08,5.08,0,0,1,1.36,7.73,1.69,1.69,0,0,0,0,2.2A5.06,5.06,0,0,1,215.51,236.55Z" transform="translate(-40.4 -180.5)"/><path class="cls-3" d="M192.36,210.36a1.69,1.69,0,0,0,1.05-3.22,25.38,25.38,0,0,0-33.24,22.74,1.69,1.69,0,0,0,1.6,1.78h.09a1.69,1.69,0,0,0,1.69-1.6,22,22,0,0,1,28.81-19.71Z" transform="translate(-40.4 -180.5)"/><path class="cls-3" d="M209.27,230.86a1.69,1.69,0,0,0-1.78,1.6,22,22,0,0,1-28.81,19.71,1.69,1.69,0,1,0-1.05,3.22,25.38,25.38,0,0,0,33.24-22.74A1.69,1.69,0,0,0,209.27,230.86Z" transform="translate(-40.4 -180.5)"/><path class="cls-3" d="M163.93,235.48a1.69,1.69,0,0,0-3.32.65c.09.47.2.95.32,1.42a1.69,1.69,0,0,0,3.28-.84C164.1,236.3,164,235.88,163.93,235.48Z" transform="translate(-40.4 -180.5)"/><path class="cls-3" d="M207.11,227a1.69,1.69,0,0,0,3.32-.65c-.09-.47-.2-.95-.32-1.42a1.69,1.69,0,1,0-3.28.84C206.94,226.23,207,226.64,207.11,227Z" transform="translate(-40.4 -180.5)"/><path class="cls-3" d="M202.44,275.26H168.6a1.69,1.69,0,1,0,0,3.38h33.84a1.69,1.69,0,1,0,0-3.38Z" transform="translate(-40.4 -180.5)"/><path class="cls-3" d="M176.55,242.15a1.69,1.69,0,0,0,2.52,1.83l6.45-3.85L192,244a1.69,1.69,0,0,0,2.52-1.83l-1.67-7.33,5.65-4.95a1.69,1.69,0,0,0-1-3l-7.48-.68-3-6.91a1.69,1.69,0,0,0-3.11,0l-3,6.91-7.48.68a1.69,1.69,0,0,0-1,3l5.65,4.95Zm1.21-12.22,4.55-.41a1.69,1.69,0,0,0,1.4-1l1.8-4.2,1.8,4.2a1.69,1.69,0,0,0,1.4,1l4.55.41-3.44,3a1.69,1.69,0,0,0-.54,1.65l1,4.46-3.93-2.34a1.69,1.69,0,0,0-1.73,0l-3.93,2.34,1-4.46a1.69,1.69,0,0,0-.54-1.65Z" transform="translate(-40.4 -180.5)"/></svg>