<svg id="Слой_1" data-name="Слой 1" xmlns="http://www.w3.org/2000/svg" viewBox="0 0 202.6 148.12"><defs><style>.cls-1{font-size:100px;fill:#dbdbdb;font-family:Poppins-Bold, Poppins;font-weight:700;}.cls-2{fill:#1fb6ff;}.cls-3{fill:#fff;}</style></defs><title>icon-seven</title><text class="cls-1" transform="translate(0 95.62)">7</text><circle class="cls-2" cx="145.35" cy="57.25" r="57.25"/><path class="cls-3" d="M186,248.75a16,16,0,0,0-10.06,28.41,1.63,1.63,0,0,0,.22.18,16,16,0,0,0,19.67,0,1.62,1.62,0,0,0,.22-.18A16,16,0,0,0,186,248.75Zm0,28.7a12.63,12.63,0,0,1-7-2.12,7.6,7.6,0,0,1,14,0A12.63,12.63,0,0,1,186,277.45Zm-2.89-12.71a2.61,2.61,0,1,1,2.61,2.61A2.62,2.62,0,0,1,183.11,264.74Zm12.48,8.33a10.78,10.78,0,0,0-5.16-4.78,5.89,5.89,0,1,0-9.25.19,10.76,10.76,0,0,0-4.76,4.59,12.71,12.71,0,1,1,19.18,0Z" transform="translate(-40.4 -180.5)"/><path class="cls-3" d="M160,201.27a16,16,0,0,0-10.06,28.41,1.64,1.64,0,0,0,.22.18,16,16,0,0,0,19.67,0,1.62,1.62,0,0,0,.22-.18A16,16,0,0,0,160,201.27Zm0,28.7a12.64,12.64,0,0,1-7-2.12,7.6,7.6,0,0,1,14,0A12.63,12.63,0,0,1,160,230Zm-2.89-12.71a2.61,2.61,0,1,1,2.61,2.61A2.62,2.62,0,0,1,157.1,217.26Zm12.48,8.33a10.78,10.78,0,0,0-5.16-4.78,5.9,5.9,0,1,0-9.25.19,10.76,10.76,0,0,0-4.76,4.59,12.71,12.71,0,1,1,19.18,0Z" transform="translate(-40.4 -180.5)"/><path class="cls-3" d="M212,201.27A16,16,0,0,0,202,229.68a1.63,1.63,0,0,0,.22.18,16,16,0,0,0,19.67,0,1.64,1.64,0,0,0,.22-.18A16,16,0,0,0,212,201.27Zm0,28.7a12.64,12.64,0,0,1-7-2.12,7.6,7.6,0,0,1,14,0A12.63,12.63,0,0,1,212,230Zm-2.89-12.71a2.61,2.61,0,1,1,2.61,2.61A2.62,2.62,0,0,1,209.12,217.26Zm12.48,8.33a10.78,10.78,0,0,0-5.16-4.78,5.9,5.9,0,1,0-9.25.19,10.76,10.76,0,0,0-4.76,4.59,12.71,12.71,0,1,1,19.18,0Z" transform="translate(-40.4 -180.5)"/><path class="cls-3" d="M167.13,257.31l0,0a1.64,1.64,0,0,0-2.13,2.49l0,0a1.64,1.64,0,0,0,2.13-2.49Z" transform="translate(-40.4 -180.5)"/><path class="cls-3" d="M163.93,254l0,0a1.64,1.64,0,0,0-2.51,2.11h0a1.64,1.64,0,0,0,2.53-2.09Z" transform="translate(-40.4 -180.5)"/><path class="cls-3" d="M161.27,250.26l0,0a1.64,1.64,0,0,0-2.81,1.69h0a1.64,1.64,0,0,0,2.83-1.66Z" transform="translate(-40.4 -180.5)"/><path class="cls-3" d="M157.87,241.71a1.64,1.64,0,0,0-3.21.69v0a1.64,1.64,0,0,0,3.2-.72Z" transform="translate(-40.4 -180.5)"/><path class="cls-3" d="M159.23,246.12v0a1.64,1.64,0,0,0-3,1.23h0a1.64,1.64,0,1,0,3-1.21Z" transform="translate(-40.4 -180.5)"/><path class="cls-3" d="M207.2,257.49a1.64,1.64,0,0,0-2.31-.19l0,0a1.64,1.64,0,0,0,2.13,2.49l0,0A1.64,1.64,0,0,0,207.2,257.49Z" transform="translate(-40.4 -180.5)"/><path class="cls-3" d="M214.92,245.18a1.64,1.64,0,0,0-2.14.91v0a1.64,1.64,0,0,0,1.52,2.24,1.65,1.65,0,0,0,.62-3.17Z" transform="translate(-40.4 -180.5)"/><path class="cls-3" d="M210.4,253.8a1.64,1.64,0,0,0-2.31.2l0,0a1.64,1.64,0,0,0,1.26,2.68,1.64,1.64,0,0,0,1.07-2.9Z" transform="translate(-40.4 -180.5)"/><path class="cls-3" d="M216.09,240.45a1.64,1.64,0,0,0-2,1.25h0a1.64,1.64,0,1,0,3.2.73v0A1.64,1.64,0,0,0,216.09,240.45Z" transform="translate(-40.4 -180.5)"/><path class="cls-3" d="M213,249.67a1.64,1.64,0,0,0-2.25.56l0,0a1.64,1.64,0,1,0,2.27-.59Z" transform="translate(-40.4 -180.5)"/><path class="cls-3" d="M216.51,235.6a1.64,1.64,0,0,0-1.73,1.55h0a1.64,1.64,0,0,0,1.55,1.72h.09a1.64,1.64,0,0,0,.09-3.28Z" transform="translate(-40.4 -180.5)"/><path class="cls-3" d="M196.21,204.24h0a1.64,1.64,0,1,0-1,3.12h0a1.64,1.64,0,1,0,1-3.12Z" transform="translate(-40.4 -180.5)"/><path class="cls-3" d="M191.17,203.05h0a1.64,1.64,0,1,0-.49,3.24l.27,0a1.64,1.64,0,0,0,.26-3.26Z" transform="translate(-40.4 -180.5)"/><path class="cls-3" d="M186,202.68h0a1.64,1.64,0,0,0,0,3.28h0a1.64,1.64,0,0,0,0-3.28Z" transform="translate(-40.4 -180.5)"/><path class="cls-3" d="M177.81,205.34a1.64,1.64,0,0,0-2-1.09h0a1.64,1.64,0,1,0,2.07,1.09Z" transform="translate(-40.4 -180.5)"/><path class="cls-3" d="M182.69,204.49a1.64,1.64,0,0,0-1.88-1.36l.24,1.62-.24-1.62a1.64,1.64,0,0,0,.24,3.26l.24,0h0A1.64,1.64,0,0,0,182.69,204.49Z" transform="translate(-40.4 -180.5)"/><path class="cls-3" d="M157.18,236.79a1.64,1.64,0,0,0-3.21.69v0a1.64,1.64,0,0,0,3.2-.72Z" transform="translate(-40.4 -180.5)"/></svg>