<svg id="Слой_1" data-name="Слой 1" xmlns="http://www.w3.org/2000/svg" viewBox="0 0 202.6 148.12"><defs><style>.cls-1{font-size:100px;fill:#dbdbdb;font-family:Poppins-Bold, Poppins;font-weight:700;}.cls-2{fill:#1fb6ff;}.cls-3{fill:#fff;}</style></defs><title>icon-four</title><text class="cls-1" transform="translate(0 95.62)">4</text><circle class="cls-2" cx="145.35" cy="57.25" r="57.25"/><path class="cls-3" d="M220.75,218.81a1.39,1.39,0,0,0-1.13-.59H196.69a1.39,1.39,0,0,0-1.27.84l-4.89,11.38h-10l-4.89-11.38a1.39,1.39,0,0,0-1.27-.84H151.39a1.39,1.39,0,0,0-1.31,1.86l4.26,11.86v38.29a1.39,1.39,0,0,0,1.39,1.39h59.5a1.39,1.39,0,0,0,1.39-1.39V232.06l4.31-12A1.39,1.39,0,0,0,220.75,218.81ZM153.36,221h20l4.06,9.44H156.75Zm60.48,47.84h-21V245a1.39,1.39,0,1,0-2.77,0v23.78H157.11V233.21h56.72Zm.41-38.4H193.54L197.6,221h20Z" transform="translate(-40.4 -180.5)"/><path class="cls-3" d="M185.63,202.39a1.39,1.39,0,0,0-1.39,1.39v6.95a1.39,1.39,0,0,0,2.77,0v-6.95A1.39,1.39,0,0,0,185.63,202.39Z" transform="translate(-40.4 -180.5)"/><path class="cls-3" d="M197.94,207.74a1.39,1.39,0,0,0-2,0l-4.91,4.91a1.39,1.39,0,0,0,2,2l4.91-4.91A1.39,1.39,0,0,0,197.94,207.74Z" transform="translate(-40.4 -180.5)"/><path class="cls-3" d="M179.93,212.65,175,207.74a1.39,1.39,0,0,0-2,2l4.91,4.91a1.39,1.39,0,0,0,2-2Z" transform="translate(-40.4 -180.5)"/><circle class="cls-3" cx="151.04" cy="57.98" r="1.39"/></svg>