<svg id="Слой_1" data-name="Слой 1" xmlns="http://www.w3.org/2000/svg" viewBox="0 0 202.6 148.12"><defs><style>.cls-1{font-size:100px;fill:#dbdbdb;font-family:Poppins-Bold, Poppins;font-weight:700;}.cls-2{fill:#1fb6ff;}.cls-3{fill:#fff;}</style></defs><title>icon-two</title><text class="cls-1" transform="translate(0 95.62)">2</text><circle class="cls-2" cx="145.35" cy="57.25" r="57.25"/><path class="cls-3" d="M171.19,265.07H158.24a1.46,1.46,0,0,0-1.46,1.46v7.28a1.46,1.46,0,0,0,1.46,1.46h12.95a1.46,1.46,0,0,0,1.46-1.46v-7.28A1.46,1.46,0,0,0,171.19,265.07Zm-1.46,7.28h-10V268h10Z" transform="translate(-40.4 -180.5)"/><path class="cls-3" d="M192.12,265.07H179.17a1.46,1.46,0,0,0-1.46,1.46v7.28a1.46,1.46,0,0,0,1.46,1.46h12.95a1.46,1.46,0,0,0,1.46-1.46v-7.28A1.46,1.46,0,0,0,192.12,265.07Zm-1.46,7.28h-10V268h10Z" transform="translate(-40.4 -180.5)"/><path class="cls-3" d="M213.05,265.07H200.11a1.46,1.46,0,0,0-1.46,1.46v7.28a1.46,1.46,0,0,0,1.46,1.46h12.95a1.46,1.46,0,0,0,1.46-1.46v-7.28A1.46,1.46,0,0,0,213.05,265.07Zm-1.46,7.28h-10V268h10Z" transform="translate(-40.4 -180.5)"/><path class="cls-3" d="M177.37,256.26a1.52,1.52,0,0,0-.08-.27,1.47,1.47,0,0,0-.13-.25,1.49,1.49,0,0,0-.18-.22,1.47,1.47,0,0,0-1.31-.4l-.27.08a1.44,1.44,0,0,0-.25.13,1.49,1.49,0,0,0-.22.18,1.39,1.39,0,0,0-.18.22,1.48,1.48,0,0,0-.13.25,1.52,1.52,0,0,0-.08.27,1.43,1.43,0,0,0,0,.28,1.47,1.47,0,0,0,.43,1,1.39,1.39,0,0,0,.22.18,1.44,1.44,0,0,0,.25.13l.27.08.28,0a1.46,1.46,0,0,0,1.46-1.46A1.43,1.43,0,0,0,177.37,256.26Z" transform="translate(-40.4 -180.5)"/><path class="cls-3" d="M213.54,200.75H157.75a1.46,1.46,0,0,0-1.46,1.46V261a1.46,1.46,0,0,0,1.46,1.46h55.79A1.46,1.46,0,0,0,215,261V202.2A1.46,1.46,0,0,0,213.54,200.75Zm-54.34,16.51.15.1.06,0,.26.17.07,0,.2.12.09,0,.19.1.09,0,.24.11,0,0,.29.12.08,0,.22.08.1,0,.21.06.1,0,.28.06h0l.32.06h.09l.23,0h.11l.23,0h.43a7,7,0,0,0,5.58-2.75,7,7,0,0,0,5.58,2.75h.5l.25,0h.14l.33,0v5.45a13.38,13.38,0,0,1-13.37,13.37h-3.13Zm9,42.29h-9V240.3c7.81.92,8.89,9.24,9,12.74,0,.21,0,.42,0,.63v5.87Zm32-5.87v1.42H181.89a1.46,1.46,0,1,0,0,2.91h18.29v1.54H171.12v-6h29.06Zm.17-3h-29.4a17.59,17.59,0,0,0-3-8.34,12.08,12.08,0,0,0-2.3-2.41,16.31,16.31,0,0,0,13-15.94v-6.69a7.09,7.09,0,0,0,1.46-1.41,7,7,0,0,0,11.16,0,7.1,7.1,0,0,0,1.46,1.41v6.69a16.31,16.31,0,0,0,13,15.94,12.09,12.09,0,0,0-2.3,2.41A17.58,17.58,0,0,0,200.35,250.63Zm11.74,8.9h-9v-5.87c0-.21,0-.42,0-.63.1-3.5,1.18-11.82,9-12.74Zm0-22.23H209a13.38,13.38,0,0,1-13.37-13.37v-5.45l.33,0h.14l.25,0h.5a7,7,0,0,0,5.58-2.75,7,7,0,0,0,5.58,2.75h.43l.23,0h.11l.23,0h.09l.32-.06h0l.28-.06.1,0,.21-.06.1,0,.22-.08.08,0,.29-.12,0,0,.24-.11.09,0,.19-.1.09,0,.21-.12.06,0,.26-.17.06,0,.15-.1v20.05Zm0-25.75a4.12,4.12,0,0,1-8.25,0,1.46,1.46,0,0,0-2.91,0,4.13,4.13,0,0,1-4.12,4.12h-.3l-.18,0h-.07l-.18,0H196l-.22,0h0l-.22-.06-.09,0-.12,0-.11,0-.08,0-.13-.06h0a4.13,4.13,0,0,1-2.33-3.71,1.46,1.46,0,1,0-2.91,0,4.12,4.12,0,0,1-8.25,0,1.46,1.46,0,1,0-2.91,0,4.13,4.13,0,0,1-2.33,3.71h0l-.13.06-.08,0-.11,0-.13,0-.08,0-.22.06h0l-.22,0h-.06l-.18,0H175l-.18,0h-.3a4.13,4.13,0,0,1-4.12-4.12,1.46,1.46,0,1,0-2.91,0,4.12,4.12,0,0,1-8.25,0v-2.91h42a1.46,1.46,0,0,0,0-2.91h-42v-2.08h52.88v7.9Z" transform="translate(-40.4 -180.5)"/><path class="cls-3" d="M208.22,206.16A1.46,1.46,0,0,0,208,206a1.55,1.55,0,0,0-.25-.13l-.27-.08a1.44,1.44,0,0,0-.57,0l-.27.08a1.47,1.47,0,0,0-.47.31,1.45,1.45,0,0,0-.4,1.31,1.57,1.57,0,0,0,.08.27,1.48,1.48,0,0,0,.13.25,1.38,1.38,0,0,0,.18.22,1.65,1.65,0,0,0,.22.18,1.55,1.55,0,0,0,.25.13l.27.08.29,0,.28,0,.27-.08a1.54,1.54,0,0,0,.25-.13,1.57,1.57,0,0,0,.22-.18,1.39,1.39,0,0,0,.18-.22,1.49,1.49,0,0,0,.13-.25,1.54,1.54,0,0,0,.08-.27,1.45,1.45,0,0,0,0-.29A1.47,1.47,0,0,0,208.22,206.16Z" transform="translate(-40.4 -180.5)"/></svg>