<svg id="Слой_1" data-name="Слой 1" xmlns="http://www.w3.org/2000/svg" viewBox="0 0 202.6 148.12"><defs><style>.cls-1{font-size:100px;fill:#dbdbdb;font-family:Poppins-Bold, Poppins;font-weight:700;}.cls-2{fill:#1fb6ff;}.cls-3{fill:#fff;}</style></defs><title>icon-nine</title><text class="cls-1" transform="translate(0 95.62)">9</text><circle class="cls-2" cx="145.35" cy="57.25" r="57.25"/><path class="cls-3" d="M214.6,247.45a1.58,1.58,0,0,0-.09-.29,1.54,1.54,0,0,0-.14-.27,1.51,1.51,0,0,0-.43-.43,1.55,1.55,0,0,0-.27-.14,1.58,1.58,0,0,0-.29-.09,1.54,1.54,0,0,0-.61,0,1.58,1.58,0,0,0-.29.09,1.55,1.55,0,0,0-.27.14,1.49,1.49,0,0,0-.24.19,1.6,1.6,0,0,0-.2.24,1.55,1.55,0,0,0-.14.27,1.59,1.59,0,0,0-.09.29,1.54,1.54,0,0,0,0,.3,1.58,1.58,0,0,0,0,.31,1.67,1.67,0,0,0,.09.29,1.56,1.56,0,0,0,.58.7,1.55,1.55,0,0,0,.27.14,1.58,1.58,0,0,0,.29.09,1.58,1.58,0,0,0,.61,0,1.58,1.58,0,0,0,.29-.09,1.55,1.55,0,0,0,.27-.14,1.61,1.61,0,0,0,.24-.2,1.49,1.49,0,0,0,.19-.24,1.59,1.59,0,0,0,.14-.27,1.66,1.66,0,0,0,.09-.29,1.59,1.59,0,0,0,0-.61Z" transform="translate(-40.4 -180.5)"/><path class="cls-3" d="M225.54,254.4a1.56,1.56,0,0,0-1.69-.35s-5,2-8.35,2c-.84,0-2.56-1.4-4.23-2.75-3.62-2.94-8.58-7-15.44-7h-.36a11.19,11.19,0,0,0-9.18,5.22l-.3.49-.3-.49a11.19,11.19,0,0,0-9.18-5.22h-.36c-6.86,0-11.82,4-15.44,7-1.67,1.35-3.39,2.75-4.23,2.75-3.35,0-8.3-2-8.35-2a1.56,1.56,0,0,0-2,2c.21.51,5.17,12.61,15.88,16.32a19.37,19.37,0,0,0,6.32,1,22.87,22.87,0,0,0,7-1.11,17.83,17.83,0,0,0,10.54-8.3l.14-.27.14.27a17.83,17.83,0,0,0,10.54,8.3,22.87,22.87,0,0,0,7,1.11,19.38,19.38,0,0,0,6.32-1c10.71-3.71,15.67-15.81,15.88-16.32A1.56,1.56,0,0,0,225.54,254.4Zm-41.77,6.73c-.2.47-.42.94-.67,1.42-3.54,6.71-13.53,9.18-20.09,6.91-6.13-2.13-10.23-7.67-12.33-11.26a22.89,22.89,0,0,0,5.81,1c2,0,3.83-1.52,6.2-3.45,3.44-2.79,7.72-6.27,13.47-6.27h.26a8.11,8.11,0,0,1,6.65,3.79A8.51,8.51,0,0,1,183.77,261.12ZM209,269.45a16.09,16.09,0,0,1-5.24.82c-5.78,0-12.16-2.65-14.85-7.73-.25-.47-.48-.95-.67-1.42a8.51,8.51,0,0,1,.7-7.89,8.11,8.11,0,0,1,6.65-3.79h.26c5.75,0,10,3.47,13.47,6.27,2.37,1.93,4.25,3.45,6.2,3.45a22.9,22.9,0,0,0,5.81-1C219.21,261.78,215.12,267.32,209,269.45Z" transform="translate(-40.4 -180.5)"/><path class="cls-3" d="M202,263.93c-3.45-.43-6.42-2.13-7.57-4.31-.16-.31-.31-.62-.43-.91a1.56,1.56,0,0,0-2.88,1.21c.16.38.35.77.55,1.16,1.64,3.11,5.45,5.39,9.95,6h.2a1.56,1.56,0,0,0,.19-3.11Z" transform="translate(-40.4 -180.5)"/><path class="cls-3" d="M208.56,264.23a1.68,1.68,0,0,0-.24-.2,1.66,1.66,0,0,0-.27-.14,1.58,1.58,0,0,0-.29-.09,1.55,1.55,0,0,0-.61,0,1.57,1.57,0,0,0-.29.09,1.66,1.66,0,0,0-.27.14,1.68,1.68,0,0,0-.24.2,1.5,1.5,0,0,0-.19.24,1.59,1.59,0,0,0-.14.27,1.63,1.63,0,0,0-.09.29,1.51,1.51,0,0,0,0,.61,1.58,1.58,0,0,0,.09.29,1.54,1.54,0,0,0,.14.27,1.5,1.5,0,0,0,.19.24,1.56,1.56,0,0,0,.24.19,1.67,1.67,0,0,0,.27.14,1.57,1.57,0,0,0,.29.09,1.51,1.51,0,0,0,.61,0,1.57,1.57,0,0,0,.29-.09,1.65,1.65,0,0,0,.27-.14,1.56,1.56,0,0,0,.24-2.4Z" transform="translate(-40.4 -180.5)"/><path class="cls-3" d="M180.05,257.87a1.56,1.56,0,0,0-2,.84c-.12.3-.27.6-.43.91-1.15,2.18-4.13,3.88-7.57,4.31a1.56,1.56,0,0,0,.19,3.11h.2c4.5-.57,8.31-2.85,9.95-6,.21-.39.39-.78.55-1.16A1.56,1.56,0,0,0,180.05,257.87Z" transform="translate(-40.4 -180.5)"/><path class="cls-3" d="M166.08,265a1.65,1.65,0,0,0-.09-.29,1.6,1.6,0,0,0-.14-.27,1.5,1.5,0,0,0-.2-.24,1.52,1.52,0,0,0-.51-.34,1.58,1.58,0,0,0-.29-.09,1.55,1.55,0,0,0-.61,0,1.58,1.58,0,0,0-.29.09,1.65,1.65,0,0,0-.27.14,1.68,1.68,0,0,0-.24.2,1.5,1.5,0,0,0-.19.24,1.6,1.6,0,0,0-.14.27,1.65,1.65,0,0,0-.09.29,1.57,1.57,0,0,0,0,.31,1.54,1.54,0,0,0,0,.3,1.58,1.58,0,0,0,.09.29,1.55,1.55,0,0,0,.14.27,1.5,1.5,0,0,0,.19.24,1.56,1.56,0,0,0,.24.19,1.67,1.67,0,0,0,.27.14,1.58,1.58,0,0,0,.29.09,1.55,1.55,0,0,0,.31,0,1.57,1.57,0,0,0,1.1-.46,1.5,1.5,0,0,0,.2-.24,1.55,1.55,0,0,0,.14-.27,1.58,1.58,0,0,0,.09-.29,1.54,1.54,0,0,0,0-.3A1.57,1.57,0,0,0,166.08,265Z" transform="translate(-40.4 -180.5)"/><path class="cls-3" d="M214.63,216.33a13.79,13.79,0,1,0-3.12,8.75V241.4a1.56,1.56,0,1,0,3.12,0V216.34ZM200.85,227a10.65,10.65,0,1,1,10.65-10.65A10.66,10.66,0,0,1,200.85,227Z" transform="translate(-40.4 -180.5)"/></svg>