<svg id="Слой_1" data-name="Слой 1" xmlns="http://www.w3.org/2000/svg" viewBox="0 0 202.6 148.12"><defs><style>.cls-1{font-size:100px;fill:#dbdbdb;font-family:Poppins-Bold, Poppins;font-weight:700;}.cls-2{fill:#1fb6ff;}.cls-3{fill:#fff;}</style></defs><title>icon-six</title><text class="cls-1" transform="translate(0 95.62)">6</text><circle class="cls-2" cx="145.35" cy="57.25" r="57.25"/><path class="cls-3" d="M210.94,251.9h0a23.07,23.07,0,0,0-5.59-4.06A20.14,20.14,0,0,0,179,217.47a20.88,20.88,0,0,0-3.37-6.78c-2.45-3.56-5-5.29-7.81-5.29-3.33,0-6,2.44-8.4,4.59-.42.38-.81.73-1.19,1.06-1.44,1.21-2.32,3.26-2.54,5.92-.32,3.94.8,9.14,3.15,14.65a74.57,74.57,0,0,0,12,18.77c11.87,14,24.56,20.28,31.88,20.28a7.63,7.63,0,0,0,5-1.52l0,0c.4-.35.84-.7,1.3-1.08,2.7-2.21,5.76-4.72,5.89-8.4C215.09,257.13,213.76,254.59,210.94,251.9Zm-32-30.45a17.18,17.18,0,1,1,23,25.49h-.14c-2.75,0-4.7,1.65-6.75,3.44h0l-.13.12-.69.6a.87.87,0,0,1-.63.21c-1.25,0-4.47-1.32-12-10.13a58.9,58.9,0,0,1-6.69-9.14c-1.3-2.38-1.69-4.15-1-4.74l.56-.46C176.35,225.24,178.21,223.71,178.94,221.45Zm28.28,44.3c-.47.38-.91.75-1.34,1.12a4.92,4.92,0,0,1-3.11.83c-6.42,0-18.43-6-29.63-19.23a71.61,71.61,0,0,1-11.54-18c-2.17-5.08-3.21-9.78-2.92-13.25a5.7,5.7,0,0,1,1.5-3.89h0c.41-.36.82-.73,1.26-1.12.68-.61,1.39-1.25,2.11-1.83a47.32,47.32,0,0,1,3.39,4.2,1.48,1.48,0,0,0,2.41-1.73,50.57,50.57,0,0,0-3.25-4.08,4.53,4.53,0,0,1,1.74-.39c1.73,0,3.54,1.35,5.36,4,2.43,3.53,3.4,6.1,3,7.88-.37,1.57-1.84,2.78-3.7,4.3l-.59.49,0,0c-1.91,1.66-1.78,4.49.37,8.41a61.64,61.64,0,0,0,7,9.64c6.53,7.62,11.06,11.18,14.27,11.18a3.86,3.86,0,0,0,2.57-.94l0,0c.76.47,1.9,1.2,3.08,2,1,.69,1.82,1.33,2.51,1.91a1.48,1.48,0,0,0,1.91-2.27c-.75-.64-1.67-1.33-2.72-2.07-.87-.61-1.72-1.17-2.42-1.61a5.35,5.35,0,0,1,3.23-1.4c1.79,0,4.13,1.36,7.13,4.15,2.14,2,3.19,3.88,3.13,5.48C211.94,261.88,209.54,263.85,207.22,265.75Z" transform="translate(-40.4 -180.5)"/><path class="cls-3" d="M171.87,220.35a1.48,1.48,0,0,0,1.29-2.21,13.06,13.06,0,0,0-.73-1.16,1.48,1.48,0,0,0-2.42,1.71,10.13,10.13,0,0,1,.57.9A1.48,1.48,0,0,0,171.87,220.35Z" transform="translate(-40.4 -180.5)"/><path class="cls-3" d="M207.25,258.06a1.48,1.48,0,0,0-2.12,2.07s.17.18.82.9a1.48,1.48,0,1,0,2.21-2C207.46,258.28,207.28,258.09,207.25,258.06Z" transform="translate(-40.4 -180.5)"/><path class="cls-3" d="M194.48,235.73h4.92v2.42c0,.55.68.84,1.33.84s1.33-.29,1.33-.84v-2.42h1c.43,0,.84-.62.84-1.23s-.29-1.25-.84-1.25h-1V231.1c0-.59-.66-.84-1.33-.84s-1.33.25-1.33.84v2.15H197l3.94-7.87a.83.83,0,0,0,.1-.35c0-.61-.86-1-1.33-1a1.2,1.2,0,0,0-1.13.7l-4.86,9.56a1.1,1.1,0,0,0-.14.53A.87.87,0,0,0,194.48,235.73Z" transform="translate(-40.4 -180.5)"/><path class="cls-3" d="M183.91,239h7.3c.45,0,.84-.57.84-1.19s-.39-1.15-.84-1.15h-5.7v-.49c0-2.13,6.5-3.57,6.5-8,0-2.6-2.21-4.16-4.59-4.16s-4.41,1.44-4.41,3.77c0,1.11.51,1.44,1.21,1.44.88,0,1.39-.49,1.39-1a1.66,1.66,0,0,1,1.83-1.8,1.78,1.78,0,0,1,1.91,1.83c0,2.89-6.6,4.63-6.6,7.92v2C182.74,238.66,183.44,239,183.91,239Z" transform="translate(-40.4 -180.5)"/><path class="cls-3" d="M200.17,273.63H170.5a1.48,1.48,0,1,0,0,3h29.67a1.48,1.48,0,1,0,0-3Z" transform="translate(-40.4 -180.5)"/></svg>