<svg id="Слой_1" data-name="Слой 1" xmlns="http://www.w3.org/2000/svg" viewBox="0 0 202.6 148.12"><defs><style>.cls-1{font-size:100px;fill:#dbdbdb;font-family:Poppins-Bold, Poppins;font-weight:700;}.cls-2{fill:#1fb6ff;}.cls-3{fill:#fff;}</style></defs><title>icon-five</title><text class="cls-1" transform="translate(0 95.62)">5</text><circle class="cls-2" cx="145.35" cy="57.25" r="57.25"/><path class="cls-3" d="M217.47,207.5H152.53A6.54,6.54,0,0,0,146,214v35.69a6.54,6.54,0,0,0,6.53,6.53h22.09l-2.22,6.66a4.88,4.88,0,0,0-3.65,4.72v1.63h-4.88a1.63,1.63,0,1,0,0,3.25h42.25a1.63,1.63,0,1,0,0-3.25h-4.88v-1.63a4.88,4.88,0,0,0-3.65-4.72l-2.22-6.66h22.09a6.54,6.54,0,0,0,6.53-6.53V214A6.54,6.54,0,0,0,217.47,207.5ZM196.38,266a1.63,1.63,0,0,1,1.63,1.62v1.63H172v-1.63a1.63,1.63,0,0,1,1.62-1.62h22.75Zm-20.5-3.25,2.17-6.5H192l2.17,6.5Zm44.87-13a3.28,3.28,0,0,1-3.28,3.28H152.53a3.28,3.28,0,0,1-3.28-3.28v-1.59H211a1.63,1.63,0,0,0,0-3.25H149.25V214a3.28,3.28,0,0,1,3.28-3.28h64.94a3.28,3.28,0,0,1,3.28,3.25H159.28a1.63,1.63,0,0,0,0,3.25h61.47v32.47Z" transform="translate(-40.4 -180.5)"/><path class="cls-3" d="M175.37,234.18h0a1.62,1.62,0,0,0,1.49,1.34l12.39.82h0a1.62,1.62,0,0,0,1.71-1.41l1-8.21.31-2.46h2.16a1.62,1.62,0,0,0,0-3.24l-3.59,0a1.62,1.62,0,0,0-1.61,1.42l-.49,3.88-.85,6.69-9.6-.64-.9-5h6.45a1.63,1.63,0,1,0,0-3.25h-8.39l-.28,0a1.62,1.62,0,0,0-1.32,1.88Z" transform="translate(-40.4 -180.5)"/><path class="cls-3" d="M179.42,237.86a1.62,1.62,0,1,0,1.62,1.62A1.63,1.63,0,0,0,179.42,237.86Z" transform="translate(-40.4 -180.5)"/><path class="cls-3" d="M187.71,237.86a1.62,1.62,0,1,0,1.62,1.62A1.63,1.63,0,0,0,187.71,237.86Z" transform="translate(-40.4 -180.5)"/><path class="cls-3" d="M154.3,214h-.73a1.63,1.63,0,0,0,0,3.25h.73a1.63,1.63,0,1,0,0-3.25Z" transform="translate(-40.4 -180.5)"/><path class="cls-3" d="M215.67,248.13h.69a1.63,1.63,0,0,0,0-3.25h-.69a1.63,1.63,0,0,0,0,3.25Z" transform="translate(-40.4 -180.5)"/></svg>