<svg id="Слой_1" data-name="Слой 1" xmlns="http://www.w3.org/2000/svg" viewBox="0 0 202.6 148.12"><defs><style>.cls-1{font-size:100px;fill:#dbdbdb;font-family:Poppins-Bold, Poppins;font-weight:700;}.cls-2{fill:#1fb6ff;}.cls-3{fill:#fff;}</style></defs><title>icon-eight</title><text class="cls-1" transform="translate(0 95.62)">8</text><circle class="cls-2" cx="145.35" cy="57.25" r="57.25"/><circle class="cls-3" cx="118.71" cy="79.07" r="1.51"/><path class="cls-3" d="M216.48,213.39h-8.88a8.26,8.26,0,0,0-5.28,1.9v-4.54A10.76,10.76,0,0,0,191.56,200H181.49a1.51,1.51,0,0,0-1.51,1.51v4.15a10.76,10.76,0,0,0,10.75,10.75h8.56v15.3c-.4,0-.8,0-1.2,0a18.64,18.64,0,0,0-11,3.54,1.51,1.51,0,0,0,1.77,2.45,15.72,15.72,0,0,1,11.58-2.78l.2,0a15.78,15.78,0,0,1,11.21,7.91,1.51,1.51,0,1,0,2.64-1.46,18.8,18.8,0,0,0-12.21-9.2v-4.88h7.37A8.31,8.31,0,0,0,218,219V214.9A1.51,1.51,0,0,0,216.48,213.39Zm-17.18,0h-8.56a7.74,7.74,0,0,1-7.73-7.73V203h8.56a7.74,7.74,0,0,1,7.73,7.73v2.64ZM215,219a5.29,5.29,0,0,1-5.28,5.28h-7.37v-2.56a5.29,5.29,0,0,1,5.28-5.28H215Z" transform="translate(-40.4 -180.5)"/><path class="cls-3" d="M223.64,249a5.92,5.92,0,0,0-7.8-3h0L206,250.53a1.51,1.51,0,0,0,1.26,2.74l9.85-4.54a2.9,2.9,0,0,1,2.33,5.3l-20.18,8.91a11.7,11.7,0,0,1-10-.23L181.87,259a14.71,14.71,0,0,0-12.52-.28l-.15.06-5.52-12.51,7.67-3.38a15.25,15.25,0,0,1,11.47-.37L197.68,248a2.68,2.68,0,0,1-1.78,5.05l-11.49-3.89a1.51,1.51,0,0,0-1,2.86l11.49,3.89a5.7,5.7,0,0,0,7.22-3.55,5.73,5.73,0,0,0-3.43-7.19l-14.86-5.46a18.26,18.26,0,0,0-13.73.44l-7.72,3.41a3.82,3.82,0,0,0-4.74-1.41l-9.91,4.34a1.51,1.51,0,0,0-.9,1.38v26.6a1.51,1.51,0,0,0,2.19,1.35l19.24-9.72a3.83,3.83,0,0,0,2.1-4.51l.18-.08a11.7,11.7,0,0,1,10,.23l7.39,3.67a14.71,14.71,0,0,0,12.52.28l20.18-8.91A5.92,5.92,0,0,0,223.64,249Zm-56.19,13.94a.8.8,0,0,1-.43.45l-.07,0L149.87,272v-6.61l4.46-2.19a1.51,1.51,0,0,0-1.33-2.71l-3.13,1.54V248.88l9-3.95a.81.81,0,0,1,1.06.41l7.1,16.08h0l.39.88A.8.8,0,0,1,167.45,262.93Z" transform="translate(-40.4 -180.5)"/></svg>