<svg id="Слой_1" data-name="Слой 1" xmlns="http://www.w3.org/2000/svg" viewBox="0 0 202.6 148.12"><defs><style>.cls-1{font-size:100px;fill:#dbdbdb;font-family:Poppins-Bold, Poppins;font-weight:700;}.cls-2{fill:#1fb6ff;}.cls-3{fill:#fff;}</style></defs><title>icon-three</title><text class="cls-1" transform="translate(0 95.62)">3</text><circle class="cls-2" cx="145.35" cy="57.25" r="57.25"/><path class="cls-3" d="M212.23,205.91H192.71a7.39,7.39,0,0,0-14.49,0H158.71a4,4,0,0,0-4,4v42.24a4,4,0,0,0,4,4h18.54l-6,17.94A1.48,1.48,0,1,0,174,275l6.34-18.89h10.17L196.89,275a1.48,1.48,0,0,0,2.81-.94l-6-17.94h18.54a4,4,0,0,0,4-4V209.88A4,4,0,0,0,212.23,205.91ZM185.47,203a4.43,4.43,0,0,1,4.17,2.94H181.3A4.43,4.43,0,0,1,185.47,203Zm27.77,49.16a1,1,0,0,1-1,1h-3.88V232a1.48,1.48,0,1,0-3,0v21.16h-4.57V236.51a1.48,1.48,0,0,0-3,0v16.62h-4.17V241.37a1.48,1.48,0,0,0-3,0v11.76H187V237.6a1.48,1.48,0,0,0-3,0v15.54h-4.31V245a1.48,1.48,0,0,0-3,0v8.17h-3.45v-7.57a1.48,1.48,0,1,0-3,0v7.57h-4v-5.84a1.48,1.48,0,0,0-3,0v5.84h-4.64a1,1,0,0,1-1-1V209.88a1,1,0,0,1,1-1h53.52a1,1,0,0,1,1,1v42.24Z" transform="translate(-40.4 -180.5)"/><path class="cls-3" d="M208.34,215.86v-.14l0-.07,0-.07,0-.07,0-.07,0-.06,0-.07,0-.06,0-.07,0-.06,0-.06-.08-.09v0h0l-.09-.08-.06,0-.06,0-.07,0-.06,0-.07,0-.07,0-.06,0-.07,0-.06,0-.08,0h-6.7a1.48,1.48,0,1,0,0,3h2.83L191,229.82l-3.24-3.24a1.48,1.48,0,0,0-2.1,0L174.91,237.3l-3.2-3.2a1.48,1.48,0,0,0-2.1,0l-5.42,5.42a1.48,1.48,0,1,0,2.1,2.1l4.37-4.37,3.2,3.2a1.48,1.48,0,0,0,2.1,0l10.71-10.71,3.24,3.24a1.48,1.48,0,0,0,2.1,0l13.37-13.37v2.83a1.48,1.48,0,1,0,3,0V216A1.4,1.4,0,0,0,208.34,215.86Z" transform="translate(-40.4 -180.5)"/><circle class="cls-3" cx="124.85" cy="35.51" r="1.48"/><circle class="cls-3" cx="124.85" cy="41.56" r="1.48"/><circle class="cls-3" cx="124.85" cy="47.61" r="1.48"/></svg>