<svg id="Слой_1" data-name="Слой 1" xmlns="http://www.w3.org/2000/svg" viewBox="0 0 242.6 148.12"><defs><style>.cls-1{font-size:100px;fill:#dbdbdb;font-family:Poppins-Bold, Poppins;font-weight:700;}.cls-2{fill:#1fb6ff;}.cls-3{fill:#fff;}</style></defs><title>icon-ten</title><text class="cls-1" transform="translate(0 95.62)">10</text><circle class="cls-2" cx="185.35" cy="57.25" r="57.25"/><path class="cls-3" d="M156.6,221.1l-.86-.5a1.79,1.79,0,0,0-1.79,3.1l.86.5a1.79,1.79,0,0,0,1.79-3.1Z" transform="translate(-0.4 -180.5)"/><path class="cls-3" d="M225.58,218.5a1.79,1.79,0,0,0,0-.22h0a1.87,1.87,0,0,0,0-.2V218l-.05-.16,0-.05a1.78,1.78,0,0,0-.09-.19l-.12-.18,0,0-.11-.12,0,0-.15-.13h0l-.18-.12h0l-37.62-21.72a1.79,1.79,0,0,0-1.79,0l-22.44,13h0L147.65,217a1.79,1.79,0,0,0-.9,1.55v9.63a1.79,1.79,0,0,0,.9,1.55l1,.6v28.3a1.79,1.79,0,0,0,.9,1.55l35.69,20.6h0l.2.1h0l.19.06h.05l.16,0h.54l.16,0h.05l.19-.06h0l.2-.1h0l35.69-20.6a1.79,1.79,0,0,0,.9-1.55V230.3l1-.6a1.79,1.79,0,0,0,.9-1.55V218.5Zm-5.37,0-11.65,6.72-11.65-6.72,11.65-6.72ZM188,240.19s0-.07,0-.11v-.17l0-.09,0-.07,0-.1,0-.07,0-.09,0-.07,0-.08,0-.08,0-.06-.06-.08,0-.05-.07-.08-.05,0-.07-.07-.07-.05-.07-.05-.09-.06,0,0-12.54-7.24,11.64-6.72,11.65,6.72-2.42,1.4a1.79,1.79,0,1,0,1.79,3.1l2.42-1.4V240L188,246.77v-6.53S188,240.21,188,240.19Zm-3.58,1.08v5.49L172.73,240v-5.49Zm5.37-18.62,3.58-2.07L205,227.31l-3.58,2.07Zm12.32,20.1,3.58-2.07v3.93a1.79,1.79,0,0,0-1.74.5l-1.85,1.95v-4.32Zm1.11-4.78v-5.49l3.58-2.07v5.49l-.17.1h0Zm-17-39.11L205,209.72l-34,19.65-3.58-2.07,12.52-7.23h0l7.16-4.13h0l3.86-2.23a1.79,1.79,0,0,0-1.79-3.1l-3,1.71-11.64-6.72Zm-19.49,41.82,3.58,2.07v4.32l-1.85-1.95a1.79,1.79,0,0,0-1.74-.5v-3.94Zm-1.11-4.78v-5.49l3.58,2.07V238Zm5.37-28.25,11.64,6.72L179,216.45l-11.64-6.72Zm-20.6,11.89,13.44-7.76,11.64,6.72-11.64,6.72-2.59-1.49a1.79,1.79,0,0,0-1.79,3.1l2.59,1.49v5.49l-11.65-6.72Zm69.73,38h0L188,276.11V261.76a1.79,1.79,0,0,0-3.58,0v14.35l-32.1-18.53v-25.2l10.82,6.25v8.6s0,0,0,0,0,.07,0,.11v.17l0,.1,0,.07,0,.11v.06l0,.11,0,.06,0,.09,0,.07,0,.06.06.08,0,0,.08.08,0,0,.09.08.05,0,.08.06.07,0,.08,0,.08,0,.07,0,.09,0,.07,0,.08,0,.09,0h.07l.11,0h.53l.09,0,.07,0,.11,0h0l1.11-.43,4.11,4.35,0,0,.08.07.06.05.08.06.06,0,.09.05.07,0,.16.08h0l.15.06h0l.15,0h.05l.13,0h.42l.1,0,.08,0,.09,0,.08,0,.09,0,.07,0,.08,0,.07,0,.08,0,.07,0,.07-.05.07-.06,0,0,0,0,.07-.07.06-.06.05-.07.05-.07,0-.07,0-.08,0-.07,0-.08,0-.08,0-.08,0-.09,0-.08,0-.09v-.09s0-.05,0-.08,0-.07,0-.1v-6.77l11.43,6.6h0l.2.1h0l.19.06h.05l.16,0h.54l.16,0h.05l.19-.06h0l.2-.1h0l11.43-6.6v6.77s0,.07,0,.1,0,.05,0,.08v.09l0,.09,0,.08,0,.09,0,.08,0,.08,0,.08,0,.07,0,.08,0,.07.05.07.05.07.06.06.07.07,0,0,0,0,.07.06.07.05.07,0,.08,0,.07,0,.09,0,.07,0,.09,0,.07,0,.09,0,.08,0,.11,0h.42l.12,0h.05l.14,0h0l.15-.05h0l.16-.08.07,0,.08,0,.07,0,.08-.06.06-.05.08-.07,0,0,4.11-4.35,1.11.43h0l.11,0,.07,0,.09,0,.1,0h.43l.1,0h.08l.08,0,.09,0,.07,0,.09,0,.07,0,.09,0,.07,0,.07,0,.08-.06.05,0,.09-.08,0,0,.08-.09,0,0,.06-.08,0-.06,0-.07,0-.08,0-.06,0-.1v-.06l0-.11,0-.07,0-.1v-.17s0-.08,0-.11,0,0,0,0v-8.6l3.66-2.11v5.62a1.79,1.79,0,1,0,3.58,0v-7.69l3.58-2.07v25.2ZM222,227.11l-1,.58h0l-7.16,4.14h0l-3.47,2v-5.49L222,221.62v5.49Z" transform="translate(-0.4 -180.5)"/><path class="cls-3" d="M190.92,239.29a1.79,1.79,0,0,0,.89-.24l.86-.49a1.79,1.79,0,0,0-1.79-3.1l-.86.49a1.79,1.79,0,0,0,.9,3.34Z" transform="translate(-0.4 -180.5)"/><path class="cls-3" d="M194.54,211.34a1.78,1.78,0,0,0,.89-.24l.92-.53a1.79,1.79,0,0,0-1.79-3.1l-.92.53a1.79,1.79,0,0,0,.9,3.34Z" transform="translate(-0.4 -180.5)"/><path class="cls-3" d="M186.17,253.63a1.79,1.79,0,0,0-1.79,1.79v1.07a1.79,1.79,0,0,0,3.58,0v-1.07A1.79,1.79,0,0,0,186.17,253.63Z" transform="translate(-0.4 -180.5)"/><path class="cls-3" d="M214.69,245.6a1.79,1.79,0,0,0-1.79,1.79v1.07a1.79,1.79,0,0,0,3.58,0v-1.07A1.79,1.79,0,0,0,214.69,245.6Z" transform="translate(-0.4 -180.5)"/></svg>