<svg id="Layer_1" data-name="Layer 1" xmlns="http://www.w3.org/2000/svg" viewBox="0 0 101.6 101.6"><defs><style>.cls-1{fill:#1fb6ff;}.cls-2{fill:#fff;}</style></defs><title>idea</title><circle class="cls-1" cx="50.8" cy="50.8" r="50.8"/><circle class="cls-2" cx="66" cy="29.4" r="1.2"/><circle class="cls-2" cx="29.7" cy="65.8" r="1.2"/><path class="cls-2" d="M74.2,20.3a11.67,11.67,0,1,0-16,17,4.86,4.86,0,0,1,1.5,3.4v1.5a3,3,0,0,0,1.2,2.5v3.5a3,3,0,0,0,3,3h4.4a3,3,0,0,0,3-3V44.7a3,3,0,0,0,1.2-2.5V40.7A4.48,4.48,0,0,1,74,37.3a11.6,11.6,0,0,0,.8-16.5,2.65,2.65,0,0,0-.6-.5ZM68.7,48.1h0a.65.65,0,0,1-.6.6H63.7a.56.56,0,0,1-.5-.6V45.3h5.5v2.8Zm3.6-12.7A6.82,6.82,0,0,0,70,40.6v1.6a.68.68,0,0,1-.7.7h-2V34.2a1.2,1.2,0,1,0-2.4,0h0V43h-2a.68.68,0,0,1-.7-.7V40.8a6.61,6.61,0,0,0-2.3-5.1,9.21,9.21,0,0,1-.6-13.1,9.1,9.1,0,0,1,6.7-3h0a9.2,9.2,0,0,1,9.2,9.3A8.54,8.54,0,0,1,72.3,35.4Z"/><path class="cls-2" d="M81.2,57.3A4.65,4.65,0,0,0,75,54.9h0l-7.9,3.6a1.17,1.17,0,0,0-.5,1.6,1.29,1.29,0,0,0,1.5.6L76,57.1a2.28,2.28,0,0,1,1.8,4.2h0L61.7,68.4a9.12,9.12,0,0,1-7.9-.2l-5.9-2.9a11.67,11.67,0,0,0-10-.2h-.1l-4.4-10,6.1-2.7a12,12,0,0,1,9.1-.3l11.9,4.4a2.17,2.17,0,0,1,1.1,2.8,2.28,2.28,0,0,1-2.5,1.2l-9.2-3.1a1.24,1.24,0,0,0-1.5.8,1.19,1.19,0,0,0,.7,1.5l9.2,3.1a4.57,4.57,0,0,0,3.1-8.6L49.5,49.8a14.46,14.46,0,0,0-11,.4l-6.1,2.7a3.11,3.11,0,0,0-3.8-1.1l-7.9,3.5a1.23,1.23,0,0,0-.7,1.1l-.1,21.2a1.16,1.16,0,0,0,1.2,1.2,1.27,1.27,0,0,0,.6-.1L37,70.9a3.05,3.05,0,0,0,1.7-3.6l.1-.1a9.12,9.12,0,0,1,7.9.2l5.9,2.9a11.67,11.67,0,0,0,10,.2l16.1-7.1A4.63,4.63,0,0,0,81.2,57.3ZM36,68.8h0L22.3,75.7V70.4l3.5-1.7a1.19,1.19,0,1,0-1.1-2.1l-2.5,1.2V57.2l7.1-3.1a.63.63,0,0,1,.8.3L36,67.2h0l.3.7A.81.81,0,0,1,36,68.8Z"/></svg>