<svg id="Capa_1" data-name="Capa 1" xmlns="http://www.w3.org/2000/svg" viewBox="0 0 141.34 101.5"><defs><style>.cls-1{fill:#1fb6ff;}.cls-2{fill:#fff;}</style></defs><title>idea (1)</title><circle class="cls-1" cx="50.75" cy="50.75" r="50.75"/><path class="cls-2" d="M48.83,22a6.71,6.71,0,0,0-4.64,6.39,1.37,1.37,0,0,0,2.73,0,4,4,0,0,1,2.75-3.8,1.37,1.37,0,0,0-.85-2.6Z"/><path class="cls-2" d="M54.08,22.4a1.37,1.37,0,0,0-1.34,2.38h0A1.37,1.37,0,0,0,54,22.38Z"/><path class="cls-2" d="M32.51,19.29l4,2.33a1.37,1.37,0,0,0,1.37-2.37l-4-2.33a1.37,1.37,0,0,0-1.37,2.37Z"/><path class="cls-2" d="M71.54,38.67l-5.19-3A1.37,1.37,0,0,0,65,38l5.19,3a1.37,1.37,0,0,0,1.56-2.25l-.09-.06Z"/><path class="cls-2" d="M35.25,28.34A1.37,1.37,0,0,0,33.88,27H24.6a1.37,1.37,0,0,0-.23,2.73h9.51a1.37,1.37,0,0,0,1.37-1.37Z"/><path class="cls-2" d="M77.25,27h0A1.37,1.37,0,1,0,77,29.71h.23a1.37,1.37,0,0,0,0-2.73Z"/><path class="cls-2" d="M73.16,27H63.41a12.57,12.57,0,1,0-24,6.43l-6.77,3.91a1.37,1.37,0,0,0,1.27,2.43l.1-.06,6.77-3.91.36.47c.52.64,1,1.19,1.41,1.69A21.13,21.13,0,0,0,30.81,51.61c-1.21,4,0,10.49.85,14.76l.18,1h0l.18,1c1.53,9.26,2.86,10.48,7.24,13.27.61.39,1.29.82,2,1.33h.08a18.94,18.94,0,0,0,9.51,2.72h0A18.94,18.94,0,0,0,60.37,83h.08c.75-.51,1.44-1,2-1.33,4.39-2.79,5.72-4,7.24-13.27.09-.53.22-1.2.37-2,.82-4.27,2.06-10.72.85-14.76A21.13,21.13,0,0,0,59.25,37.93c.43-.5.89-1,1.41-1.69a12.59,12.59,0,0,0,2.72-6.54h9.75a1.37,1.37,0,0,0,0-2.73ZM61.09,79.32c-.61.39-1.3.83-2.07,1.35a15.34,15.34,0,0,1-16.21,0c-.77-.52-1.46-1-2.07-1.35C37.09,77,36.16,76.4,34.81,68.43h2a6.93,6.93,0,0,0,13.58,0H51.5a6.93,6.93,0,0,0,13.58,0h2c-1.4,8-2.33,8.57-6,10.89ZM39.38,67.07a4.19,4.19,0,1,1,4.19,4.19,4.19,4.19,0,0,1-4.19-4.19Zm23.07,0a4.19,4.19,0,1,1-4.19-4.2,4.19,4.19,0,0,1,4.19,4.2Zm5.06-1.37H65a6.93,6.93,0,0,0-13.58,0H50.36A6.9,6.9,0,0,0,49,62.76,52.88,52.88,0,0,0,60.16,56a21.71,21.71,0,0,0,8,6.25c-.23,1.25-.45,2.42-.64,3.42Zm.89-13.31a19.26,19.26,0,0,1,.14,7.07,20.32,20.32,0,0,1-7-6.17,1.37,1.37,0,0,0-1.9-.38h0l-.15.12a49.29,49.29,0,0,1-12.87,7.81A6.92,6.92,0,0,0,36.8,65.7H34.34c-.72-3.78-1.89-10-.89-13.31A18.35,18.35,0,0,1,44.38,40.15,5.52,5.52,0,0,1,45.49,43a1.37,1.37,0,0,0-1.06,1.33V49.4a3.36,3.36,0,0,0,3.36,3.36h6.27a3.36,3.36,0,0,0,3.36-3.36h0V44.35A1.37,1.37,0,0,0,56.36,43a5.52,5.52,0,0,1,1.11-2.88A18.35,18.35,0,0,1,68.4,52.39Zm-21.24-3v-3.7h7.51v3.7a.63.63,0,0,1-.62.62H47.78a.63.63,0,0,1-.61-.59ZM58.56,34.5c-.62.76-1.17,1.4-1.66,2-1.9,2.2-3,3.5-3.3,6.5H48.25c-.25-3-1.41-4.3-3.3-6.5-.49-.57-1-1.21-1.66-2a10,10,0,0,1-.87-1.26h0a9.72,9.72,0,0,1-1.31-4.91,9.84,9.84,0,0,1,19.68,0,9.72,9.72,0,0,1-2.22,6.2Z"/><path class="cls-2" d="M30.88,39.92a1.37,1.37,0,0,0-1.87-.5h0a1.37,1.37,0,0,0,1.18,2.47l.18-.1h.06a1.37,1.37,0,0,0,.51-1.87h-.06Z"/><path class="cls-2" d="M65.67,21.15a1.36,1.36,0,0,0,.68-.18L71,18.28a1.37,1.37,0,0,0-1.27-2.43h0l-.1.06L65,18.6a1.37,1.37,0,0,0,.68,2.55Z"/><circle class="cls-1" cx="131.42" cy="50.42" r="9.92"/></svg>