<svg id="Layer_1" data-name="Layer 1" xmlns="http://www.w3.org/2000/svg" viewBox="0 0 71.4 71.4"><defs><style>.cls-1{fill:#1fb6ff;}</style></defs><title>info</title><path class="cls-1" d="M60.95,10.45A35.7,35.7,0,1,0,71.4,35.69,35.7,35.7,0,0,0,60.95,10.45ZM35.7,68.54A32.85,32.85,0,1,1,68.55,35.69h0A32.85,32.85,0,0,1,35.7,68.54Z" transform="translate(0 0.01)"/><path class="cls-1" d="M64.44,41.57a1.42,1.42,0,0,0-1.73,1,27.66,27.66,0,0,1-3.92,8.72,1.44,1.44,0,0,0,2.35,1.65,30.49,30.49,0,0,0,4.33-9.61,1.42,1.42,0,0,0-1-1.75Z" transform="translate(0 0.01)"/><path class="cls-1" d="M64.95,34.27a1.42,1.42,0,0,0-1.42,1.42h0v1.25a1.42,1.42,0,0,0,1.39,1.45h0A1.42,1.42,0,0,0,66.37,37V35.69A1.42,1.42,0,0,0,64.95,34.27Z" transform="translate(0 0.01)"/><path class="cls-1" d="M35.7,24.09a5,5,0,0,0-5,5V53.84a5,5,0,0,0,10,0V29.09A5,5,0,0,0,35.7,24.09Zm2.13,29.72a2.14,2.14,0,1,1-4.27,0V29.09a2.14,2.14,0,1,1,4.27,0Z" transform="translate(0 0.01)"/><path class="cls-1" d="M39.2,14a5,5,0,1,0,1.46,3.52A5,5,0,0,0,39.2,14Zm-2,5a2.13,2.13,0,1,1,.62-1.51A2.13,2.13,0,0,1,37.2,19Z" transform="translate(0 0.01)"/></svg>