<svg id="Layer_1" data-name="Layer 1" xmlns="http://www.w3.org/2000/svg" viewBox="0 0 71.4 71.4"><defs><style>.cls-1{fill:#0089c0;}</style></defs><title>infocircle</title><path class="cls-1" d="M61,10.46A35.7,35.7,0,1,0,71.4,35.7,35.7,35.7,0,0,0,61,10.46ZM35.7,68.55A32.85,32.85,0,1,1,68.55,35.7h0A32.85,32.85,0,0,1,35.7,68.55Z" transform="translate(0 0)"/><path class="cls-1" d="M35.7,24.1a5,5,0,0,0-5,5V53.85a5,5,0,0,0,10,0V29.1A5,5,0,0,0,35.7,24.1Zm2.13,29.72a2.14,2.14,0,1,1-4.27,0V29.1a2.14,2.14,0,1,1,4.27,0Z" transform="translate(0 0)"/><path class="cls-1" d="M39.2,14a5,5,0,1,0,1.46,3.52A5,5,0,0,0,39.2,14Zm-2,5a2.13,2.13,0,1,1,.62-1.51A2.13,2.13,0,0,1,37.2,19Z" transform="translate(0 0)"/></svg>