<svg id="Capa_1" data-name="Capa 1" xmlns="http://www.w3.org/2000/svg" viewBox="0 0 139.84 101.5"><defs><style>.cls-1{fill:#1fb6ff;}.cls-2,.cls-3{fill:#fff;stroke:#7db5ba;stroke-miterlimit:10;}.cls-2{stroke-width:0.75px;}.cls-3{stroke-width:0.5px;}</style></defs><title>inst1</title><circle class="cls-1" cx="50.75" cy="50.75" r="50.75"/><path class="cls-2" d="M65.16,19.62H36.34A16.84,16.84,0,0,0,19.5,36.34V65.16A16.84,16.84,0,0,0,36.34,81.88H65.16A16.84,16.84,0,0,0,82,65.16V36.34A16.84,16.84,0,0,0,65.16,19.62Zm0,57.08H36.34A11.53,11.53,0,0,1,24.8,65.18h0V36.34A11.53,11.53,0,0,1,36.32,24.8H65.16A11.53,11.53,0,0,1,76.7,36.32h0V65.16A11.53,11.53,0,0,1,65.18,76.7Z"/><path class="cls-2" d="M64.7,48.62a14,14,0,1,0-13.84,16h2.08A14,14,0,0,0,64.47,48.79ZM52.19,59.4a8.94,8.94,0,0,1-3.81-17.3h3.86a8.94,8.94,0,0,1,0,17.64Z"/><path class="cls-3" d="M68.28,33.45A2.54,2.54,0,1,0,69,35.24,2.54,2.54,0,0,0,68.28,33.45Z"/><circle class="cls-1" cx="129.92" cy="50.92" r="9.92"/></svg>