<svg id="Слой_1" data-name="Слой 1" xmlns="http://www.w3.org/2000/svg" viewBox="0 0 139.84 101.5"><defs><style>.cls-1{fill:#1fb6ff;}.cls-2{fill:#fff;}</style></defs><title>kit</title><circle class="cls-1" cx="50.75" cy="50.75" r="50.75"/><circle class="cls-2" cx="27.28" cy="49.64" r="1.29"/><circle class="cls-2" cx="32.97" cy="49.64" r="1.29"/><circle class="cls-2" cx="38.81" cy="49.64" r="1.29"/><circle class="cls-2" cx="61.01" cy="48.91" r="1.29"/><circle class="cls-2" cx="73.06" cy="43.66" r="1.29"/><circle class="cls-2" cx="78.74" cy="43.66" r="1.29"/><circle class="cls-2" cx="27.28" cy="73.66" r="1.29"/><circle class="cls-2" cx="32.97" cy="73.66" r="1.29"/><circle class="cls-2" cx="75.9" cy="26.23" r="1.29"/><path class="cls-2" d="M84.13,36.49H67.67a1.29,1.29,0,0,0-1.29,1.29h0V52.9H42.71a1.29,1.29,0,0,0-1.29,1.27v20a1.29,1.29,0,0,0,1.29,1.29h17V81.7H22v-59H59.72v21a1.29,1.29,0,0,0,2.58,0h0V21.37A1.29,1.29,0,0,0,61,20.08H20.71a1.29,1.29,0,0,0-1.29,1.29V83a1.29,1.29,0,0,0,1.29,1.29H61A1.29,1.29,0,0,0,62.3,83h0V75.45H76.89a1.29,1.29,0,0,0,1.29-1.29h0V61.68h6a1.29,1.29,0,0,0,1.29-1.29h0V37.78a1.29,1.29,0,0,0-1.29-1.29h-.05Zm-11.85,19L59.81,62.7,47.34,55.49Zm3.33,17.39H44V56.53l15.16,8.76a1.29,1.29,0,0,0,1.29,0l15.16-8.76Zm7.24-13.77H78.19V54.17a1.29,1.29,0,0,0-1.29-1.29H69V39.07H82.85Z"/><path class="cls-2" d="M31,34a5.49,5.49,0,1,0,5.49,5.49h0A5.49,5.49,0,0,0,31,34Zm0,8.41a2.92,2.92,0,1,1,2.92-2.92h0A2.92,2.92,0,0,1,31,42.38Z"/><path class="cls-2" d="M84.13,20.08H67.67a1.29,1.29,0,0,0-1.25,1.29v9.72a1.29,1.29,0,0,0,1.29,1.29H84.17a1.29,1.29,0,0,0,1.29-1.29h0V21.37a1.29,1.29,0,0,0-1.29-1.29ZM82.84,29.8H69V22.66H82.84Z"/><path class="cls-2" d="M54.29,28.07H26.61a1.29,1.29,0,1,0,0,2.58H54.29a1.29,1.29,0,0,0,0-2.58Z"/><circle class="cls-1" cx="129.92" cy="50.92" r="9.92"/></svg>