<svg id="Layer_1" data-name="Layer 1" xmlns="http://www.w3.org/2000/svg" viewBox="0 0 143.34 101.5"><defs><style>.cls-1{fill:#1fb6ff;}.cls-2{fill:#fff;}</style></defs><title>kit1</title><circle class="cls-1" cx="50.75" cy="50.75" r="50.75"/><circle class="cls-1" cx="130.92" cy="50.92" r="12.42"/><circle class="cls-2" cx="25.28" cy="48.64" r="1.29"/><circle class="cls-2" cx="30.97" cy="48.64" r="1.29"/><circle class="cls-2" cx="36.81" cy="48.64" r="1.29"/><circle class="cls-2" cx="59.01" cy="47.91" r="1.29"/><circle class="cls-2" cx="71.06" cy="42.66" r="1.29"/><circle class="cls-2" cx="76.74" cy="42.66" r="1.29"/><circle class="cls-2" cx="25.28" cy="72.66" r="1.29"/><circle class="cls-2" cx="30.97" cy="72.66" r="1.29"/><circle class="cls-2" cx="73.9" cy="25.23" r="1.29"/><path class="cls-2" d="M82.13,35.49H65.67a1.29,1.29,0,0,0-1.29,1.29h0V51.9H40.71a1.29,1.29,0,0,0-1.29,1.27v20a1.29,1.29,0,0,0,1.29,1.29h17V80.7H20v-59H57.72v21a1.29,1.29,0,0,0,2.58,0h0V20.37A1.29,1.29,0,0,0,59,19.08H18.71a1.29,1.29,0,0,0-1.29,1.29V82a1.29,1.29,0,0,0,1.29,1.29H59A1.29,1.29,0,0,0,60.3,82h0V74.45H74.89a1.29,1.29,0,0,0,1.29-1.29h0V60.68h6a1.29,1.29,0,0,0,1.29-1.29h0V36.78a1.29,1.29,0,0,0-1.29-1.29h-.05Zm-11.85,19L57.81,61.7,45.34,54.49Zm3.33,17.39H42V55.53l15.16,8.76a1.29,1.29,0,0,0,1.29,0l15.16-8.76Zm7.24-13.77H76.19V53.17a1.29,1.29,0,0,0-1.29-1.29H67V38.07H80.85Z"/><path class="cls-2" d="M29,33a5.49,5.49,0,1,0,5.49,5.49h0A5.49,5.49,0,0,0,29,33Zm0,8.41a2.92,2.92,0,1,1,2.92-2.92h0A2.92,2.92,0,0,1,29,41.38Z"/><path class="cls-2" d="M82.13,19.08H65.67a1.29,1.29,0,0,0-1.25,1.29v9.72a1.29,1.29,0,0,0,1.29,1.29H82.17a1.29,1.29,0,0,0,1.29-1.29h0V20.37a1.29,1.29,0,0,0-1.29-1.29ZM80.84,28.8H67V21.66H80.84Z"/><path class="cls-2" d="M52.29,27.07H24.61a1.29,1.29,0,1,0,0,2.58H52.29a1.29,1.29,0,0,0,0-2.58Z"/></svg>