<svg id="Layer_1" data-name="Layer 1" xmlns="http://www.w3.org/2000/svg" viewBox="0 0 101.5 101.5"><defs><style>.cls-1{fill:#1fb6ff;}.cls-2{fill:#fff;}</style></defs><title>laptop</title><circle class="cls-1" cx="50.75" cy="50.75" r="50.75"/><path class="cls-2" d="M82.64,70H57.07a1.27,1.27,0,0,0-1.27,1.27,2.12,2.12,0,0,1-2.12,2.12H49.45a2.12,2.12,0,0,1-2.12-2.12A1.27,1.27,0,0,0,46.06,70H26.19V37.32a2.65,2.65,0,0,1,2.65-2.65H44.71v.11l-2.64,2.5h0a12.16,12.16,0,0,0-3.58,8.65v5.68a1.27,1.27,0,0,0,2.13.94l5.57-5a1.27,1.27,0,0,0,.74.58,16.44,16.44,0,0,0,4.6.67h.06a16.44,16.44,0,0,0,4.66-.65,1.27,1.27,0,0,0,.75-.6l5.6,5a1.27,1.27,0,0,0,2.13-.94V46a12.16,12.16,0,0,0-3.58-8.65L58.7,34.88v-.19H74.33A2.65,2.65,0,0,1,77,37.34V60.65a1.27,1.27,0,0,0,2.55,0V37.32a5.2,5.2,0,0,0-5.2-5.2H59a21.14,21.14,0,0,0-5.42-15.84L53.34,16a2.17,2.17,0,0,0-1.61-.71h0a2.17,2.17,0,0,0-1.61.74l-.42.48a21.23,21.23,0,0,0-5.24,15.61H28.85a5.2,5.2,0,0,0-5.2,5.2h0V70H20.52a1.27,1.27,0,0,0-1.27,1.27v2a7.21,7.21,0,0,0,7.2,7.2H76.71a7.21,7.21,0,0,0,7.2-7.2v-2A1.27,1.27,0,0,0,82.67,70Zm-25-27.15L58.25,38l1,1a9.63,9.63,0,0,1,2.84,6.85v2.82l-4.7-4.24ZM51.57,18.22l.15-.17a18.6,18.6,0,0,1,4.62,14.77L56,35.14h0l-1.23,9.71h0l-.13,1a13.89,13.89,0,0,1-3.14.36h0a13.9,13.9,0,0,1-3.08-.36l-1-9.68-.11-1.09h0l-.28-2.7a18.67,18.67,0,0,1,4.51-14.15ZM45.72,44.51,41,48.77V45.95a9.63,9.63,0,0,1,2.83-6.84L45,38Zm31,33.42H26.45a4.66,4.66,0,0,1-4.66-4.66h0v-.71H45A4.67,4.67,0,0,0,49.45,76h4.23a4.67,4.67,0,0,0,4.49-3.39h23.2v.71h0a4.66,4.66,0,0,1-4.65,4.67h0Z"/><path class="cls-2" d="M73.07,37.51H66.66a1.28,1.28,0,0,0,0,2.55h5.13V64.71h-40V40.06h4a1.28,1.28,0,0,0,0-2.55H30.48a1.27,1.27,0,0,0-1.27,1.27V66a1.27,1.27,0,0,0,1.27,1.27H73A1.27,1.27,0,0,0,74.3,66V38.78A1.27,1.27,0,0,0,73.07,37.51Z"/><circle class="cls-2" cx="51.59" cy="28.76" r="1.27"/><circle class="cls-2" cx="78.25" cy="66.2" r="1.27"/><path class="cls-2" d="M48.25,50.66A1.27,1.27,0,0,0,47,51.93v5.22a1.27,1.27,0,0,0,2.55,0V52a1.27,1.27,0,0,0-1.23-1.31Z"/><path class="cls-2" d="M54.74,50.37a1.27,1.27,0,0,0-1.27,1.27v7.64a1.27,1.27,0,1,0,2.55,0V51.64a1.27,1.27,0,0,0-1.27-1.27Z"/></svg>