<svg id="Layer_1" data-name="Layer 1" xmlns="http://www.w3.org/2000/svg" viewBox="0 0 143.34 101.5"><defs><style>.cls-1{fill:#1fb6ff;}.cls-2{fill:#fff;}</style></defs><title>laptop1</title><circle class="cls-1" cx="50.75" cy="50.75" r="50.75"/><circle class="cls-1" cx="130.92" cy="50.92" r="12.42"/><circle class="cls-2" cx="35.17" cy="48.99" r="1.43"/><circle class="cls-2" cx="43.35" cy="53.77" r="1.43"/><circle class="cls-2" cx="51.5" cy="44.89" r="1.43"/><circle class="cls-2" cx="59.48" cy="48.42" r="1.43"/><circle class="cls-2" cx="67.38" cy="38.31" r="1.43"/><path class="cls-2" d="M86.23,66.57h-29A1.43,1.43,0,0,0,55.8,68a2.42,2.42,0,0,1-2.42,2.42h-4.8A2.42,2.42,0,0,1,46.17,68a1.43,1.43,0,0,0-1.43-1.43H22.19V29.47a3,3,0,0,1,3-3H76.79a3,3,0,0,1,3,3V57a1.43,1.43,0,0,0,2.86,0V29.47a5.89,5.89,0,0,0-5.88-5.88H25.21a5.89,5.89,0,0,0-5.88,5.88v37.1H15.77A1.43,1.43,0,0,0,14.33,68v2.25a8.17,8.17,0,0,0,8.16,8.16h57a8.17,8.17,0,0,0,8.16-8.16V68A1.43,1.43,0,0,0,86.23,66.57ZM84.8,70.25a5.3,5.3,0,0,1-5.3,5.3h-57a5.3,5.3,0,0,1-5.3-5.3v-.82H43.5a5.29,5.29,0,0,0,5.08,3.85h4.8a5.29,5.29,0,0,0,5.08-3.85H84.8Z"/><path class="cls-2" d="M75.37,29.69H27.11a1.43,1.43,0,0,0-1.43,1.43V62a1.43,1.43,0,0,0,1.43,1.43H75.37A1.43,1.43,0,0,0,76.81,62V31.13A1.43,1.43,0,0,0,75.37,29.69ZM73.94,60.55H68.81V43.38a1.43,1.43,0,1,0-2.86,0V60.55H60.76V54.17a1.43,1.43,0,1,0-2.86,0v6.37H52.71V50.87a1.43,1.43,0,1,0-2.86,0v9.68H44.65V59.16a1.43,1.43,0,1,0-2.86,0v1.38H36.6V54.87a1.43,1.43,0,0,0-2.86,0v5.68H28.54v-28h45.4Z"/><circle class="cls-2" cx="81.08" cy="62.64" r="1.43"/></svg>