<svg id="Слой_1" data-name="Слой 1" xmlns="http://www.w3.org/2000/svg" viewBox="0 0 101.5 101.5"><defs><style>.cls-1{fill:#1fb6ff;}.cls-2{fill:#fff;}</style></defs><title>libra</title><circle class="cls-1" cx="50.75" cy="50.75" r="50.75"/><path class="cls-2" d="M88.45,40.71h-1c-1-5.15-6.22-14.21-8.52-18a4.12,4.12,0,1,0-4.65,0c-2.3,3.84-7.51,12.9-8.52,18h-1a1.55,1.55,0,0,0-1.55,1.55,13.44,13.44,0,0,0,26.89,0,1.55,1.55,0,0,0-1.55-1.55ZM76.56,18.26a1,1,0,1,1-1,1A1,1,0,0,1,76.56,18.26Zm0,6.57c2.63,4.44,6.69,11.83,7.69,15.88H68.88c.94-3.79,4.59-10.71,7.67-15.88Zm0,27.77a10.35,10.35,0,0,1-10.22-8.78H86.78A10.35,10.35,0,0,1,76.56,52.6Z"/><path class="cls-2" d="M64.83,77.92H60.72V74a1.55,1.55,0,0,0-1.55-1.55h-4V29A5.88,5.88,0,0,0,57,25.12l6.57-1.41a1.55,1.55,0,1,0-.65-3L56.3,22.08a5.89,5.89,0,0,0-11.1,2.39L28.77,28a4.11,4.11,0,1,0-5.65,5.82c-2.3,3.84-7.51,12.9-8.52,18h-1a1.55,1.55,0,0,0-1.6,1.5s0,.07,0,.11a13.44,13.44,0,0,0,26.89,0,1.55,1.55,0,0,0-1.55-1.55h-1c-1-5.15-6.22-14.21-8.52-18A4.12,4.12,0,0,0,29.52,31l16.32-3.51a5.93,5.93,0,0,0,1.1,1.5v43.4H43a1.55,1.55,0,0,0-1.56,1.54s0,0,0,.07v3.95H37.33a1.55,1.55,0,0,0-1.55,1.55h0v5.82a1.55,1.55,0,0,0,1.55,1.55h27.5a1.55,1.55,0,0,0,1.55-1.55h0V79.47a1.55,1.55,0,0,0-1.55-1.55ZM25.44,29.42a1,1,0,1,1-1,1A1,1,0,0,1,25.44,29.42Zm0,34.34A10.35,10.35,0,0,1,15.22,55H35.66A10.35,10.35,0,0,1,25.44,63.76Zm7.69-11.89H17.76c.94-3.8,4.6-10.7,7.68-15.88C28.07,40.43,32.13,47.82,33.13,51.87ZM51.08,22a2.79,2.79,0,1,1-2.79,2.79A2.79,2.79,0,0,1,51.08,22Zm1,8.59V72.42H50V30.62a5.82,5.82,0,0,0,2.07,0Zm-7.57,44.9h13.1v2.39H44.55V75.52Zm18.73,8.22H38.89V81H63.28Z"/><path class="cls-2" d="M70.72,20.67a1.55,1.55,0,0,0-1.84-1.19h0l-1.13.24a1.55,1.55,0,1,0,.65,3l1.13-.24A1.55,1.55,0,0,0,70.72,20.67Z"/></svg>