<svg id="Layer_1" data-name="Layer 1" xmlns="http://www.w3.org/2000/svg" viewBox="0 0 101.5 101.5"><defs><style>.cls-1{fill:#1fb6ff;}.cls-2{fill:#fff;}</style></defs><title>lights</title><circle class="cls-1" cx="50.75" cy="50.75" r="50.75"/><circle class="cls-2" cx="50.57" cy="41.37" r="1.28"/><path class="cls-2" d="M76.37,27.07a19.74,19.74,0,0,0-25.59-1.84,19.77,19.77,0,0,0-25,30.54,8.94,8.94,0,0,1,2.91,6.61v2.77a4.7,4.7,0,0,0,2.13,3.93v6.69a4.37,4.37,0,0,0,4.36,4.37h7.77a4.37,4.37,0,0,0,4.37-4.37h0V69.08a4.7,4.7,0,0,0,2.13-3.93V62.41a9,9,0,0,1,1.36-4.72,9,9,0,0,1,1.35,4.72v2.74a4.7,4.7,0,0,0,2.13,3.93v6.69a4.37,4.37,0,0,0,4.37,4.37h7.77a4.37,4.37,0,0,0,4.36-4.37V69.08a4.69,4.69,0,0,0,2.1-3.93V62.41a9,9,0,0,1,2.94-6.64,19.78,19.78,0,0,0,1.3-27.94q-.35-.39-.73-.76ZM44.8,75.77a1.89,1.89,0,0,1-1.89,1.89H35.14a1.89,1.89,0,0,1-1.89-1.89h0V69.84H44.79v5.93Zm2.13-13.36v2.74a2.22,2.22,0,0,1-2.22,2.22H33.35a2.22,2.22,0,0,1-2.22-2.22h0V62.41A11.42,11.42,0,0,0,27.4,54,17.3,17.3,0,0,1,38.78,23.89H39a17.17,17.17,0,0,1,9.79,3l-.27.27A19.74,19.74,0,0,0,48.42,55l.68.65a11.46,11.46,0,0,0-2.17,6.71Zm3.83-8.54a17.22,17.22,0,0,1-1.08-24.33h0q.52-.56,1.08-1.08l.39.37a17.3,17.3,0,0,1,.13,24.47h0l-.55.53Zm17.5,21.89a1.89,1.89,0,0,1-1.89,1.89H58.56a1.89,1.89,0,0,1-1.89-1.89h0V69.83H68.26Zm5.88-21.82a11.49,11.49,0,0,0-3.75,8.47v2.74a2.22,2.22,0,0,1-2.22,2.22H56.8a2.22,2.22,0,0,1-2.24-2.2v0h0V62.41a11.45,11.45,0,0,0-2.17-6.7,19.77,19.77,0,0,0,1.17-27.93q-.33-.36-.68-.71l-.17-.17a17.1,17.1,0,0,1,9.52-3h.25A17.3,17.3,0,0,1,74.16,53.94Z"/><path class="cls-2" d="M70.2,30.64a1.24,1.24,0,0,0-1.48,2h0a10.25,10.25,0,0,1,4.16,8.28,10.37,10.37,0,0,1-4.25,8.35,1.24,1.24,0,1,0,1.32,2.1l0,0,.11-.08a12.8,12.8,0,0,0,.11-20.61Z"/><path class="cls-2" d="M32.91,49.49a10.33,10.33,0,0,1,0-17.15,1.24,1.24,0,0,0-1.35-2.05,12.81,12.81,0,0,0,0,21.26,1.24,1.24,0,0,0,1.42-2h0Z"/></svg>