<svg id="Слой_1" data-name="Слой 1" xmlns="http://www.w3.org/2000/svg" viewBox="0 0 139.84 101.5"><defs><style>.cls-1{fill:#1fb6ff;}.cls-2{fill:#fff;}</style></defs><title>like</title><circle class="cls-1" cx="50.75" cy="50.75" r="50.75"/><circle class="cls-2" cx="33.78" cy="58.24" r="1.25"/><path class="cls-2" d="M84,46.76v-.13a5.43,5.43,0,0,0-5.43-5.43H63.08a23.35,23.35,0,0,0,3.13-11.33V26.25a5.09,5.09,0,0,0-5.07-5.08,5,5,0,0,0-3.62,1.51A4.88,4.88,0,0,0,56.28,25a23.15,23.15,0,0,1-1.41,4.54,31.63,31.63,0,0,1-9,12,30.15,30.15,0,0,1-3.24,2.29,3.64,3.64,0,0,0-3.5-2.66h-20a1.29,1.29,0,0,0-1.29,1.29h0V75.9a1.29,1.29,0,0,0,1.29,1.29h20a3.63,3.63,0,0,0,3.62-3.32,13.59,13.59,0,0,0,8.92,3.32H78.56a5.42,5.42,0,0,0,3.51-9.56A5.41,5.41,0,0,0,84,63.5v-.16a5.41,5.41,0,0,0-1.91-4.13A5.42,5.42,0,0,0,84,55.08h0A5.41,5.41,0,0,0,82.09,51,5.41,5.41,0,0,0,84,46.76ZM40.19,46h0V73.54a1,1,0,0,1-1,1H34.42V63.33a1.29,1.29,0,0,0-2.58,0h0V74.59H20.42V43.78H39.13a1,1,0,0,1,1,1v1.16ZM75,52.18h3.58A2.84,2.84,0,0,1,81.41,55h0a2.84,2.84,0,0,1-2.84,2.84H75a1.29,1.29,0,1,0,0,2.58h3.59a2.84,2.84,0,0,1,2.84,2.84v.16a2.84,2.84,0,0,1-2.84,2.84H75a1.29,1.29,0,1,0,0,2.58h3.59a2.84,2.84,0,0,1,0,5.68H51.68A11,11,0,0,1,44,71.44l-1.22-1.17V46.77a32.86,32.86,0,0,0,4.74-3.21,34.18,34.18,0,0,0,9.72-12.94,25.68,25.68,0,0,0,1.57-5,2.27,2.27,0,0,1,.58-1.12,2.41,2.41,0,0,1,1.69-.71h0a2.5,2.5,0,0,1,2.5,2.5v3.54a20.84,20.84,0,0,1-4,11.91,1.29,1.29,0,0,0,1,2h17.9a2.84,2.84,0,0,1,2.84,2.84v.13h0a2.84,2.84,0,0,1-2.84,2.84H74.9a1.29,1.29,0,1,0,0,2.58Z"/><circle class="cls-1" cx="129.92" cy="50.92" r="9.92"/></svg>