<svg id="Capa_1" data-name="Capa 1" xmlns="http://www.w3.org/2000/svg" viewBox="0 0 693 513"><defs><style>.cls-1,.cls-3{fill:#1fb6ff;}.cls-1{stroke:#fff;stroke-miterlimit:10;}.cls-2{fill:#fff;}</style></defs><title>list</title><path class="cls-1" d="M256.5.5C115.34.5.5,115.34.5,256.5s114.84,256,256,256,256-114.85,256-256S397.67.5,256.5.5Z"/><path class="cls-2" d="M368.24,93.3H144.76a6.5,6.5,0,0,0-6.5,6.5h0V413.19a6.5,6.5,0,0,0,6.5,6.5H314.69a6.5,6.5,0,0,0,4.6-1.9l53.55-53.55a6.5,6.5,0,0,0,1.9-4.6V99.81a6.5,6.5,0,0,0-6.49-6.51h0ZM321.18,397.5V366.1h31.4Zm40.56-44.37H314.65a6.5,6.5,0,0,0-6.5,6.5h0v47.08H151.26V106.31H361.74Z"/><path class="cls-2" d="M217.13,148a6.5,6.5,0,0,0-9.19,0h0L188.8,167.13l-4.75-4.75a6.51,6.51,0,0,0-9.2,9.2l9.35,9.35a6.5,6.5,0,0,0,9.19,0h0l23.73-23.73a6.5,6.5,0,0,0,0-9.19Z"/><path class="cls-2" d="M333.55,161h-2.28a6.5,6.5,0,0,0,0,13h2.28a6.5,6.5,0,0,0,0-13Z"/><path class="cls-2" d="M310.5,161H237.7a6.5,6.5,0,1,0,0,13h72.8a6.5,6.5,0,0,0,0-13Z"/><path class="cls-2" d="M217.13,210.94a6.5,6.5,0,0,0-9.19,0h0L188.8,230.08l-4.75-4.75a6.51,6.51,0,0,0-9.2,9.2l9.35,9.35a6.5,6.5,0,0,0,9.19,0h0l23.73-23.73a6.5,6.5,0,0,0,0-9.19Z"/><path class="cls-2" d="M333.55,223.9H237.67a6.5,6.5,0,0,0,0,13h95.89a6.5,6.5,0,0,0,0-13Z"/><path class="cls-2" d="M217.13,273.68a6.5,6.5,0,0,0-9.19,0h0L188.8,292.82l-4.75-4.75a6.51,6.51,0,0,0-9.2,9.2l9.35,9.35a6.5,6.5,0,0,0,9.19,0h0l23.73-23.73a6.5,6.5,0,0,0,0-9.19Z"/><path class="cls-2" d="M333.55,286.64H237.67a6.5,6.5,0,0,0,0,13h95.89a6.5,6.5,0,0,0,0-13Z"/><circle class="cls-3" cx="643" cy="256.5" r="50"/></svg>