<svg id="Слой_1" data-name="Слой 1" xmlns="http://www.w3.org/2000/svg" viewBox="0 0 101.5 101.5"><defs><style>.cls-1{fill:#1fb6ff;}.cls-2{fill:#fff;}</style></defs><title>masks</title><circle class="cls-1" cx="50.75" cy="50.75" r="50.75"/><path class="cls-2" d="M59.21,36A1.37,1.37,0,0,0,58,35.37h0c-.06,0-6,0-14-3.57a1.37,1.37,0,0,0-1.13,2.5A42.87,42.87,0,0,0,55.76,38C52,44.59,42.13,60.82,22.58,59.7c-10.47-16.19-1.73-32.87,2.18-39.6a43.07,43.07,0,0,0,9.69,9.38A1.37,1.37,0,0,0,36,27.23a37,37,0,0,1-10.16-10.4,1.37,1.37,0,0,0-1.19-.7h0a1.37,1.37,0,0,0-1.19.69l-.47.8a58.47,58.47,0,0,0-7.24,17.22c-2.16,9.87-.52,18.93,4.88,26.94a1.37,1.37,0,0,0,1,.6q1.45.11,2.83.11c20.73,0,30.72-18,34.1-24l.58-1A1.37,1.37,0,0,0,59.21,36Z"/><path class="cls-2" d="M40,29.74h-.06a1.37,1.37,0,0,0-1.38,2.37h.07a1.37,1.37,0,0,0,1.37-2.38Z"/><path class="cls-2" d="M38.28,46.4a1.76,1.76,0,0,0-2.18-.19,5.58,5.58,0,0,1-8.63-5,1.76,1.76,0,0,0-3.28-1h0A8.32,8.32,0,0,0,38.6,48.53h0A1.75,1.75,0,0,0,38.28,46.4ZM28.6,49.24a5.55,5.55,0,0,1-2.51-3.09,8.38,8.38,0,0,0,6.44,3.72A5.53,5.53,0,0,1,28.6,49.24Z"/><path class="cls-2" d="M33.3,36.06a6.27,6.27,0,0,0-7.67-4.43,1.37,1.37,0,1,0,.71,2.65,3.52,3.52,0,0,1,4.31,2.49,1.37,1.37,0,1,0,2.65-.71Z"/><path class="cls-2" d="M45.33,43a6.27,6.27,0,0,0-7.67-4.43,1.37,1.37,0,1,0,.71,2.65,3.52,3.52,0,0,1,4.31,2.49A1.37,1.37,0,1,0,45.33,43Z"/><path class="cls-2" d="M76.94,41.76l-.6-1a1.37,1.37,0,0,0-2.39,0c0,.06-3,5.18-10,10.24a1.37,1.37,0,1,0,1.61,2.22h0A42.78,42.78,0,0,0,75.08,44C78.93,50.5,88,67.22,77.29,83.59,58,84.57,48,68.66,44.09,61.91A43,43,0,0,0,57,58.25a1.37,1.37,0,0,0-1.13-2.5,37,37,0,0,1-14,3.56h0a1.37,1.37,0,0,0-1.19,2.06l.46.81A58.48,58.48,0,0,0,52.38,77c6.8,6.2,14.6,9.33,23.21,9.33q1.27,0,2.56-.09a1.37,1.37,0,0,0,1-.59C92,66.94,80.66,48,76.94,41.76Z"/><path class="cls-2" d="M61.85,54.12A1.37,1.37,0,0,0,60,53.61h0A1.37,1.37,0,1,0,61.31,56h0a1.37,1.37,0,0,0,.55-1.86Z"/><path class="cls-2" d="M79,69.86h0a8.32,8.32,0,0,0-14.41,8.32h0a1.75,1.75,0,0,0,1.51.87,1.77,1.77,0,0,0,1.76-1.78s0-.06,0-.09a5.58,5.58,0,0,1,8.63-5A1.76,1.76,0,0,0,79,69.86Zm-9.73-.21a8.32,8.32,0,0,0-2.79,2.62,5.56,5.56,0,0,1,6.45-3.72,8.33,8.33,0,0,0-3.7,1.1Z"/><path class="cls-2" d="M78.94,69.84Z"/><path class="cls-2" d="M74.23,55.56a1.37,1.37,0,0,0-1.67,1v0A3.52,3.52,0,0,1,68.24,59a1.37,1.37,0,0,0-.71,2.65h0a6.19,6.19,0,0,0,7.63-4.42A1.37,1.37,0,0,0,74.23,55.56Z"/><path class="cls-2" d="M62.19,62.5a1.37,1.37,0,0,0-1.67,1v0a3.52,3.52,0,0,1-4.3,2.5h0a1.37,1.37,0,0,0-.71,2.65h0a6.19,6.19,0,0,0,7.63-4.42,1.37,1.37,0,0,0-.89-1.72Z"/></svg>