<svg id="Layer_1" data-name="Layer 1" xmlns="http://www.w3.org/2000/svg" viewBox="0 0 101.5 101.5"><defs><style>.cls-1{fill:#1fb6ff;}.cls-2{fill:#fff;}</style></defs><title>molecule</title><circle class="cls-1" cx="50.75" cy="50.75" r="50.75"/><path class="cls-2" d="M92.57,4.44a1.32,1.32,0,0,0-1.32,1.32h0a1.33,1.33,0,0,0,2.65,0h0a1.32,1.32,0,0,0-1.32-1.32Z"/><path class="cls-2" d="M74.09,57a1.32,1.32,0,0,0-1.87,0h0a1.33,1.33,0,0,0,1.87,1.88h0a1.32,1.32,0,0,0,0-1.87h0Z"/><path class="cls-2" d="M54.59,50.81h0a1.33,1.33,0,0,0,0,2.65h0a1.33,1.33,0,0,0,.23-2.65Z"/><path class="cls-2" d="M74.08,45.41A9.53,9.53,0,0,0,59.19,57.1L40.3,72.54A7.68,7.68,0,1,0,35.3,86a7.85,7.85,0,0,0,1-.07,1.33,1.33,0,1,0-.3-2.6,5,5,0,1,1,4.32-4.24,1.32,1.32,0,0,0,2.62.39A7.72,7.72,0,0,0,42,74.57L60.88,59.13a9.52,9.52,0,0,0,9.23,2.13,1.33,1.33,0,0,0-.76-2.54h0a6.89,6.89,0,1,1,4.54-4.42,1.32,1.32,0,1,0,2.51.83A9.49,9.49,0,0,0,74.08,45.41Z"/><path class="cls-2" d="M69.19,18.23a7.69,7.69,0,0,0-7.56,6.36h-23A7.68,7.68,0,0,0,25,21.23,1.34,1.34,0,1,0,27,23l.12-.16h0a5,5,0,0,1,9,2.75,1.28,1.28,0,0,0,0,.63A5,5,0,0,1,27,28.9a1.32,1.32,0,1,0-2.13,1.57h0a7.72,7.72,0,0,0,5.69,3.1L32,46.13a6.35,6.35,0,1,0,8.25,7.33h10a1.33,1.33,0,0,0,0-2.65h-10a6.36,6.36,0,0,0-5.61-5L33.18,33.27a7.7,7.7,0,0,0,5.42-6h23a7.68,7.68,0,1,0,7.56-9ZM33.63,48.47H34a3.71,3.71,0,1,1-.43,0ZM69.19,30.94a5,5,0,1,1,5-5A5,5,0,0,1,69.19,30.94Z"/></svg>