<svg id="Слой_1" data-name="Слой 1" xmlns="http://www.w3.org/2000/svg" viewBox="0 0 101.5 101.5"><defs><style>.cls-1{fill:#1fb6ff;}.cls-2{fill:#fff;}</style></defs><title>network1</title><circle class="cls-1" cx="50.75" cy="50.75" r="50.75"/><path class="cls-2" d="M36.72,16.29A5.12,5.12,0,0,0,33,14.68H29.64a5.1,5.1,0,0,0-5.1,5.1q0,.17,0,.34l.15,2.29.3,5.34a6.29,6.29,0,0,0,12.55,0l.4-6.11.1-1.53A5.12,5.12,0,0,0,36.72,16.29Zm-9.28,3.63a2.2,2.2,0,0,1,2.06-2.34H32l-.41,1.11c-.21.3-1.24,1.54-4,2Zm7.25,7.64a3.38,3.38,0,0,1-6.75,0l-.26-4a10.37,10.37,0,0,0,5-1.94,5.22,5.22,0,0,0,.59.35,9.56,9.56,0,0,0,1.78.64Zm-.13-8.12-.16-.09.34-.91a2.17,2.17,0,0,1,.45,1.24A4.36,4.36,0,0,1,34.56,19.44Z"/><path class="cls-2" d="M46.61,45.29,46,42.22h0a9.42,9.42,0,0,0-9.27-7.74H35.11a1.45,1.45,0,0,0-1,.43l-2.77,2.77-2.8-2.78a1.45,1.45,0,0,0-1-.43h-1.7a9.42,9.42,0,0,0-9.27,7.74L16,45.29A1.45,1.45,0,0,0,17.17,47l.28,0H45.18a1.45,1.45,0,0,0,1.43-1.71ZM19.19,44.1l.25-1.36a6.51,6.51,0,0,1,6.41-5.35h1.07l3.37,3.37a1.45,1.45,0,0,0,2.05,0h0l3.37-3.37h1.07a6.51,6.51,0,0,1,6.41,5.35l.25,1.36Z"/><path class="cls-2" d="M75.59,56.92a5.12,5.12,0,0,0-3.72-1.61H68.5a5.1,5.1,0,0,0-5.1,5.1q0,.17,0,.34L63.56,63l.35,5.35a6.29,6.29,0,0,0,12.55,0l.4-6.11.1-1.53A5.12,5.12,0,0,0,75.59,56.92Zm-9.28,3.63a2.2,2.2,0,0,1,2.06-2.34h2.45l-.41,1.11c-.21.3-1.24,1.54-4,2Zm7.25,7.64a3.38,3.38,0,0,1-6.75,0l-.26-3.95a10.37,10.37,0,0,0,5-1.94,5.24,5.24,0,0,0,.59.35,9.57,9.57,0,0,0,1.78.64Zm-.13-8.12L73.27,60l.34-.91a2.16,2.16,0,0,1,.45,1.24A4.39,4.39,0,0,1,73.43,60.07Z"/><path class="cls-2" d="M85.48,85.91l-.56-3.07h0a9.42,9.42,0,0,0-9.27-7.74H74a1.45,1.45,0,0,0-1,.43L70.18,78.3l-2.77-2.77a1.45,1.45,0,0,0-1-.43h-1.7a9.42,9.42,0,0,0-9.27,7.74l-.56,3.07A1.45,1.45,0,0,0,56,87.6l.26,0H84.05a1.45,1.45,0,0,0,1.43-1.71ZM58.06,84.72l.25-1.36A6.51,6.51,0,0,1,64.71,78h1.07l3.37,3.37a1.45,1.45,0,0,0,2.05,0h0L74.58,78h1.07a6.51,6.51,0,0,1,6.41,5.35h0l.25,1.36Z"/><path class="cls-2" d="M80.21,50.93a1.45,1.45,0,1,0-2.9.15v1.44a1.46,1.46,0,1,0,2.91,0C80.25,52,80.23,51.46,80.21,50.93Z"/><path class="cls-2" d="M78.84,43.31a30.94,30.94,0,0,0-11-15.4,30.38,30.38,0,0,0-16.37-6l.86-.86a1.45,1.45,0,0,0-2-2.05l-3.39,3.39a1.45,1.45,0,0,0,0,2.05h0l3.39,3.39a1.46,1.46,0,1,0,2.06-2.06l-1-1a27.64,27.64,0,0,1,24.68,19.4,1.45,1.45,0,1,0,2.77-.87Z"/><path class="cls-2" d="M51.5,80.46l-3.39-3.39A1.46,1.46,0,0,0,46,79.13h0l1.06,1.06A27.81,27.81,0,0,1,21.8,52.52a1.45,1.45,0,1,0-2.91,0h0A30.72,30.72,0,0,0,46.83,83.07l-.78.78a1.46,1.46,0,0,0,2.06,2.06h0l3.39-3.39A1.55,1.55,0,0,0,51.5,80.46Z"/></svg>