<svg id="Layer_1" data-name="Layer 1" xmlns="http://www.w3.org/2000/svg" viewBox="0 0 143.34 101.5"><defs><style>.cls-1{fill:#1fb6ff;}.cls-2{fill:#fff;}</style></defs><title>networking2</title><circle class="cls-1" cx="50.75" cy="50.75" r="50.75"/><circle class="cls-1" cx="130.92" cy="50.92" r="12.42"/><path class="cls-2" d="M77.06,72.65V69.74a4.87,4.87,0,0,0-4.86-4.86H52.3V63.66a1.3,1.3,0,1,0-2.6,0v1.21H29.8a4.87,4.87,0,0,0-4.86,4.86v2.92a5.9,5.9,0,1,0,2.6,0V69.74a2.26,2.26,0,0,1,2.26-2.26H49.7v5.18a5.9,5.9,0,1,0,2.6,0V67.47H72.2a2.26,2.26,0,0,1,2.26,2.26v2.92a5.9,5.9,0,1,0,2.6,0ZM29.54,78.41a3.3,3.3,0,1,1-3.3-3.3A3.31,3.31,0,0,1,29.54,78.41Zm24.76,0a3.3,3.3,0,1,1-3.3-3.3A3.31,3.31,0,0,1,54.3,78.41Zm21.46,3.3a3.3,3.3,0,1,1,3.3-3.3A3.31,3.31,0,0,1,75.76,81.71Z"/><path class="cls-2" d="M51,17.69A20.41,20.41,0,0,0,38.19,54l.1.1a20.62,20.62,0,0,0,3.22,2.11h0a20.38,20.38,0,0,0,20.86-1.13h0q.68-.46,1.32-1l.1-.1A20.41,20.41,0,0,0,51,17.69Zm0,38.24a17.72,17.72,0,0,1-10.41-3.37,11,11,0,0,1,20.82,0A17.72,17.72,0,0,1,51,55.93ZM46.26,38.11a4.37,4.37,0,1,1,4.37,4.37A4.37,4.37,0,0,1,46.26,38.11ZM63.53,50.76a13.2,13.2,0,0,0-4-5.35,13.56,13.56,0,0,0-4.11-2.22,7,7,0,1,0-9.31.19,13.53,13.53,0,0,0-3.58,2,13.2,13.2,0,0,0-4,5.35,17.82,17.82,0,1,1,25.06,0Z"/><circle class="cls-2" cx="51" cy="60.44" r="1.3"/></svg>