<svg id="Layer_1" data-name="Layer 1" xmlns="http://www.w3.org/2000/svg" viewBox="0 0 143.34 101.5"><defs><style>.cls-1{fill:#1fb6ff;}.cls-2{fill:#fff;}</style></defs><title>networking1</title><circle class="cls-1" cx="50.75" cy="50.75" r="50.75"/><path class="cls-2" d="M50,60.79A14,14,0,0,0,41.18,85.7l.19.16a14,14,0,0,0,17.25,0l.19-.16A14,14,0,0,0,50,60.79ZM50,86a11.08,11.08,0,0,1-6.15-1.86,6.66,6.66,0,0,1,12.31,0A11.08,11.08,0,0,1,50,86ZM47.47,74.81a2.29,2.29,0,1,1,2.29,2.29A2.29,2.29,0,0,1,47.47,74.81Zm10.94,7.3a9.45,9.45,0,0,0-4.53-4.19,5.17,5.17,0,1,0-8.11.17,9.44,9.44,0,0,0-4.17,4,11.14,11.14,0,1,1,16.81,0Z"/><path class="cls-2" d="M27.2,19.17a14,14,0,0,0-8.82,24.91l.19.16a14,14,0,0,0,17.25,0l.19-.16A14,14,0,0,0,27.2,19.17Zm0,25.16A11.08,11.08,0,0,1,21,42.47a6.66,6.66,0,0,1,12.31,0A11.08,11.08,0,0,1,27.2,44.33ZM24.66,33.19A2.29,2.29,0,1,1,27,35.48,2.29,2.29,0,0,1,24.66,33.19Zm10.94,7.3a9.45,9.45,0,0,0-4.53-4.19,5.17,5.17,0,1,0-8.11.17,9.44,9.44,0,0,0-4.17,4,11.14,11.14,0,1,1,16.81,0Z"/><path class="cls-2" d="M72.8,19.17A14,14,0,0,0,64,44.08l.19.16a14,14,0,0,0,17.25,0l.19-.16A14,14,0,0,0,72.8,19.17Zm0,25.16a11.08,11.08,0,0,1-6.15-1.86,6.66,6.66,0,0,1,12.31,0A11.08,11.08,0,0,1,72.8,44.33ZM70.27,33.19a2.29,2.29,0,1,1,2.29,2.29A2.29,2.29,0,0,1,70.27,33.19Zm10.94,7.3a9.45,9.45,0,0,0-4.53-4.19,5.17,5.17,0,1,0-8.11.17,9.44,9.44,0,0,0-4.17,4,11.14,11.14,0,1,1,16.81,0Z"/><path class="cls-2" d="M33.46,68.3h0a1.44,1.44,0,0,0-1.87,2.19h0a1.44,1.44,0,0,0,1.87-2.19Z"/><path class="cls-2" d="M30.65,65.42l0,0a1.44,1.44,0,0,0-2.2,1.85h0a1.44,1.44,0,0,0,2.22-1.83Z"/><path class="cls-2" d="M28.32,62.12l0,0a1.44,1.44,0,0,0-2.47,1.48h0a1.44,1.44,0,0,0,2.48-1.45Z"/><path class="cls-2" d="M25.34,54.62a1.44,1.44,0,1,0-2.81.61v0a1.44,1.44,0,0,0,2.81-.64Z"/><path class="cls-2" d="M26.53,58.49v0a1.44,1.44,0,0,0-2.67,1.08h0a1.44,1.44,0,1,0,2.67-1.06Z"/><path class="cls-2" d="M68.59,68.46a1.44,1.44,0,0,0-2-.17h0a1.44,1.44,0,0,0,1.87,2.19h0A1.44,1.44,0,0,0,68.59,68.46Z"/><path class="cls-2" d="M75.35,57.67a1.44,1.44,0,0,0-1.87.8v0a1.44,1.44,0,0,0,1.33,2,1.44,1.44,0,0,0,.55-2.78Z"/><path class="cls-2" d="M71.39,65.22a1.44,1.44,0,0,0-2,.17l0,0a1.44,1.44,0,0,0,1.11,2.35,1.44,1.44,0,0,0,.94-2.54Z"/><path class="cls-2" d="M76.38,53.52a1.44,1.44,0,0,0-1.71,1.09h0a1.44,1.44,0,1,0,2.81.64v0A1.43,1.43,0,0,0,76.38,53.52Z"/><path class="cls-2" d="M73.67,61.6a1.44,1.44,0,0,0-2,.49l0,0a1.44,1.44,0,1,0,2-.52Z"/><path class="cls-2" d="M76.75,49.26a1.44,1.44,0,0,0-1.52,1.36h0a1.43,1.43,0,0,0,1.36,1.51h.08a1.44,1.44,0,0,0,.08-2.88Z"/><path class="cls-2" d="M58.95,21.77h0a1.44,1.44,0,1,0-.88,2.74h0a1.44,1.44,0,1,0,.88-2.74Z"/><path class="cls-2" d="M54.53,20.73h0a1.44,1.44,0,1,0-.43,2.84l.23,0a1.44,1.44,0,0,0,.23-2.86Z"/><path class="cls-2" d="M50,20.41h0a1.44,1.44,0,0,0,0,2.88h0a1.44,1.44,0,0,0,0-2.88Z"/><path class="cls-2" d="M42.82,22.74a1.44,1.44,0,0,0-1.79-1h0a1.44,1.44,0,1,0,1.81,1Z"/><path class="cls-2" d="M47.09,22a1.44,1.44,0,0,0-1.65-1.19l.21,1.42-.21-1.42a1.44,1.44,0,0,0,.21,2.86l.21,0h0A1.44,1.44,0,0,0,47.09,22Z"/><path class="cls-2" d="M24.74,50.31a1.44,1.44,0,1,0-2.81.61v0a1.44,1.44,0,0,0,2.81-.64Z"/><circle class="cls-1" cx="130.92" cy="50.92" r="12.42"/></svg>