<svg id="Layer_1" data-name="Layer 1" xmlns="http://www.w3.org/2000/svg" viewBox="0 0 139.84 101.5"><defs><style>.cls-1{fill:#1fb6ff;}.cls-2{fill:#fff;}</style></defs><title>networking</title><circle class="cls-1" cx="50.75" cy="50.75" r="50.75"/><path class="cls-2" d="M77.48,70.7v-3a5,5,0,0,0-4.93-5.06H52.39V61.38a1.32,1.32,0,0,0-2.64,0h0v1.26H29.59a5,5,0,0,0-4.93,5.06v3a6,6,0,1,0,2.64,0v-3a2.32,2.32,0,0,1,2.29-2.35H49.75v5.39a6,6,0,1,0,2.64,0V65.35H72.55a2.32,2.32,0,0,1,2.29,2.35h0v3a6,6,0,1,0,2.64,0Zm-48.15,6A3.35,3.35,0,1,1,26,73.26a3.4,3.4,0,0,1,3.35,3.43Zm25.09,0a3.35,3.35,0,1,1-3.35-3.44,3.4,3.4,0,0,1,3.35,3.43Zm21.74,3.44a3.44,3.44,0,1,1,3.35-3.53v.09a3.4,3.4,0,0,1-3.35,3.42Z"/><path class="cls-2" d="M51.07,13.51c-11.41,0-20.69,9.53-20.69,21.25a21.43,21.43,0,0,0,7.71,16.53l.11.1a20.85,20.85,0,0,0,3.27,2.19h0A20.19,20.19,0,0,0,62.61,52.4h0q.68-.47,1.34-1l.11-.1a21.43,21.43,0,0,0,7.71-16.53C71.76,23,62.48,13.51,51.07,13.51Zm0,39.79a17.64,17.64,0,0,1-10.55-3.5,11,11,0,0,1,21.1,0,17.64,17.64,0,0,1-10.55,3.49Zm-4.8-18.54a4.43,4.43,0,1,1,4.42,4.54,4.49,4.49,0,0,1-4.42-4.55ZM63.76,47.93A13.62,13.62,0,0,0,55.51,40a7.32,7.32,0,0,0,2.24-5.29,7.06,7.06,0,0,0-14.12,0h0a7.32,7.32,0,0,0,2.45,5.49,13.61,13.61,0,0,0-7.71,7.68A18.73,18.73,0,0,1,33,34.75a18.06,18.06,0,0,1,36.11-.85v.85a18.73,18.73,0,0,1-5.34,13.17Z"/><ellipse class="cls-2" cx="51.07" cy="58" rx="1.32" ry="1.35"/><circle class="cls-1" cx="129.92" cy="50.92" r="9.92"/></svg>