<svg id="Layer_1" data-name="Layer 1" xmlns="http://www.w3.org/2000/svg" viewBox="0 0 101.5 101.5"><defs><style>.cls-1{fill:#1fb6ff;}.cls-2{fill:#fff;}</style></defs><title>panel</title><circle class="cls-1" cx="50.75" cy="50.75" r="50.75"/><path class="cls-2" d="M85.2,26l-5-4.19a1.47,1.47,0,0,0-1-.35H56.68v-3a4,4,0,0,0-4-4H47a4,4,0,0,0-4,4v3H35.21a1.47,1.47,0,0,0-1.47,1.47h0V34.6a1.47,1.47,0,0,0,1.47,1.47H43v4.42H20.38a1.47,1.47,0,0,0-1,.35l-5,4.19a3.63,3.63,0,0,0,0,5.55l5,4.19a1.47,1.47,0,0,0,1,.35H43V86.64H37a1.47,1.47,0,0,0,0,2.93H62.62a1.47,1.47,0,0,0,0-2.93h-6V65.94a1.47,1.47,0,0,0-2.93,0v20.7H46V55.11H64.46a1.47,1.47,0,0,0,1.47-1.47h0V42a1.47,1.47,0,0,0-1.47-1.47H56.71V36.11H79.32a1.47,1.47,0,0,0,1-.35l5-4.19a3.63,3.63,0,0,0,0-5.55ZM46,18.4h0a1,1,0,0,1,1-1h5.72a1,1,0,0,1,1,1v3H46Zm17,25v8.75H21L16.44,48.3a.69.69,0,0,1-.12-1l0,0,.09-.09L21,43.39H63ZM46,40.47V36h7.78v4.42Zm37.35-11.2-4.56,3.85h-42V24.37h42l4.56,3.85a.69.69,0,0,1,.12,1l0,0-.09.09Z"/><circle class="cls-2" cx="49.85" cy="28.55" r="1.47"/><circle class="cls-2" cx="49.85" cy="47.79" r="1.47"/><circle class="cls-2" cx="55.21" cy="59.44" r="1.47"/></svg>