<svg id="Layer_1" data-name="Layer 1" xmlns="http://www.w3.org/2000/svg" viewBox="0 0 101.5 101.5"><defs><style>.cls-1{fill:#1fb6ff;}.cls-2{fill:#fff;}</style></defs><title>presentation</title><circle class="cls-1" cx="50.75" cy="50.75" r="50.75"/><circle class="cls-2" cx="91.57" cy="39.27" r="1.73"/><circle class="cls-2" cx="45.89" cy="49.3" r="1.73"/><path class="cls-2" d="M69.74,29.35h-9.2a6.89,6.89,0,0,0-13.57,0h-9.2a3.53,3.53,0,0,0-3.52,3.52v6H27.67a5.61,5.61,0,1,0-8.43.82,10.41,10.41,0,0,0-6.53,9.58v8.81a5.26,5.26,0,0,0,4.75,5.17v11.5h-3a1.19,1.19,0,0,0,0,2.37H70.93a1.19,1.19,0,1,0,0-2.37H62l-3.39-10.1H69.7a3.53,3.53,0,0,0,3.52-3.52V32.93a3.53,3.53,0,0,0-3.48-3.58ZM53.74,26a4.53,4.53,0,0,1,4.41,3.34H49.42A4.53,4.53,0,0,1,53.76,26ZM23.08,32.35a3.24,3.24,0,1,1-3.24,3.24,3.24,3.24,0,0,1,3.24-3.24Zm4,12.63V74.75H24.62V61.45a1.19,1.19,0,1,0-2.37,0v13.3H19.79V49.54a1.18,1.18,0,0,0-2.37,0V60.83A2.88,2.88,0,0,1,15,58V49.24a8.19,8.19,0,0,1,8.32-8H45.15a3.79,3.79,0,0,1-3.59,2.6H28.29A1.18,1.18,0,0,0,27.15,45Zm32.5,29.77H48.72l3.39-10.1h4ZM70.9,61.13a1.16,1.16,0,0,1-1.16,1.16h-32a1.16,1.16,0,0,1-1.16-1.16h0V54.21a1.18,1.18,0,1,0-2.37,0h0v6.92a3.53,3.53,0,0,0,3.52,3.52H49.57l-3.35,10.1H29.47V46.16H41.53A6.15,6.15,0,0,0,47.68,40h0a1.18,1.18,0,0,0-1.18-1.18H36.62v-6a1.16,1.16,0,0,1,1.16-1.16h32a1.16,1.16,0,0,1,1.16,1.16h0Z"/><path class="cls-2" d="M87.51,43.33a1.73,1.73,0,0,0-2.44,0l-7.4,7.4L75,48a1.73,1.73,0,0,0-2.44,0L63,57.57l-2.66-2.66a1.73,1.73,0,0,0-2.44,0l-5,5a1.73,1.73,0,1,0,2.26,2.62h0l.18-.18,3.73-3.73,2.66,2.66a1.73,1.73,0,0,0,2.44,0l9.54-9.54,2.7,2.7a1.73,1.73,0,0,0,2.44,0l8.62-8.62a1.73,1.73,0,0,0,.09-2.44Z"/></svg>