<svg id="Capa_1" data-name="Capa 1" xmlns="http://www.w3.org/2000/svg" viewBox="0 0 101.5 101.5"><defs><style>.cls-1{fill:#1fb6ff;}.cls-2{fill:#fff;}</style></defs><title>progress</title><circle class="cls-1" cx="50.75" cy="50.75" r="50.75"/><path class="cls-2" d="M80.47,80.93h-2.8V40.2a3.44,3.44,0,0,0-3.44-3.44H68a3.44,3.44,0,0,0-3.44,3.44h0V80.93H57.4V58.66A3.44,3.44,0,0,0,54,55.22H47.69a3.44,3.44,0,0,0-3.44,3.44V80.93H37.13V69.4A3.44,3.44,0,0,0,33.69,66H27.42A3.44,3.44,0,0,0,24,69.4V80.93H21a1.28,1.28,0,1,0,0,2.56H80.47a1.28,1.28,0,1,0,0-2.56Zm-45.9,0h-8V69.4a.88.88,0,0,1,.88-.88h6.27a.88.88,0,0,1,.88.88V80.93Zm20.27,0h-8V58.66a.88.88,0,0,1,.88-.88H54a.88.88,0,0,1,.88.88h0Zm20.27,0h-8V40.2a.88.88,0,0,1,.88-.88h6.27a.88.88,0,0,1,.88.88V80.93Z"/><path class="cls-2" d="M77.66,19.36A1.27,1.27,0,0,0,76.49,18h-8a1.28,1.28,0,0,0,0,2.56H73.3L60.66,33.21l-4.77-4.77a1.28,1.28,0,0,0-1.81,0l-23,23a1.28,1.28,0,0,0,1.81,1.81L55,31.16l4.77,4.77a1.28,1.28,0,0,0,1.81,0L75.11,22.38V26.7a1.28,1.28,0,1,0,2.56,0h0V19.42A.35.35,0,0,1,77.66,19.36Z"/><circle class="cls-2" cx="27.68" cy="56.8" r="1.28"/></svg>