<svg id="Слой_1" data-name="Слой 1" xmlns="http://www.w3.org/2000/svg" viewBox="0 0 84.26 133.5"><defs><style>.cls-1{fill:#1fb6ff;}.cls-2{fill:#fff;stroke:#fff;stroke-miterlimit:10;}</style></defs><title>puzzle1</title><path class="cls-1" d="M77.1,49.25H57.17a3.58,3.58,0,0,0-3.58,3.58h0V64.3a11.47,11.47,0,1,1-22.93.41q0-.2,0-.41h0V52.82a3.58,3.58,0,0,0-3.58-3.58H0V76.33a3.58,3.58,0,0,0,3.58,3.58H5.69A11.46,11.46,0,0,1,17.15,91.37h0A11.46,11.46,0,0,1,5.69,102.83H3.58A3.58,3.58,0,0,0,0,106.41V133.5H80.68a3.58,3.58,0,0,0,3.58-3.58h0V49.25Zm0,49.51H57.82a3.58,3.58,0,0,0,0,7.15H77.1v20.44H7.1V109.93A18.59,18.59,0,0,0,24.47,90.2v-.06A18.59,18.59,0,0,0,7.15,72.82V56.4H23.51v7.91a18.62,18.62,0,0,0,37.24,0V56.4H77.1Z"/><circle class="cls-1" cx="44.37" cy="102.34" r="3.58"/><rect class="cls-2" x="29.32" y="0.5" width="11.47" height="8.58"/></svg>