<svg id="Слой_1" data-name="Слой 1" xmlns="http://www.w3.org/2000/svg" viewBox="0 0 469.08 491.44"><defs><style>.cls-1{fill:#1fb6ff;}</style></defs><title>puzzle2</title><path class="cls-1" d="M456,326.38l-36.44-42.19a10,10,0,0,0-14.1-1l-24.3,21A32.1,32.1,0,1,1,338.75,256l.51-.44,24.3-21a10,10,0,0,0,1-14.1l-36.44-42.19-13-15.09L253.87,92.3,240.8,77.17l-53.57-62L174.16,0l-6.81,5.88-.76.65-47.45,41a10,10,0,0,0-1,14.1l14.39,16.66a35.11,35.11,0,0,1-53.15,45.9h0L65,107.53a10,10,0,0,0-14.1-1l-47.45,41a10,10,0,0,0-1,14.1L284.22,488a10,10,0,0,0,14.1,1L469.08,341.57ZM208.21,268.7a10,10,0,0,0-14.1-1l-42.17,36.45-41.72-48.34L151,220.57a10,10,0,1,0-13.09-15.14h0L97.08,240.67l-73-84.61L56.4,128.15l7.85,9.09a55.13,55.13,0,0,0,85-70.22q-.75-.91-1.54-1.78l-7.85-9.09,32.26-27.94L299.94,176.26l-42.2,36.45a10,10,0,0,0-1,14.1l3.87,4.48a32.05,32.05,0,1,1-48.53,41.89h0Zm143,148.19-35.27-40.82a10,10,0,0,0-15.14,13.07h0L336.08,430l-43.25,37.35L164.94,319.26l34.76-30a52,52,0,0,0,78.54-67.82l34.76-30,29.94,34.62L326.2,240.47a52.07,52.07,0,1,0,67,79.73l1.06-.92,16.68-14.45,29.9,34.62Z" transform="translate(0)"/><circle class="cls-1" cx="172.92" cy="188.43" r="10" transform="translate(-81.1 158.83) rotate(-40.81)"/><circle class="cls-1" cx="283.82" cy="354.17" r="10" transform="translate(-162.47 271.6) rotate(-40.81)"/></svg>