<svg id="Layer_1" data-name="Layer 1" xmlns="http://www.w3.org/2000/svg" viewBox="0 0 143.34 101.5"><defs><style>.cls-1{fill:#1fb6ff;}.cls-2{fill:#fff;}</style></defs><title>ring</title><circle class="cls-1" cx="50.75" cy="50.75" r="50.75"/><circle class="cls-1" cx="130.92" cy="50.92" r="12.42"/><path class="cls-2" d="M76.4,55.21l.56.5h0a1.43,1.43,0,0,0,1.89-2.15l-.51-.46a1.43,1.43,0,0,0-1.94,2.11Z" transform="translate(0 0)"/><path class="cls-2" d="M75.44,52.18a1.43,1.43,0,0,0,.34-2c-1.94-2.78-2.24-5.68-2.68-11.44a1.43,1.43,0,1,0-2.86.22c.47,6.12.83,9.47,3.19,12.86h0a1.43,1.43,0,0,0,2,.35Z" transform="translate(0 0)"/><path class="cls-2" d="M31.79,35.67A1.43,1.43,0,1,0,29,35c-.07.27-.13.55-.19.83h0a1.43,1.43,0,0,0,2.8.6C31.68,36.14,31.73,35.9,31.79,35.67Z" transform="translate(0 0)"/><path class="cls-2" d="M22.61,53.54a1.43,1.43,0,0,0,1.83,2.2c4.92-4.09,6.09-8.3,6.72-15.63a1.44,1.44,0,1,0-2.86-.25c-.58,6.78-1.5,10.18-5.7,13.67Z" transform="translate(0 0)"/><path class="cls-2" d="M25.06,61.23c-.17,1.27-.22,3.93.78,4.93a1.43,1.43,0,0,0,1,.42H42.11a8.73,8.73,0,0,0,17.23,0H74.66a1.43,1.43,0,0,0,1-.42c1-1,.95-3.65.78-4.92-.25-2-1-3.35-2.1-4-3.86-2.24-6.2-8.31-6.95-18.06A16.86,16.86,0,0,0,55,24.24a5,5,0,1,0-8.45,0A16.86,16.86,0,0,0,34.15,39.19c-.79,9.74-3.13,15.82-7,18a3.59,3.59,0,0,0-1.32,1.4l-.06.11A7.35,7.35,0,0,0,25.06,61.23ZM50.75,19.39h0a2.15,2.15,0,1,1-2.15,2.15,2.15,2.15,0,0,1,2.15-2.15Zm0,51.61a5.88,5.88,0,0,1-5.69-4.44h11.4A5.88,5.88,0,0,1,50.77,71ZM27.88,63.69a8.46,8.46,0,0,1,0-1.82,6.67,6.67,0,0,1,.17-1H45.16a1.43,1.43,0,0,0,0-2.87H30.87A14.08,14.08,0,0,0,33,55.1H39.8a1.43,1.43,0,0,0,0-2.87H34.41A45,45,0,0,0,37,39.41a13.82,13.82,0,0,1,27.56,0C65.35,50.31,68.1,57,72.9,59.73c.22.12.58.77.72,2a8.47,8.47,0,0,1,0,1.91H27.88Z" transform="translate(0 0)"/><path class="cls-2" d="M36.41,82.45a1.44,1.44,0,1,0,0,2.87H65.08a1.44,1.44,0,1,0,0-2.87H36.41Z" transform="translate(0 0)"/><path class="cls-2" d="M48.9,59.43a1.43,1.43,0,0,0,1.43,1.44h.86a1.43,1.43,0,0,0,0-2.87h-.86A1.43,1.43,0,0,0,48.9,59.43Z" transform="translate(0 0)"/></svg>