<svg id="Слой_1" data-name="Слой 1" xmlns="http://www.w3.org/2000/svg" viewBox="0 0 139.84 101.5"><defs><style>.cls-1{fill:#1fb6ff;}.cls-2{fill:#fff;}</style></defs><title>rockstar</title><circle class="cls-1" cx="50.75" cy="50.75" r="50.75"/><path class="cls-2" d="M82,28.9a26.45,26.45,0,0,0-9.3-10.43,51.7,51.7,0,0,0-12.36-6,77.72,77.72,0,0,0-15.45-3.6,1.63,1.63,0,0,0-1.45.6,16.44,16.44,0,0,0-3.61,11.81l-10.63-5a1.64,1.64,0,0,0-1.82.28c-.24.23-5.91,5.71-6.15,20.43C21,49.73,26.42,57.6,28,59.61v8.83a24.21,24.21,0,0,0,48.42,0V59C84,47.35,85.93,37.24,82,28.9ZM73.1,58.47h0v10A21,21,0,0,1,52.19,89.38h0A21,21,0,0,1,31.26,68.44V39.71H38L34.21,50.39a1.64,1.64,0,0,0,1.33,2.18l5.47.72L34.34,73.14a1.64,1.64,0,0,0,2.82,1.56l9.28-11.31v9.47a1.64,1.64,0,0,0,1.64,1.64h6.57a1.64,1.64,0,0,0,.26-3.27h-5.2V59.4L59,48.1a1.64,1.64,0,0,0-1-2.65l-5.39-.86,2.71-4.87H73.13V58.47ZM48.55,46.55a1.64,1.64,0,0,0,1.22.9l4.88.78L40.27,65.74l4.46-13.29A1.64,1.64,0,0,0,43.4,50.3L38,49.59l3.56-9.87h10L48.6,45A1.64,1.64,0,0,0,48.55,46.55Zm27.85,6V38.08a1.64,1.64,0,0,0-1.64-1.64h-39a7.77,7.77,0,0,1-3.08-5.67,1.64,1.64,0,0,0-3.26.29,11.33,11.33,0,0,0,1.88,5.37H29.62A1.64,1.64,0,0,0,28,38.08V53.34A35.77,35.77,0,0,1,24.5,37c.16-10.15,3.09-15.38,4.44-17.26l12.37,5.87a1.64,1.64,0,0,0,2.25-2,13.41,13.41,0,0,1,1.89-11.35c4.81.68,27.3,4.55,33.62,18C82,36.47,81.06,44,76.4,52.6Z"/><path class="cls-2" d="M62.24,57.63a2.2,2.2,0,1,0,2.2,2.2,2.2,2.2,0,0,0-2.2-2.2Z"/><path class="cls-2" d="M70.25,26.49h0a1.64,1.64,0,1,0-2,2.57h.05a1.64,1.64,0,0,0,2-2.58Z"/><path class="cls-2" d="M66.06,23.69a62.4,62.4,0,0,0-9.16-4.1,1.64,1.64,0,0,0-1.14,3.07,59.43,59.43,0,0,1,8.68,3.87,1.64,1.64,0,0,0,1.62-2.85Z"/><path class="cls-2" d="M32.06,24.61a1.64,1.64,0,0,0-2,1.11v.09a1.64,1.64,0,1,0,3.13,1v-.16a1.64,1.64,0,0,0-1.13-2Z"/><path class="cls-2" d="M56.39,78.9H48a1.64,1.64,0,0,0-.26,3.27h8.65a1.64,1.64,0,0,0,.26-3.27Z"/><circle class="cls-1" cx="129.92" cy="50.92" r="9.92"/></svg>