<svg id="Слой_1" data-name="Слой 1" xmlns="http://www.w3.org/2000/svg" viewBox="0 0 139.84 101.5"><defs><style>.cls-1{fill:#1fb6ff;}.cls-2{fill:#fff;}</style></defs><title>rock</title><circle class="cls-1" cx="50.75" cy="50.75" r="50.75"/><path class="cls-2" d="M50.08,21.38a1.33,1.33,0,1,0-1.33,1.44h.13a1.32,1.32,0,0,0,1.2-1.43h0Z"/><path class="cls-2" d="M68,26.76a1.34,1.34,0,0,0-1.77,2h0a1.33,1.33,0,0,0,1.91-1.86L68,26.76Z"/><path class="cls-2" d="M60.94,22.28a1.32,1.32,0,0,0-1.07,2.42h0a1.32,1.32,0,0,0,1-2.44Z"/><path class="cls-2" d="M70.9,29.78h0a1.32,1.32,0,1,0-.18,1.88,1.32,1.32,0,0,0,.18-1.88l0,0Z"/><path class="cls-2" d="M52.85,20.22h0a1.32,1.32,0,0,0-.22,2.64h.12a1.32,1.32,0,1,0,.11-2.64h0Z"/><path class="cls-2" d="M57,20.94h0a1.18,1.18,0,1,0,.09,0H57Z"/><path class="cls-2" d="M64.67,24.26h0a1.32,1.32,0,1,0,.41,1.86,1.32,1.32,0,0,0-.41-1.86l0,0-.1-.06Z"/><path class="cls-2" d="M75.63,47.84A1.32,1.32,0,0,0,74.18,49h0a1.33,1.33,0,0,0,1.2,1.44h.12a1.32,1.32,0,0,0,1.32-1.2L75.5,49.1l1.32.14A1.32,1.32,0,0,0,75.63,47.84Z"/><path class="cls-2" d="M74,55.62a1.32,1.32,0,0,0-1.75.66h0a1.32,1.32,0,1,0,1.77-.7Z"/><path class="cls-2" d="M73.31,33.22h0a1.27,1.27,0,1,0-1.24,1.29,1.27,1.27,0,0,0,1.24-1.29l-.06-.1Z"/><path class="cls-2" d="M76.9,45.12h0a1.32,1.32,0,1,0-1.32,1.41h.08a1.32,1.32,0,0,0,1.24-1.39Z"/><path class="cls-2" d="M75.13,37l-1.23.48L75.13,37a1.33,1.33,0,1,0-2.52.86l.06.14h0a1.33,1.33,0,1,0,2.52-.86Z"/><path class="cls-2" d="M76.34,41h0A1.32,1.32,0,1,0,75,42.63h.27a1.32,1.32,0,0,0,1-1.55Z"/><path class="cls-2" d="M75.12,51.79a1.33,1.33,0,1,0,.94,1.64h0a1.33,1.33,0,0,0-.92-1.64h0Z"/><path class="cls-2" d="M26.27,39.35a1.32,1.32,0,0,0-1.59,1v0h0a1.32,1.32,0,1,0,1.61-1Z"/><path class="cls-2" d="M27.72,35.64a1.32,1.32,0,0,0-1.73.71h0a1.32,1.32,0,0,0,2.37,1.17l0-.05v-.12h0A1.32,1.32,0,0,0,27.72,35.64Z"/><path class="cls-2" d="M27.22,52.17a1.32,1.32,0,0,0-2.58.59h0a1.32,1.32,0,0,0,2.57-.62h0Z"/><path class="cls-2" d="M30.09,59.12a1.33,1.33,0,1,0-2.27,1.37h0a1.32,1.32,0,1,0,2.25-1.39h0Z"/><path class="cls-2" d="M26.64,48.45a1.32,1.32,0,0,0-2.64.19h0a1.32,1.32,0,0,0,1.32,1.22h.1A1.33,1.33,0,0,0,26.64,48.45Z"/><path class="cls-2" d="M25.42,43.25A1.32,1.32,0,0,0,24,44.45h0a1.33,1.33,0,0,0,1.22,1.42h.1a1.33,1.33,0,0,0,.12-2.66Z"/><path class="cls-2" d="M46.12,21.79a1.32,1.32,0,0,0-1.57-1h0a1.32,1.32,0,1,0,1.61,1Z"/><path class="cls-2" d="M38.62,24.36a1.32,1.32,0,0,0-1.8-.5h0a1.32,1.32,0,1,0,1.86.46Z"/><path class="cls-2" d="M42.27,22.79a1.32,1.32,0,0,0-1.7-.77h0a1.32,1.32,0,1,0,1.76.75Z"/><path class="cls-2" d="M35.25,26.49a1.32,1.32,0,0,0-1.86-.17h0a1.32,1.32,0,1,0,1.88.16Z"/><path class="cls-2" d="M32.28,29.17a1.32,1.32,0,0,0-1.86.11h0a1.31,1.31,0,1,0,1.88-.14Z"/><path class="cls-2" d="M28.42,55.76a1.32,1.32,0,1,0-2.45,1h0a1.32,1.32,0,1,0,2.49-.88h0v-.12Z"/><path class="cls-2" d="M29.74,32.17a1.32,1.32,0,0,0-1.82.43h0a1.31,1.31,0,1,0,1.83-.45Z"/><path class="cls-2" d="M83.42,79.52h-2.1L59.42,47a3.83,3.83,0,0,0-1.86-1.46V41.85l6.61-4.15A1.32,1.32,0,0,0,64,35.37l-7.23-3.2a1.32,1.32,0,0,0-1.86,1.21V41.1h0v4.4A3.83,3.83,0,0,0,53,47L44,60.31l-2-3.14a3.84,3.84,0,0,0-6.37,0L20.52,79.52h-2.1a1.33,1.33,0,1,0,0,2.65h65a1.33,1.33,0,0,0,0-2.65ZM57.54,35.41l3.1,1.37-3.1,1.94ZM23.67,79.52l14.09-20.9a1.19,1.19,0,0,1,2,0l2.73,4-4.69,7A1.34,1.34,0,1,0,40,71.15h0L55.25,48.51a1.19,1.19,0,0,1,2,0l20.92,31Z"/><circle class="cls-2" cx="35.57" cy="75.28" r="1.32"/><circle class="cls-1" cx="129.92" cy="50.92" r="9.92"/></svg>