<svg id="Слой_1" data-name="Слой 1" xmlns="http://www.w3.org/2000/svg" viewBox="0 0 634.71 381.86"><defs><style>.cls-1,.cls-2{fill:none;stroke:#1fb6ff;}.cls-1{stroke-linecap:round;stroke-linejoin:round;stroke-width:5px;}.cls-2{stroke-miterlimit:10;}.cls-3{fill:#1fb6ff;}.cls-4{isolation:isolate;font-size:18px;fill:#bcbcbc;font-family:Tahoma, Tahoma;}</style></defs><title>scheme</title><line class="cls-1" x1="30.21" y1="2.5" x2="30.21" y2="301.83"/><line class="cls-1" x1="632.21" y1="301.83" x2="30.21" y2="301.83"/><path class="cls-1" d="M66.87,153.5c7.5,21.38,21.31,86.44,74.67,88.67,96,4,107.33-173.44,200.67-173.33,54.15.06,67.47,40.36,116,123.33,20.66,35.33,69.33,51.65,96.66,49.33" transform="translate(0)"/><line class="cls-2" x1="66.88" y1="153.5" x2="66.88" y2="292.83"/><line class="cls-2" x1="85.43" y1="202.17" x2="85.43" y2="292.83"/><line class="cls-2" x1="105.74" y1="228.23" x2="105.74" y2="292.83"/><line class="cls-2" x1="126.96" y1="239.79" x2="126.96" y2="292.83"/><line class="cls-2" x1="146.79" y1="242.23" x2="146.79" y2="292.83"/><line class="cls-2" x1="168.04" y1="238.25" x2="168.04" y2="292.83"/><line class="cls-2" x1="188.96" y1="226.72" x2="188.96" y2="292.83"/><line class="cls-2" x1="210.14" y1="205.79" x2="210.14" y2="292.83"/><line class="cls-2" x1="230.88" y1="176.47" x2="230.88" y2="292.83"/><line class="cls-2" x1="251.29" y1="141" x2="251.54" y2="292.83"/><line class="cls-2" x1="272.93" y1="110.73" x2="272.93" y2="292.83"/><line class="cls-2" x1="294.04" y1="87.78" x2="294.04" y2="292.83"/><line class="cls-2" x1="314.14" y1="74.78" x2="314.14" y2="292.83"/><line class="cls-2" x1="335.04" y1="68.83" x2="335.04" y2="292.83"/><line class="cls-2" x1="355.79" y1="292.83" x2="355.82" y2="69.82"/><line class="cls-2" x1="376.43" y1="76.5" x2="376.43" y2="292.83"/><line class="cls-2" x1="398.04" y1="292.83" x2="398.17" y2="94.42"/><line class="cls-2" x1="419.66" y1="125.08" x2="419.66" y2="292.83"/><line class="cls-2" x1="439.74" y1="159.92" x2="439.74" y2="292.83"/><line class="cls-2" x1="461.29" y1="292.83" x2="460.82" y2="196.31"/><line class="cls-2" x1="481.29" y1="292.83" x2="481.63" y2="217.8"/><line class="cls-2" x1="501.79" y1="292.83" x2="501.79" y2="229.44"/><line class="cls-2" x1="522.54" y1="292.83" x2="523.26" y2="237.87"/><line class="cls-2" x1="544.29" y1="292.83" x2="544.29" y2="242.23"/><line class="cls-1" x1="133.54" y1="301.83" x2="133.54" y2="309.5"/><line class="cls-1" x1="331.54" y1="301.83" x2="331.54" y2="309.5"/><line class="cls-1" x1="529.54" y1="301.83" x2="529.54" y2="309.5"/><line class="cls-1" x1="30.21" y1="150" x2="40.54" y2="150"/><line class="cls-1" x1="30.21" y1="238.25" x2="40.54" y2="238.25"/><line class="cls-1" x1="30.21" y1="62" x2="40.54" y2="62"/><path class="cls-3" d="M547,325.19H537a1.78,1.78,0,0,0-1.78,1.78v5.72a5.71,5.71,0,0,1-11.42,0h0V327a1.78,1.78,0,0,0-1.78-1.78H508.54v13.49a1.78,1.78,0,0,0,1.74,1.82h1.11a5.71,5.71,0,0,1,.48,11.41h-1.53a1.78,1.78,0,0,0-1.78,1.78v13.49h40.18a1.78,1.78,0,0,0,1.78-1.78V325.19Zm0,24.66h-9.6a1.78,1.78,0,0,0,0,3.56H547v10.18H512.12v-8.18a9.26,9.26,0,0,0,0-18.48v-8.18h8.15v3.94a9.27,9.27,0,1,0,18.54,0v-3.94H547Z" transform="translate(0)"/><path class="cls-3" d="M159.54,361.81l-4.29-5a1.18,1.18,0,0,0-1.66-.12l-2.86,2.47a3.77,3.77,0,1,1-4.88-5.66l2.86-2.47a1.18,1.18,0,0,0,.12-1.66l-4.29-5L143,342.6l-7.2-8.34-1.53-1.76-6.3-7.29-1.54-1.78-.8.69-.09.08L120,329a1.18,1.18,0,0,0-.12,1.66l1.69,2a4.13,4.13,0,1,1-6.2,5.45l0-.05h0l-1.69-2a1.18,1.18,0,0,0-1.66-.12l-5.58,4.82a1.18,1.18,0,0,0-.12,1.66l33.14,38.37a1.18,1.18,0,0,0,1.66.12l20.08-17.33ZM130.44,355a1.18,1.18,0,0,0-1.66-.12l-5,4.29-4.86-5.7,4.8-4.14a1.18,1.18,0,0,0-1.41-1.89l-.13.11h0l-4.8,4.14-8.58-10,3.8-3.28.92,1.07a6.49,6.49,0,0,0,10-8.26l-.18-.21-.92-1.07,3.79-3.29,15,17.41-5,4.29a1.18,1.18,0,0,0-.12,1.66l.46.53a3.77,3.77,0,1,1-5.71,4.93Zm16.82,17.47-4.15-4.8a1.18,1.18,0,1,0-1.89,1.41l.11.13,4.15,4.8-5.09,4.39-15-17.41,4.09-3.53a6.11,6.11,0,0,0,9.24-8h0l4.09-3.53,3.52,4.07-2,1.69a6.12,6.12,0,0,0,8,9.27l2-1.7,3.52,4.07Z" transform="translate(0)"/><circle class="cls-3" cx="126.3" cy="345.59" r="1.18" transform="translate(-195.15 166.56) rotate(-40.81)"/><circle class="cls-3" cx="139.35" cy="365.08" r="1.18" transform="translate(-204.72 179.83) rotate(-40.81)"/><path class="cls-3" d="M356.41,330.37H350a5.94,5.94,0,0,0-11.84,0H325.44v-1a5.94,5.94,0,1,0-11.89,0v1h-6.36a1.14,1.14,0,0,0-1.14,1.14h0v6.36h-1a5.95,5.95,0,0,0,0,11.89h1v13.52a1.14,1.14,0,0,0,1.14,1.14h2.51a4,4,0,0,1,0,8h-2.51a1.14,1.14,0,0,0-1.14,1.14h0v7.16a1.14,1.14,0,0,0,1.14,1.14h49.22a1.14,1.14,0,0,0,1.14-1.14h0V331.5a1.14,1.14,0,0,0-1.14-1.14h0ZM307.19,347.5h-2.13a3.66,3.66,0,0,1,0-7.32h2.13a1.14,1.14,0,0,0,1.14-1.14h0v-6.36h6.36a1.14,1.14,0,0,0,1.15-1.13s0,0,0-.05v-2.13a3.66,3.66,0,0,1,7.32,0v2.13a1.14,1.14,0,0,0,1.14,1.14h6.36V339a1.14,1.14,0,0,0,1.14,1.14h2.13a3.66,3.66,0,0,1,0,7.32H331.8a1.14,1.14,0,0,0-1.14,1.14h0V355H320V348.8a1.14,1.14,0,0,0-2.28,0V355h-9.36V348.6A1.14,1.14,0,0,0,307.19,347.5Zm24.61,24.61a1.14,1.14,0,0,0-1.14,1.14h0v6.37h-7.29v-6.16a1.14,1.14,0,1,0-2.28,0h0v6.16H308.33v-4.87h1.37a6.29,6.29,0,0,0,0-12.58h-1.37V357.3h22.33v6.37a1.14,1.14,0,0,0,1.14,1.14h.68a3.66,3.66,0,0,1,0,7.32Zm23.47-1.3h-6.16a1.14,1.14,0,0,0,0,2.28h6.16v6.52H332.94v-5.24a5.94,5.94,0,0,0,0-11.85v-5.24h5.22v2.52a5.95,5.95,0,0,0,11.89,0v-2.52h5.22Zm0-29.08h-6.16a1.14,1.14,0,1,0,0,2.28h6.16v11h-6.36a1.14,1.14,0,0,0-1.14,1.14h0v3.67a3.66,3.66,0,1,1-7.32,0v-3.67a1.14,1.14,0,0,0-1.14-1.14h-6.37v-5.22h1a5.95,5.95,0,1,0,0-11.89h-1v-5.22h6.36a1.14,1.14,0,0,0,1.14-1.14h0v-.6a3.66,3.66,0,0,1,7.32,0h0v.6a1.14,1.14,0,0,0,1.14,1.14h6.36Z" transform="translate(0)"/><circle class="cls-3" cx="322.24" cy="369.14" r="1.14"/><circle class="cls-3" cx="344.83" cy="371.93" r="1.14"/><circle class="cls-3" cx="344.83" cy="342.85" r="1.14"/><circle class="cls-3" cx="318.83" cy="344.53" r="1.14"/><circle class="cls-3" cx="532.48" cy="351.53" r="1.79"/><text class="cls-4" transform="translate(15.54 226.38) rotate(-90)">ระดับความน่าเชื่อถือ</text></svg>