<svg id="Слой_1" data-name="Слой 1" xmlns="http://www.w3.org/2000/svg" viewBox="0 0 101.5 101.5"><defs><style>.cls-1{fill:#1fb6ff;}.cls-2{fill:#fff;}</style></defs><title>search1</title><circle class="cls-1" cx="50.75" cy="50.75" r="50.75"/><path class="cls-2" d="M62.19,18.11A21,21,0,0,0,46.5,53.19l-4.18,4.18L40.4,55.45a1.3,1.3,0,0,0-1.84,0h0L19.83,74.18a5.4,5.4,0,0,0,7.63,7.63L46.2,63.08a1.3,1.3,0,0,0,0-1.84h0l-2-2L48.36,55A21.05,21.05,0,1,0,62.19,18.11ZM25.63,80a2.83,2.83,0,0,1-4-4L39.49,58.21l4,4ZM62.19,57.62A18.46,18.46,0,1,1,80.65,39.16,18.46,18.46,0,0,1,62.19,57.62Z"/><path class="cls-2" d="M67,24.86a4.53,4.53,0,0,0-3.29-1.43h-3a4.51,4.51,0,0,0-4.51,4.51q0,.14,0,.29l.13,2,.31,4.7a5.55,5.55,0,0,0,11.08,0l.35-5.37.09-1.34A4.52,4.52,0,0,0,67,24.86Zm-8.15,3.21a1.91,1.91,0,0,1,1.82-2h2.08L62.4,27c-.18.26-1.08,1.34-3.51,1.75Zm6.32,6.71a3,3,0,0,1-5.88,0l-.23-3.45a9.13,9.13,0,0,0,4.33-1.7,4.64,4.64,0,0,0,.5.3,8.38,8.38,0,0,0,1.55.56Zm-.08-7.16L65,27.56l.28-.74a1.88,1.88,0,0,1,.37,1,3.64,3.64,0,0,1-.54-.19Z"/><path class="cls-2" d="M75.23,47.66a8.3,8.3,0,0,0-8.17-6.82H65.58a1.3,1.3,0,0,0-.92.38l-2.42,2.42-2.42-2.42a1.3,1.3,0,0,0-.92-.38H57.43a8.3,8.3,0,0,0-8.17,6.82,3.59,3.59,0,0,0,3.53,4.23h18.9a3.59,3.59,0,0,0,3.53-4.23Zm-2.77,1.28a1,1,0,0,1-.76.36H52.8a1,1,0,0,1-1-1.17,5.7,5.7,0,0,1,5.61-4.69h.93l3,3a1.3,1.3,0,0,0,1.84,0h0l3-3h.93a5.7,5.7,0,0,1,5.61,4.69,1,1,0,0,1-.27.81Z"/><path class="cls-2" d="M40.48,60.69a1.3,1.3,0,0,0-1.84,0h0L33,66.35a1.3,1.3,0,0,0,1.84,1.84l5.66-5.66a1.3,1.3,0,0,0,0-1.84Z"/><path class="cls-2" d="M32,69.11a1.3,1.3,0,0,0-1.84,0h0l-.63.63a1.3,1.3,0,0,0,1.84,1.84l.63-.63a1.3,1.3,0,0,0,0-1.84Z"/></svg>