<svg id="Capa_1" data-name="Capa 1" xmlns="http://www.w3.org/2000/svg" viewBox="0 0 101.5 101.5"><defs><style>.cls-1{fill:#1fb6ff;}.cls-2{fill:#fff;}</style></defs><title>search2</title><circle class="cls-1" cx="50.75" cy="50.75" r="50.75"/><path class="cls-2" d="M29.71,46.75a1.34,1.34,0,0,0-2,1.79l.54.57a1.34,1.34,0,1,0,1.9-1.9h0Z"/><path class="cls-2" d="M28.25,28.26a14.75,14.75,0,0,0-3,16.49,1.34,1.34,0,0,0,2.5-1l-.06-.12a12.13,12.13,0,0,1,2.47-13.5,1.34,1.34,0,0,0-1.9-1.9h0Z"/><path class="cls-2" d="M52.12,32.62a1.34,1.34,0,1,0-2.5,1l.06.13a12.13,12.13,0,0,1-2.47,13.5,1.34,1.34,0,0,0,1.9,1.9,14.75,14.75,0,0,0,3-16.49Z"/><path class="cls-2" d="M47.66,30.62a1.34,1.34,0,1,0,2-1.79q-.27-.3-.54-.57a1.34,1.34,0,0,0-1.89,1.9Z"/><path class="cls-2" d="M82.13,74.55l-16.9-16.9h0L61.62,54a2.66,2.66,0,0,0-1.9-.78,2.7,2.7,0,0,0-.69.09l-3.58-3.58a20.07,20.07,0,1,0-5.68,5.69L53.35,59a2.71,2.71,0,0,0-.09.69,2.66,2.66,0,0,0,.78,1.9l3.6,3.6h0l16.9,16.9a2.68,2.68,0,0,0,3.79,0l3.79-3.79a2.68,2.68,0,0,0,0-3.79ZM51,51a17.31,17.31,0,1,1,.18-.18Zm1,2.83.93-.93h0l.93-.93,3,3L55,56.89Zm4,5.88,3.79-3.79,2.65,2.65-3.79,3.79ZM76.45,80.24h0l-16-16,3.79-3.79,16,16Z"/></svg>