<svg id="Capa_1" data-name="Capa 1" xmlns="http://www.w3.org/2000/svg" viewBox="0 0 101.5 101.5"><defs><style>.cls-1{fill:#1fb6ff;}.cls-2{fill:#fff;}</style></defs><title>share</title><circle class="cls-1" cx="50.75" cy="50.75" r="50.75"/><path class="cls-2" d="M68,58.42a12.15,12.15,0,0,0-9.61,4.74L39.73,52.75a12.18,12.18,0,0,0,.68-4,11.91,11.91,0,0,0-.69-4l18.64-10.4A12.12,12.12,0,1,0,55.85,27a11.85,11.85,0,0,0,.69,4L37.92,41.38a12.13,12.13,0,1,0,0,14.73L56.56,66.53A12.13,12.13,0,1,0,68,58.44Zm0-39.8A8.33,8.33,0,1,1,59.67,27h0A8.34,8.34,0,0,1,68,18.62ZM28.3,57.06a8.33,8.33,0,1,1,8.33-8.33h0a8.34,8.34,0,0,1-8.33,8.34ZM68,78.87a8.33,8.33,0,1,1,8.33-8.33h0A8.34,8.34,0,0,1,68,78.88Z"/></svg>