<svg id="Layer_1" data-name="Layer 1" xmlns="http://www.w3.org/2000/svg" viewBox="0 0 139.84 101.5"><defs><style>.cls-1{fill:#1fb6ff;}.cls-2{fill:#fff;}</style></defs><title>shield</title><circle class="cls-1" cx="50.75" cy="50.75" r="50.75"/><path class="cls-2" d="M78.66,27.67c-4.65,0-8.17-2.72-11.91-5.6C62.46,18.76,57.6,15,50.37,15S38.28,18.76,34,22.07c-3.73,2.88-7.26,5.6-11.91,5.6a1.49,1.49,0,0,0-1.49,1.49h0c0,17.38,2.16,29,7,37.53s12,13.81,22,19.59a1.49,1.49,0,0,0,1.49,0c10-5.78,17.19-11.08,22-19.59s7-20.15,7-37.53A1.49,1.49,0,0,0,78.66,27.67ZM50.37,83.26c-18-10.47-26.56-19.49-26.79-52.69,4.9-.49,8.62-3.36,12.23-6.14C39.91,21.27,44.16,18,50.37,18s10.46,3.27,14.56,6.44c3.61,2.78,7.33,5.65,12.23,6.14-.23,33.18-8.83,42.18-26.78,52.7Z"/><path class="cls-2" d="M32.79,32a1.49,1.49,0,0,0-2-.62l-.56.29a1.49,1.49,0,0,0,1.09,2.77l.14-.06h.09l.63-.32a1.49,1.49,0,0,0,.61-2Z"/><path class="cls-2" d="M72.09,43.7h.14a1.49,1.49,0,0,0,1.48-1.35v-.57a1.51,1.51,0,0,0-3-.25v.55a1.49,1.49,0,0,0,1.35,1.62h0Z"/><path class="cls-2" d="M35.73,31.51a1.48,1.48,0,0,0,.87-.28c.86-.62,1.7-1.26,2.51-1.88C42.91,26.46,46.19,24,50.37,24a1.5,1.5,0,1,0,0-3c-5.19,0-9,2.91-13.07,6-.8.61-1.62,1.24-2.45,1.84a1.49,1.49,0,0,0,.87,2.7Z"/><path class="cls-2" d="M50.38,76.33a49.75,49.75,0,0,1-11.87-9.58,1.49,1.49,0,1,0-2.39,1.79l.09.1h0c4,4.67,9.22,8.15,13.36,10.66h0l.11.06H51l.11-.06h0c4.14-2.51,9.4-6,13.36-10.66,4.52-5.33,7.37-12.55,8.71-22.06a1.51,1.51,0,0,0-3-.42h0c-1.26,8.94-3.89,15.66-8,20.55A49.73,49.73,0,0,1,50.38,76.33Z"/><path class="cls-2" d="M60,33.65,44.45,49.18l-3.69-3.69a4.84,4.84,0,1,0-7.1,6.58l.26.26L41,59.45l.06.06h0l.06.06h0l.06.06h5.08l.06-.06h0l.06-.06h0l.06-.06h0l19-18.88a4.84,4.84,0,0,0-6.84-6.84Zm4.74,4.74-19,19h0l-.14.12h0l-.18.13-.25.11h0l-.17.06h0l-.26.06h-.59l-.26-.06h-.15l-.28-.14-.26-.19L36,50.26a1.86,1.86,0,0,1,2.63-2.63l4.74,4.74a1.49,1.49,0,0,0,2.11,0h0L62.09,35.75a1.86,1.86,0,0,1,2.63,2.63Z"/><circle class="cls-1" cx="129.92" cy="50.92" r="9.92"/></svg>