<svg id="Слой_1" data-name="Слой 1" xmlns="http://www.w3.org/2000/svg" viewBox="0 0 139.84 101.5"><defs><style>.cls-1{fill:#1fb6ff;}.cls-2{fill:#fff;}</style></defs><title>shirt</title><circle class="cls-1" cx="50.75" cy="50.75" r="50.75"/><path class="cls-2" d="M84.58,37.11,68.77,21.3h0l-.09-.08H58.58l-1-2.06h0L57.49,19h0a1.42,1.42,0,0,0-.25-.27h0l-.24-.5h0l-.14-.07h0l-.16-.06H44.38l-.16.06h0l-.13.07h0l-.11.08h0a1.42,1.42,0,0,0-.24.26h0l-.08.14h0l-1,2.07H32.42l-.1.09h0L16.42,37.11a1.44,1.44,0,0,0,0,2l9.49,9.49a1.43,1.43,0,0,0,1,.42h0a1.43,1.43,0,0,0,1-.42l3.87-3.87V74a1.44,1.44,0,0,0,1.44,1.44h34.5A1.44,1.44,0,0,0,69.16,74h0V44.77L73,48.64h0a1.44,1.44,0,0,0,1.42.36h0l.2-.08h.06a1.44,1.44,0,0,0,.34-.25l9.49-9.49a1.44,1.44,0,0,0,.07-2ZM53.76,20.88,50.5,26.52l-3.26-5.65Zm2.4,1.6-2,7.38-1.71-1Zm-7.62,6.4-1.71,1-2-7.39Zm3.4,43.76V66l6.59,6.59Zm8.63-2L54,64h6.59Zm13.51-25-5.31-5.3-.11-.1H66.85a1.46,1.46,0,0,0-.2.2h0V72.63H63.44V62.56A1.44,1.44,0,0,0,62,61.13H51.94v-7a1.44,1.44,0,0,0-2.88,0v18.5H34.69V51.28h0v-10h0V36.91a1.44,1.44,0,0,0-2.88,0V40.7l-4.88,4.88-7.46-7.46L33.85,23.75h8.36l2.32,8.66h0v.15h0l.06.13h0l.1.15h0l.11.13h0l.12.11h0l.12.08h0l.14.07h.52a1.43,1.43,0,0,0,.37,0h.16l.12-.06h0l2.42-1.4v12.1a1.44,1.44,0,0,0,2.88,0v-12l2.42,1.4h0l.12.06h.15a1.44,1.44,0,0,0,.37,0h.52l.14-.07h0l.12-.08h0l.12-.1h0l.11-.12h0l.1-.15h0l.06-.12h0v-.14h0L58.2,24h7.52v3.67a1.44,1.44,0,1,0,2.88,0h0v-1.9L81.53,38.13Z"/><path class="cls-2" d="M64.88,84.13H36.13a1.44,1.44,0,0,0,0,2.88H64.88a1.44,1.44,0,1,0,0-2.88Z"/><path class="cls-2" d="M50.5,47.08a1.44,1.44,0,0,0-1.44,1.44v.86a1.44,1.44,0,1,0,2.88,0h0v-.86A1.44,1.44,0,0,0,50.5,47.08Z"/><path class="cls-2" d="M33.25,29.86a1.44,1.44,0,0,0-1.44,1.44h0v.86a1.44,1.44,0,0,0,2.88,0V31.3A1.44,1.44,0,0,0,33.25,29.86Z"/><path class="cls-2" d="M67.75,30.73a1.44,1.44,0,0,0-1.44,1.44h0V33a1.44,1.44,0,0,0,2.88,0h0v-.86A1.44,1.44,0,0,0,67.75,30.73Z"/><circle class="cls-1" cx="129.92" cy="50.92" r="9.92"/></svg>