<svg id="Layer_1" data-name="Layer 1" xmlns="http://www.w3.org/2000/svg" viewBox="0 0 143.34 101.5"><defs><style>.cls-1{fill:#1fb6ff;}.cls-2{fill:#fff;}</style></defs><title>shirt1</title><circle class="cls-1" cx="92.59" cy="50.75" r="50.75"/><circle class="cls-1" cx="12.42" cy="50.92" r="12.42"/><path class="cls-2" d="M127.49,37.24,111.3,21l0,0-.09-.08-.06,0-.06,0-.06,0-.06,0-.07,0-.07,0-.06,0-.07,0-.06,0-.08,0h-9.68L99.81,18.5h0l-.09-.16,0,0a1.46,1.46,0,0,0-.25-.28l0,0-.12-.09,0,0,0,0-.14-.07h0l-.17-.06h0l-.16,0H86.48l-.16,0h0l-.16.06h0l-.14.07h0l0,0-.11.08,0,0a1.46,1.46,0,0,0-.25.27l0,0-.09.15h0l-1.06,2.12H74.64l-.09,0H74.5l-.08,0-.06,0-.07,0-.06,0-.06,0-.06,0-.07,0,0,0-.11.1h0l-16.2,16.2a1.47,1.47,0,0,0,0,2.08L67.41,49a1.47,1.47,0,0,0,1,.43h0a1.47,1.47,0,0,0,1-.43l4-4v30a1.47,1.47,0,0,0,1.47,1.47h35.34a1.47,1.47,0,0,0,1.47-1.47v-30l4,4h0a1.47,1.47,0,0,0,1.46.37h0l.2-.08.06,0h0a1.47,1.47,0,0,0,.35-.26l9.72-9.72A1.47,1.47,0,0,0,127.49,37.24ZM95.93,20.61l-3.34,5.78-3.34-5.78Zm2.45,1.64-2,7.56-1.75-1Zm-7.8,6.55-1.75,1-2-7.56Zm3.48,44.81V66.86l6.75,6.75Zm8.83-2.08-6.75-6.75h6.75Zm13.84-25.61-5.43-5.43-.11-.1-.06,0-.06,0-.07,0-.05,0-.07,0-.06,0-.07,0-.06,0-.07,0-.07,0H110l-.07,0-.07,0-.07,0-.07,0-.06,0-.07,0-.06,0-.07,0-.06,0-.05,0a1.5,1.5,0,0,0-.21.21l0,.05,0,.06,0,.06,0,.06,0,.07,0,.06,0,.07,0,.07,0,.07,0,.07v.14s0,.1,0,.15V73.61h-2.94V63.31a1.47,1.47,0,0,0-1.47-1.47H94.06V54.66a1.47,1.47,0,0,0-2.94,0v19H76.39V51.75h0V41.52h0V37a1.47,1.47,0,1,0-2.94,0v3.89l-5,5-7.64-7.64L75.53,23.55H84.1l2.38,8.87v0l0,.06,0,.09v0l.07.13h0l.1.15v0l.11.13,0,0,.13.11h0l.12.08,0,0,.15.07h0l.15.05h0l.17,0h.2a1.46,1.46,0,0,0,.38-.05l.16-.05,0,0,.13-.06h0l2.48-1.43V44.06a1.47,1.47,0,0,0,2.94,0V31.89l2.48,1.43h0l.12.06,0,0,.16.05a1.47,1.47,0,0,0,.38.05h.2l.17,0h0l.15-.05h0l.15-.07,0,0,.12-.08h0l.12-.11,0,0,.11-.13v0l.1-.15h0l.06-.13,0,0,0-.09,0-.06v0l2.38-8.87h7.7v3.76a1.47,1.47,0,1,0,2.94,0V25.64l12.64,12.64Z" transform="translate(0 0)"/><path class="cls-2" d="M107.31,85.39H77.87a1.47,1.47,0,1,0,0,2.94h29.45a1.47,1.47,0,1,0,0-2.94Z" transform="translate(0 0)"/><path class="cls-2" d="M92.59,47.45a1.47,1.47,0,0,0-1.47,1.47v.88a1.47,1.47,0,1,0,2.94,0v-.88A1.47,1.47,0,0,0,92.59,47.45Z" transform="translate(0 0)"/><path class="cls-2" d="M74.92,29.81a1.47,1.47,0,0,0-1.47,1.47v.88a1.47,1.47,0,0,0,2.94,0v-.88A1.47,1.47,0,0,0,74.92,29.81Z" transform="translate(0 0)"/><path class="cls-2" d="M110.26,30.7a1.47,1.47,0,0,0-1.47,1.47v.88a1.47,1.47,0,1,0,2.94,0v-.88A1.47,1.47,0,0,0,110.26,30.7Z" transform="translate(0 0)"/></svg>