<svg id="Capa_1" data-name="Capa 1" xmlns="http://www.w3.org/2000/svg" viewBox="0 0 101.5 101.5"><defs><style>.cls-1{fill:#1fb6ff;}.cls-2{fill:#fff;}</style></defs><title>star</title><circle class="cls-1" cx="50.75" cy="50.75" r="50.75"/><path class="cls-2" d="M87.17,42.24a2,2,0,0,0-1.63-1.38L62.75,37.62,52.5,17a2,2,0,0,0-1.81-1.12h0A2,2,0,0,0,48.88,17L38.75,37.69,16,41.08a2,2,0,0,0-1.11,3.45l16.53,16L27.57,83.22a2,2,0,0,0,2,2.37,1.92,1.92,0,0,0,.94-.24L50.85,74.57l20.4,10.66a2.07,2.07,0,0,0,.93.22h0a2,2,0,0,0,2-2,1.58,1.58,0,0,0-.06-.46L70.18,60.43,86.61,44.32A2,2,0,0,0,87.17,42.24ZM66.63,58.29a2,2,0,0,0-.57,1.8l3.43,19.66L51.75,70.52a2,2,0,0,0-1.89,0L32.2,79.87l3.31-19.71a2,2,0,0,0-.58-1.78L20.6,44.47l19.77-2.94a2,2,0,0,0,1.51-1.11l8.78-17.94,8.9,17.9a2.06,2.06,0,0,0,1.53,1.11l19.79,2.82Z"/></svg>