<svg id="Capa_1" data-name="Capa 1" xmlns="http://www.w3.org/2000/svg" viewBox="0 0 101.5 101.5"><defs><style>.cls-1{fill:#1fb6ff;}.cls-2{fill:#fff;}</style></defs><title>support</title><circle class="cls-1" cx="50.75" cy="50.75" r="50.75"/><path class="cls-2" d="M34,61.38a1.4,1.4,0,0,0-2,.14l0,0-.57.7A1.41,1.41,0,0,0,33.64,64h0l.5-.62a1.4,1.4,0,0,0-.11-2Z"/><path class="cls-2" d="M59.86,33.89a1.4,1.4,0,0,0,2-.1l0,0a7.49,7.49,0,0,0,.52-.66,1.4,1.4,0,0,0-2.28-1.64c-.1.14-.23.3-.36.45a1.4,1.4,0,0,0,.12,2Z"/><path class="cls-2" d="M83,76H80.87a30.13,30.13,0,0,0-15.2-24.81,16.66,16.66,0,0,0,.51-1.59h2.89a4.78,4.78,0,0,0,4.77-4.77V40.41a4.78,4.78,0,0,0-4.77-4.77h-.5a15.45,15.45,0,0,0-.39-5.22,18.82,18.82,0,0,0-6.68-9.83,18.27,18.27,0,0,0-21.54,0,18.82,18.82,0,0,0-6.68,9.83,15.45,15.45,0,0,0-.39,5.22h-.5a4.78,4.78,0,0,0-4.77,4.77v4.42a4.78,4.78,0,0,0,4.77,4.77h2.89a16.66,16.66,0,0,0,.51,1.59A30.13,30.13,0,0,0,20.62,76H18.49a1.4,1.4,0,1,0,0,2.81h12.7l1.38,4.61a1.4,1.4,0,0,0,1.34,1H67.58a1.4,1.4,0,0,0,1.34-1l1.38-4.61H83A1.4,1.4,0,0,0,83,76ZM67.16,44.87c.07-.45.18-1,.31-1.7.27-1.38.58-3,.82-4.74h.79a2,2,0,0,1,2,2v4.42a2,2,0,0,1-2,2H66.82C66.93,46.2,67,45.56,67.16,44.87ZM32.42,46.79h0a2,2,0,0,1-2-2V40.41a2,2,0,0,1,2-2h.79c.24,1.7.55,3.35.82,4.73.13.67.24,1.25.31,1.7.11.69.23,1.33.34,1.92Zm3.3-11.33A12.76,12.76,0,0,1,36,31.22c2.09-7,7.74-11.33,14.76-11.33s12.67,4.34,14.76,11.33a15.25,15.25,0,0,1,.17,5.48,1.4,1.4,0,0,0,0,.33h0c-.23,2-.62,4-.92,5.58-.13.69-.25,1.29-.33,1.77-.2,1.19-.38,2.19-.56,3-2.07,1.88-5.59,3.17-9.17,3.47a1.4,1.4,0,0,0-1.39-1.19H50.75a1.4,1.4,0,0,0-1.4,1.4h0v1.12h0v.93h.77a19.74,19.74,0,0,0,2.43.15,22,22,0,0,0,9.08-2A10.71,10.71,0,0,1,59.34,54c-.52.33-1.11.71-1.77,1.15a12.86,12.86,0,0,1-13.64,0c-.66-.44-1.25-.82-1.77-1.15-2.49-1.58-3.47-2.21-4.36-6a1.39,1.39,0,0,0-.06-.28c-.21-.92-.41-2-.62-3.33-.08-.48-.19-1.08-.33-1.77-.24-1.23-.53-2.78-.76-4.39,2.58-.36,8.1-1.29,11.82-3.08l.92,2.21L49,38c.31.79.6,1.53,1.48,1.83a1.9,1.9,0,0,0,.62.1,5.67,5.67,0,0,0,1.73-.42l.67-.23a24,24,0,0,0,4.77-2.52,1.4,1.4,0,0,0-1.55-2.34,21.56,21.56,0,0,1-4.1,2.19l-.7.24-.31.11-.26-.64-1.52-3.66A1.4,1.4,0,0,0,48,31.88l-.24.12C44.73,34,38.51,35.07,35.72,35.46ZM67.93,77h0l-1.39,4.62H63.36l.58-2.18a1.4,1.4,0,1,0-2.71-.73l-.78,2.91H35L33.58,77h0l-2-6.59h3.09l.78,2.91a1.4,1.4,0,1,0,2.71-.73l-.58-2.18H69.91Zm3.22-1,2-6.61a1.4,1.4,0,0,0-1.34-1.81H29.71a1.4,1.4,0,0,0-1.34,1.81l2,6.61H23.43A27.24,27.24,0,0,1,37.19,53.64a10.25,10.25,0,0,0,2.25,2,24.68,24.68,0,0,0-3.88,2.5,1.4,1.4,0,1,0,1.74,2.2A21.88,21.88,0,0,1,40.85,58l1.3-.67.25.17.09,0A16.45,16.45,0,0,0,50.75,60h0A16.45,16.45,0,0,0,59,57.59l.09,0c.64-.43,1.23-.81,1.74-1.14a13.67,13.67,0,0,0,3.46-2.76A27.24,27.24,0,0,1,78.07,76Z"/><path class="cls-2" d="M37.6,75.84a1.4,1.4,0,0,0-1,1.71h0l.16.61a1.4,1.4,0,0,0,2.71-.73l-.16-.61A1.4,1.4,0,0,0,37.6,75.84Z"/><path class="cls-2" d="M63.37,76.15a1.4,1.4,0,0,0,1.72-1h0l.16-.61a1.4,1.4,0,1,0-2.71-.73l-.16.61a1.4,1.4,0,0,0,1,1.73Z"/></svg>