<svg id="Layer_1" data-name="Layer 1" xmlns="http://www.w3.org/2000/svg" viewBox="0 0 143.34 101.5"><defs><style>.cls-1{fill:#1fb6ff;}.cls-2{fill:#fff;}</style></defs><title>talking1</title><circle class="cls-1" cx="50.75" cy="50.75" r="50.75"/><circle class="cls-1" cx="130.92" cy="50.92" r="12.42"/><path class="cls-2" d="M74.09,18.47H26.75a5.33,5.33,0,0,0-5.33,5.33h0v22a5.33,5.33,0,0,0,5.33,5.33h1.94l5.24,7a2.89,2.89,0,0,0,2.33,1.18,3,3,0,0,0,.92-.15,2.89,2.89,0,0,0,2-2.75l.07-5.31h5.88a7.78,7.78,0,0,0,2.42,9.06,14.9,14.9,0,0,0-10,14V81.3H29.9a1.28,1.28,0,1,0,0,2.56H72.15a1.28,1.28,0,0,0,0-2.56H68.08V74.17A14.92,14.92,0,0,0,57.42,60,7.79,7.79,0,1,0,46.84,48.62H38a1.28,1.28,0,0,0-1.28,1.26l-.09,6.57a.38.38,0,0,1-.68.22l-5.62-7.5a1.28,1.28,0,0,0-1-.51H26.77A2.78,2.78,0,0,1,24,45.89v-22a2.78,2.78,0,0,1,2.77-2.77H74.11a2.78,2.78,0,0,1,2.77,2.77v22a2.78,2.78,0,0,1-2.77,2.77H69.23a1.28,1.28,0,0,0,0,2.56h4.88a5.33,5.33,0,0,0,5.33-5.33h0v-22a5.33,5.33,0,0,0-5.24-5.42h-.11Zm-8.58,55.7v7.14H61.3V74.62a1.28,1.28,0,0,0-2.56,0h0v6.69H47.08V74.62a1.28,1.28,0,0,0-2.56,0v6.69H40.08V74.17a12.72,12.72,0,0,1,25.42,0ZM52.42,48.86a5.24,5.24,0,1,1-5.24,5.24h0A5.24,5.24,0,0,1,52.42,48.86Z"/><circle class="cls-2" cx="75.36" cy="79.99" r="1.17"/><circle class="cls-2" cx="40.44" cy="35.64" r="1.17"/><circle class="cls-2" cx="47.28" cy="35.64" r="1.17"/><circle class="cls-2" cx="53.39" cy="35.64" r="1.17"/><circle class="cls-2" cx="60.09" cy="35.64" r="1.17"/><circle class="cls-2" cx="62.64" cy="49.94" r="1.17"/></svg>