<svg id="Слой_1" data-name="Слой 1" xmlns="http://www.w3.org/2000/svg" viewBox="0 0 101.5 101.5"><defs><style>.cls-1{fill:#1fb6ff;}.cls-2{fill:#fff;}</style></defs><title>target1.1</title><circle class="cls-1" cx="50.75" cy="50.75" r="50.75"/><path class="cls-2" d="M82.14,23.57H78.06V19.44a1.28,1.28,0,0,0-2.55,0v4.88l-5.33,5.34A29.16,29.16,0,0,0,30,71.86a29.63,29.63,0,0,0,2.7,2.39l-7,7a1.28,1.28,0,1,0,1.8,1.8l7.33-7.33a29.21,29.21,0,0,0,31.7,0l7.37,7.37a1.28,1.28,0,1,0,1.8-1.8l-7.1-7.12a29.66,29.66,0,0,0,2.63-2.34,29.18,29.18,0,0,0,5.65-33.28,1.29,1.29,0,0,0-2.38,1h0l.08.16a26.61,26.61,0,1,1-6.12-8.19L63.94,36a20.32,20.32,0,1,0,1.81,1.79l5.39-5.41h0l6.2-6.22h4.83a1.28,1.28,0,0,0,.23-2.55h-.26Zm-14.45,23a17.74,17.74,0,1,1-5.59-8.83L56.84,43a10.35,10.35,0,1,0,1.82,1.79l5.26-5.27a17.72,17.72,0,0,1,3.77,7.06ZM49.84,51.83a1.28,1.28,0,0,0,1.8,0l5.19-5.2A7.79,7.79,0,1,1,55,44.85L49.83,50a1.28,1.28,0,0,0,0,1.81h0Z"/><circle class="cls-2" cx="73.23" cy="35.21" r="1.28"/></svg>