<svg id="Capa_1" data-name="Capa 1" xmlns="http://www.w3.org/2000/svg" viewBox="0 0 101.5 101.5"><defs><style>.cls-1{fill:#1fb6ff;}.cls-2{fill:#fff;}</style></defs><title>target1</title><circle class="cls-1" cx="50.75" cy="50.75" r="50.75"/><path class="cls-2" d="M58.4,41.61A12.69,12.69,0,0,0,57,40.55a1.63,1.63,0,0,0-2,2.61l.13.09a9.45,9.45,0,0,1,1,.79,1.63,1.63,0,0,0,2.36-2.25l-.19-.17Z"/><path class="cls-2" d="M88.37,49.37H86A36,36,0,0,0,51.63,15V12.6a1.63,1.63,0,0,0-3.25,0V15A36,36,0,0,0,14,49.37H11.6a1.63,1.63,0,0,0,0,3.25H14A36,36,0,0,0,48.37,87v2.4a1.63,1.63,0,0,0,3.25,0V87A36,36,0,0,0,86,52.63h2.4a1.63,1.63,0,0,0,0-3.25Zm-40,34.35a32.81,32.81,0,0,1-31.1-31.1H21.5A28.58,28.58,0,0,0,48.37,79.49Zm0-7.49a25.32,25.32,0,0,1-23.6-23.6H37.51A12.62,12.62,0,0,0,48.37,63.49Zm0-16a9.37,9.37,0,0,1-7.58-7.58h7.58Zm0-10.83H40.79a9.37,9.37,0,0,1,7.58-7.58Zm0-10.87A12.62,12.62,0,0,0,37.51,49.37H24.77a25.32,25.32,0,0,1,23.6-23.6V38.53Zm0-16A28.58,28.58,0,0,0,21.51,49.37H17.28a32.81,32.81,0,0,1,31.1-31.1v4.26Zm3.25,3.26A25.32,25.32,0,0,1,75.23,49.37H62.49a12.48,12.48,0,0,0-.86-3.23,1.63,1.63,0,0,0-3,1.25,9.25,9.25,0,0,1,.58,2H51.63Zm0,26.86H59.2a9.37,9.37,0,0,1-7.58,7.58Zm0,10.87A12.62,12.62,0,0,0,62.49,52.63H75.23a25.32,25.32,0,0,1-23.6,23.6V63.52Zm0,20.23V79.49A28.58,28.58,0,0,0,78.49,52.63h4.23A32.81,32.81,0,0,1,51.63,83.72ZM78.49,49.37A28.58,28.58,0,0,0,51.63,22.51V18.28a32.81,32.81,0,0,1,31.1,31.1H78.49Z"/></svg>