<svg id="Слой_1" data-name="Слой 1" xmlns="http://www.w3.org/2000/svg" viewBox="0 0 139.84 101.5"><defs><style>.cls-1{fill:#1fb6ff;}.cls-2{fill:#fff;}</style></defs><title>trio</title><circle class="cls-1" cx="50.75" cy="50.75" r="50.75"/><path class="cls-2" d="M39,18.07a5.56,5.56,0,1,0,5.56,5.56A5.56,5.56,0,0,0,39,18.07Zm0,8.54a3,3,0,1,1,3-3A3,3,0,0,1,39,26.61Z"/><path class="cls-2" d="M64.25,18.07a5.56,5.56,0,1,0,5.56,5.56h0A5.57,5.57,0,0,0,64.25,18.07Zm0,8.54a3,3,0,1,1,3-3A3,3,0,0,1,64.25,26.61Z"/><path class="cls-2" d="M82.6,80.84H76L75.91,53.1a1.29,1.29,0,0,0-1.29-1.29h0a1.3,1.3,0,0,0-1.29,1.3l.06,27.73h-8l-.06-30.3a1.29,1.29,0,0,0,0-.23V48.84a12.43,12.43,0,0,0-.58-3.75,9.34,9.34,0,0,1,4.51-1.16h0a9.27,9.27,0,0,1,6.48,2.59,8.64,8.64,0,0,1,2.68,6.24v5.78a1.29,1.29,0,0,0,1.29,1.29h0A1.29,1.29,0,0,0,81,58.54h0V52.75a11.21,11.21,0,0,0-3.47-8.09A11.76,11.76,0,0,0,73.3,42a6.16,6.16,0,0,0-4.44-10.4h0a6.17,6.17,0,0,0-4.34,10.54l.12.11q-.5.21-1,.46a13,13,0,0,0-7.21-6,6.82,6.82,0,1,0-9.64-.24h0q.22.23.45.43a13,13,0,0,0-6.68,5.73,11.82,11.82,0,0,0-1.4-.61,6.17,6.17,0,1,0-8.72.12h0l.06.06a11.46,11.46,0,0,0-7.2,10.54v5.78a1.3,1.3,0,0,0,2.59,0V52.78A9,9,0,0,1,35,43.93h0A9.35,9.35,0,0,1,39.53,45a12.43,12.43,0,0,0-.59,3.79v32h-7.8V53.11a1.3,1.3,0,0,0-2.59,0V80.84H18.9a1.29,1.29,0,0,0,0,2.59H82.6a1.29,1.29,0,0,0,0-2.59ZM68.86,34.19h0a3.58,3.58,0,0,1,0,7.15h0a3.58,3.58,0,0,1,0-7.15Zm-34.1,7.15a3.58,3.58,0,1,1,3.58-3.58h0a3.58,3.58,0,0,1-3.58,3.58h0Zm17-13.76a4.23,4.23,0,1,1-4.23,4.23h0a4.23,4.23,0,0,1,4.21-4.23ZM44.87,80.84H41.53V64.89a6.53,6.53,0,0,0,3.34,1.24ZM58.22,47.93a1.29,1.29,0,0,0-1.29,1.29h0V80.84H53.2V65.2a1.3,1.3,0,0,0-2.59,0V80.84H47.46V49.22a1.3,1.3,0,0,0-2.59,0V63.53a3.79,3.79,0,0,1-3.34-3.69v-11A9.85,9.85,0,0,1,42.31,45h0a10.71,10.71,0,0,1,19.6,0,9.85,9.85,0,0,1,.76,3.8v11a3.78,3.78,0,0,1-3.15,3.66V49.22a1.29,1.29,0,0,0-1.29-1.29h0Zm1.29,32.91V66.12a6.53,6.53,0,0,0,3.2-1.26v16H59.52Z"/><circle class="cls-2" cx="79.69" cy="63.63" r="1.29"/><circle class="cls-2" cx="24.61" cy="63.63" r="1.29"/><circle class="cls-1" cx="129.92" cy="50.92" r="9.92"/></svg>