<svg id="Capa_1" data-name="Capa 1" xmlns="http://www.w3.org/2000/svg" viewBox="0 0 101.5 101.5"><defs><style>.cls-1{fill:#1fb6ff;}.cls-2{fill:#fff;}</style></defs><title>trolley</title><circle class="cls-1" cx="50.75" cy="50.75" r="50.75"/><path class="cls-2" d="M87.7,63a1.54,1.54,0,0,0-1.88-1.09h0l-5.52,1.48L74.54,41.91a1.54,1.54,0,0,0-1.88-1.09h0l-10.42,2.8-4.39-16.4A1.54,1.54,0,0,0,56,26.13l-22.34,6L30.43,20.19a1.54,1.54,0,0,0-1.88-1.09h0l-1.89.51a4.62,4.62,0,0,0-5-1.85L17.18,19A4.63,4.63,0,0,0,13.9,24.6h0a4.63,4.63,0,0,0,5.66,3.27L24,26.69a4.63,4.63,0,0,0,3.41-4.11l.4-.11L31,34.4h0l.23.87,4.54,17h0l1.75,6.55L42,75.26a1.54,1.54,0,0,0,1.88,1.09h0l.8-.22a6.15,6.15,0,0,0,.62,4.69H39.9a1.54,1.54,0,1,0,0,3.08H57.41a1.54,1.54,0,0,0,0-3.08H55.94a6.16,6.16,0,0,0-1-7.45l19.48-5.22a6.17,6.17,0,1,0,10.31-2.77l1.86-.5A1.54,1.54,0,0,0,87.7,63ZM23.24,23.71l-4.47,1.2a1.52,1.52,0,0,1-.39,0,1.55,1.55,0,0,1-1.49-1.13h0A1.55,1.55,0,0,1,18,21.93h0l4.47-1.2a1.52,1.52,0,0,1,.39,0,1.55,1.55,0,0,1,1.49,1.14h0a1.55,1.55,0,0,1-1.1,1.9ZM46.33,31.9l1.76,6.58-.93-.19a1.54,1.54,0,0,0-1.33.36l-.71.63L43.35,32.7ZM34.42,35.1l6-1.6,2.41,9a1.54,1.54,0,0,0,2.51.75l2-1.78L50,42a1.54,1.54,0,0,0,1.8-1.91l-2.41-9,6-1.6,4,14.91L38.41,50ZM58.83,54.78l-.93-.19a1.54,1.54,0,0,0-1.33.36l-.71.63L54.09,49l3-.8ZM51.4,80.72a3.1,3.1,0,0,1-.8.11h0a3.09,3.09,0,0,1-.8-6.07h0a3.1,3.1,0,1,1,1.59,6Zm-.9-9.34-2.15-8a1.55,1.55,0,0,0-3,.8l2.15,8-3,.8-4-15L39.2,53l11.91-3.19,2.41,9a1.54,1.54,0,0,0,2.51.75l2-1.78,2.62.54a1.54,1.54,0,0,0,1.8-1.91L60,47.4l6-1.6,2.15,8a1.55,1.55,0,1,0,3-.8L69,45l3-.8,5.35,20Zm30.69,1.35a3.1,3.1,0,1,1-1.6-6h0a3.1,3.1,0,0,1,1.59,6Z"/><path class="cls-2" d="M70.37,56.16A1.54,1.54,0,0,0,69.28,58l.16.58a1.55,1.55,0,1,0,3-.8l-.16-.58A1.54,1.54,0,0,0,70.37,56.16Z"/><path class="cls-2" d="M47.06,58.54a1.55,1.55,0,1,0-3,.8h0l.16.58a1.55,1.55,0,1,0,3-.8h0Z"/><path class="cls-2" d="M62.58,80.83H61.9a1.54,1.54,0,1,0,0,3.08h.68a1.54,1.54,0,1,0,0-3.08Z"/></svg>