<svg id="Слой_1" data-name="Слой 1" xmlns="http://www.w3.org/2000/svg" viewBox="0 0 514 514"><defs><style>.cls-1{fill:none;stroke:#0088c0;stroke-miterlimit:10;stroke-width:14px;}.cls-2{fill:#0088c0;}</style></defs><title>twincecircle</title><circle class="cls-1" cx="257" cy="257" r="250"/><path class="cls-2" d="M368,153H273V119.75a6.49,6.49,0,0,0-6.49-6.49H116a6.49,6.49,0,0,0-6.49,6.49v87.91a6.49,6.49,0,0,0,6.49,6.49h89.56v22.16a6.49,6.49,0,0,0,11.09,4.59l26.75-26.75h5.47v11.13a6.49,6.49,0,0,0,6.49,6.49h16.57l19.55,19.55a6.49,6.49,0,0,0,11.09-4.59v-15H368a6.49,6.49,0,0,0,6.49-6.49V159.47A6.49,6.49,0,0,0,368,153ZM260,201.19H240.72a6.5,6.5,0,0,0-4.59,1.9l-17.57,17.57v-13a6.49,6.49,0,0,0-6.49-6.49H122.5V126.24H260Zm101.54,17.62H296.08a6.49,6.49,0,0,0-6.49,6.49v5.77l-10.36-10.36a6.5,6.5,0,0,0-4.59-1.9H261.87v-4.63h4.58a6.49,6.49,0,0,0,6.49-6.49V166H361.5v52.82Z"/><path class="cls-2" d="M344.62,175.89H289.89a6.5,6.5,0,0,0,0,13h54.73a6.5,6.5,0,0,0,0-13Z"/><path class="cls-2" d="M344.62,195.39H289.89a6.5,6.5,0,0,0,0,13h54.73a6.5,6.5,0,0,0,0-13Z"/><path class="cls-2" d="M195,250.59a24.56,24.56,0,0,0-17.86-7.74h-16.6a24.47,24.47,0,0,0-24.47,24.47q0,.8.05,1.6l.74,11.28,1.72,26.34a30.31,30.31,0,0,0,60.49,0l2-30.1h0l.49-7.52A24.57,24.57,0,0,0,195,250.59Zm-45.87,17.48a11.48,11.48,0,0,1,10.71-12.21l.75,0H173l-2.42,6.46c-.85,1.22-6.23,8-21.12,10.33Zm37,37.62a17.32,17.32,0,0,1-34.57,0l-1.31-20.06c12.32-1.7,20.24-5.93,25.1-9.82a24.42,24.42,0,0,0,3.21,2,48.19,48.19,0,0,0,9.17,3.24Zm-1.6-39.46a12.58,12.58,0,0,1-1.32-.77l2.26-6h0a11.36,11.36,0,0,1,3.1,8.29,25.59,25.59,0,0,1-4.07-1.52Z"/><path class="cls-2" d="M243.53,393.09,240.79,378a45.72,45.72,0,0,0-45-37.59h-8.26a6.5,6.5,0,0,0-4.59,1.9L168.82,356.4,154.7,342.28a6.5,6.5,0,0,0-4.59-1.9h-8.26a45.73,45.73,0,0,0-45,37.59L94.1,393.09a6.49,6.49,0,0,0,6.39,7.65H237.14a6.49,6.49,0,0,0,6.39-7.65Zm-135.26-5.34h0l1.35-7.48a32.74,32.74,0,0,1,32.23-26.91h5.57l16.81,16.81a6.49,6.49,0,0,0,9.18,0h0l16.81-16.81h5.57A32.74,32.74,0,0,1,228,380.28l1.35,7.48Z"/><path class="cls-2" d="M371.32,250.59a24.56,24.56,0,0,0-17.86-7.74H336.91a24.47,24.47,0,0,0-24.47,24.47q0,.8.05,1.6l.74,11.28,1.72,26.34a30.31,30.31,0,0,0,60.49,0l2-30.1.49-7.52A24.57,24.57,0,0,0,371.32,250.59Zm-45.87,17.48a11.48,11.48,0,0,1,10.71-12.21l.75,0h12.38l-2.42,6.46c-.85,1.22-6.23,8-21.12,10.33Zm37,37.62a17.32,17.32,0,0,1-34.57,0l-1.31-20.06c12.32-1.7,20.24-5.93,25.1-9.82a24.49,24.49,0,0,0,3.21,2,48.27,48.27,0,0,0,9.17,3.24Zm-1.6-39.46a12.65,12.65,0,0,1-1.32-.77l2.26-6h0a11.37,11.37,0,0,1,3.1,8.29,25.61,25.61,0,0,1-4-1.52Z"/><path class="cls-2" d="M419.9,393.09,417.16,378a45.73,45.73,0,0,0-45-37.58H363.9a6.5,6.5,0,0,0-4.59,1.9L345.18,356.4l-14.12-14.12a6.5,6.5,0,0,0-4.59-1.9h-8.26a45.72,45.72,0,0,0-45,37.59l-2.74,15.13a6.49,6.49,0,0,0,6.39,7.65H413.51a6.49,6.49,0,0,0,6.39-7.65Zm-135.26-5.34h0l1.35-7.48a32.74,32.74,0,0,1,32.23-26.91h5.57l16.81,16.81a6.49,6.49,0,0,0,9.18,0h0l16.81-16.81h5.57a32.74,32.74,0,0,1,32.23,26.91l1.35,7.48Z"/><path class="cls-2" d="M239.09,143.86h-3.91a6.5,6.5,0,0,0,0,13h3.91a6.5,6.5,0,0,0,0-13Z"/><path class="cls-2" d="M212.39,143.86h-69a6.5,6.5,0,0,0,0,13h69a6.5,6.5,0,0,0,0-13Z"/><path class="cls-2" d="M239.09,169.91H143.36a6.5,6.5,0,1,0,0,13h95.73a6.5,6.5,0,0,0,0-13Z"/></svg>