<svg id="Слой_1" data-name="Слой 1" xmlns="http://www.w3.org/2000/svg" viewBox="0 0 101.5 101.5"><defs><style>.cls-1{fill:#1fb6ff;}.cls-2{fill:#fff;}</style></defs><title>twince</title><circle class="cls-1" cx="50.75" cy="50.75" r="50.75"/><path class="cls-2" d="M72.92,30.36H54v-6.6a1.29,1.29,0,0,0-1.29-1.29H22.84a1.29,1.29,0,0,0-1.29,1.29h0V41.23a1.29,1.29,0,0,0,1.29,1.29h17.8v4.41a1.29,1.29,0,0,0,2.2.91l5.32-5.32h1.09v2.21A1.29,1.29,0,0,0,50.54,46h3.29l3.89,3.89a1.29,1.29,0,0,0,2.2-.91V46h13a1.29,1.29,0,0,0,1.29-1.29h0V31.65A1.29,1.29,0,0,0,72.92,30.36ZM51.45,39.94H47.63a1.29,1.29,0,0,0-.91.38l-3.49,3.49V41.23a1.29,1.29,0,0,0-1.29-1.29H24.13V25H51.45Zm20.19,3.5h-13a1.29,1.29,0,0,0-1.29,1.29h0v1.15l-2.06-2.06a1.29,1.29,0,0,0-.91-.38H51.83v-.92h.91A1.29,1.29,0,0,0,54,41.23V32.94H71.6v10.5Z"/><path class="cls-2" d="M68.28,34.92H57.4a1.29,1.29,0,1,0,0,2.58H68.28a1.29,1.29,0,0,0,0-2.58Z"/><path class="cls-2" d="M68.28,38.79H57.4a1.29,1.29,0,1,0,0,2.58H68.28a1.29,1.29,0,0,0,0-2.58Z"/><path class="cls-2" d="M38.53,49.77A4.88,4.88,0,0,0,35,48.23H31.69a4.87,4.87,0,0,0-4.86,4.88q0,.15,0,.3L27,55.65l.34,5.24a6,6,0,0,0,12,0l.39-6h0l.1-1.49A4.88,4.88,0,0,0,38.53,49.77Zm-9.12,3.47a2.28,2.28,0,0,1,2.13-2.43h2.61l-.48,1.28c-.17.24-1.24,1.59-4.2,2Zm7.36,7.48a3.44,3.44,0,0,1-6.87,0l-.26-4a10,10,0,0,0,5-2,4.85,4.85,0,0,0,.64.39,9.58,9.58,0,0,0,1.82.64Zm-.32-7.84-.26-.15.45-1.2h0a2.26,2.26,0,0,1,.62,1.65A5.09,5.09,0,0,1,36.45,52.88Z"/><path class="cls-2" d="M48.18,78.1l-.55-3a9.09,9.09,0,0,0-9-7.47H37a1.29,1.29,0,0,0-.91.38L33.33,70.8,30.53,68a1.29,1.29,0,0,0-.91-.38H28a9.09,9.09,0,0,0-9,7.47l-.54,3a1.29,1.29,0,0,0,1,1.5l.23,0H46.91a1.29,1.29,0,0,0,1.27-1.52ZM21.3,77h0l.27-1.49A6.51,6.51,0,0,1,28,70.2h1.11l3.34,3.34a1.29,1.29,0,0,0,1.82,0h0l3.34-3.34h1.11a6.51,6.51,0,0,1,6.41,5.35L45.37,77Z"/><path class="cls-2" d="M73.59,49.77A4.88,4.88,0,0,0,70,48.23H66.75a4.86,4.86,0,0,0-4.86,4.86q0,.16,0,.32l.1,2.24.34,5.24a6,6,0,0,0,12,0l.39-6,.1-1.5A4.88,4.88,0,0,0,73.59,49.77Zm-9.12,3.47a2.28,2.28,0,0,1,2.13-2.43h2.61l-.48,1.28c-.17.24-1.24,1.59-4.2,2Zm7.36,7.48a3.44,3.44,0,0,1-6.87,0l-.26-4a10,10,0,0,0,5-2,4.87,4.87,0,0,0,.64.39,9.59,9.59,0,0,0,1.82.64Zm-.32-7.84-.26-.15.45-1.2h0a2.26,2.26,0,0,1,.62,1.65A5.09,5.09,0,0,1,71.51,52.88Z"/><path class="cls-2" d="M83.24,78.1l-.54-3a9.09,9.09,0,0,0-8.95-7.47H72.11a1.29,1.29,0,0,0-.91.38L68.39,70.8,65.59,68a1.29,1.29,0,0,0-.91-.38H63a9.09,9.09,0,0,0-9,7.47l-.54,3a1.29,1.29,0,0,0,1,1.5l.23,0H82a1.29,1.29,0,0,0,1.27-1.52ZM56.36,77h0l.27-1.49A6.51,6.51,0,0,1,63,70.2h1.11l3.34,3.34a1.29,1.29,0,0,0,1.82,0h0l3.34-3.34h1.11a6.51,6.51,0,0,1,6.41,5.35L80.43,77Z"/><path class="cls-2" d="M47.3,28.55h-.78a1.29,1.29,0,0,0,0,2.58h.78a1.29,1.29,0,0,0,0-2.58Z"/><path class="cls-2" d="M42,28.55H28.27a1.29,1.29,0,1,0,0,2.58H42a1.29,1.29,0,0,0,0-2.58Z"/><path class="cls-2" d="M47.3,33.73h-19a1.29,1.29,0,0,0,0,2.58h19a1.29,1.29,0,0,0,0-2.58Z"/></svg>