<svg id="Capa_1" data-name="Capa 1" xmlns="http://www.w3.org/2000/svg" viewBox="0 0 512 455.11"><defs><style>.cls-1{fill:#1fb6ff;}</style></defs><title>windows-logo</title><path id="Windows" class="cls-1" d="M104.52,48.25c32.26-12.86,60.55-19.33,86.45-19.8a169.89,169.89,0,0,1,38.6,4.29c18.52,4.73,44.16,18.61,53.92,24.18L237.12,214.84c-23.63-15.07-52.15-29.71-90.72-30.1h0c-25.72,0-53.66,5.92-86,18.08ZM177.15,427c11.47-38.77,39-132.4,47.23-160.39-6-3.62-12-7.25-18.26-10.6-23.86-12.2-47.05-18.39-68.95-18.39-3,0-6,.09-9,.35-27.94,2.3-53.45,9.64-69.88,15.34-4.36,1.59-8.8,3.27-13.41,5.13L0,413.34C30.87,402,58.15,396.45,83.15,396.45,123.58,396.45,152.9,411.49,177.15,427Zm273.5-115.48c-29.31,9.42-57.44,14.19-83.73,14.19-48,0-81.56-15.47-102.75-30.33L218.95,451.68c13.42,7.65,58.54,31.88,93.11,31.88,27.9,0,59.13-7.12,95.41-21.8ZM512,99.8C482.59,111.17,453.89,117,426.48,117c-45.84,0-79.64-15.82-101.55-31L279,244.28C309.84,264,343.11,274.07,378,274.07c28.47,0,58-6.8,87.73-20.25l-.09-1.1,1.87-.45Z" transform="translate(0 -28.44)"/></svg>